

<svg width="1082" height="1085" overflow="auto" id="depictmeta" xmlns="http://www.w3.org/2000/svg" xmlns:xlink="http://www.w3.org/1999/xlink"><defs>
  <path id="wave"   d="M2.56,772.52c270,0,270,22.69,539.92,22.69s270-22.69,539.93-22.69,270,22.69,539.92,22.69,275.61-22.69,545.57-22.69L2165.34,1086,0,1085.69Z" />
  
  
  <style>
    
    


svg {
 
  
}

.wave {
  animation: wave 1.8s linear;
  animation-iteration-count:infinite;
  fill: #4ab7ff;
overflow: hidden;
}

#wave2 {
  animation-duration:6s;
  fill: #00a9ff;
  opacity: 1
overflow: hidden;
}
#wave3 {
  animation-duration: 2.5s;
  opacity:1;
overflow: hidden;
}
@keyframes wave {
  to {transform: translateX(-100%);}
}
    
    </style>
  <linearGradient id="linear-gradient" x1="541.28" y1="0.9" x2="541.28" y2="1080.47" gradientUnits="userSpaceOnUse"><stop offset="0" stop-color="#ffee6f"/><stop offset="0.85" stop-color="#f7c51e"/></linearGradient></defs><path d="M1081.28.9V1080.47H1.28V.9Z" style="fill-rule:evenodd;fill:url(#linear-gradient)"/>
  
  <g transform="translate(4 24)">
  <path d="M434.43,926.07c28,19.24,226.67,53.65,224-11.08S555.35,656.93,423.77,667.2C463.38,721.41,497,851.15,434.43,926.07Z" style="fill:#52d2ff;stroke:#909090;stroke-linecap:round;stroke-linejoin:round;stroke-width:2.25px;fill-rule:evenodd"/>
    </g>
  
   <use id="wave3" class="wave" xlink:href="#wave" x="0" y="-2" ></use> 
   <use id="wave2" class="wave" xlink:href="#wave" x="0" y="0" ></use>
  
   <g transform="translate(0 -36)">
  <g style="isolation:isolate"><text transform="translate(537.74 1006)" style="isolation:isolate;font-size:50px;fill:#52d2ff;font-family:Helvetica">/5000</text></g><g style="isolation:isolate"><text transform="translate(355.23 945)" style="isolation:isolate;font-size:70px;fill:#52d2ff;font-family:Helvetica"><tspan xml:space="preserve"> shiftyshark</tspan></text></g><text transform="translate(431 1048.52)" style="isolation:isolate;font-size:20px;fill:#52d2ff;font-family:Helvetica">depict.limited/shiftysharks</text><g style="isolation:isolate"><text transform="translate(426 1006)" style="isolation:isolate;font-size:50px;fill:#52d2ff;font-family:Helvetica">0001</text></g></g></svg>