<svg id="Layer_1" data-name="Layer 1" xmlns="http://www.w3.org/2000/svg" viewBox="0 0 1082.41 1085.69"><path d="M1081.28.9V1080.47H1.28V.9Z" style="fill:#ffee6f;stroke:#606060;stroke-linecap:round;stroke-linejoin:round;stroke-width:1.7999999523162842px;fill-rule:evenodd"/><path d="M1.13,784.52h1080v255.75H1.13Z" style="fill:#5fd8ff;stroke:#606060;stroke-linecap:round;stroke-linejoin:round;stroke-width:2.259999990463257px"/><path d="M434.43,926.07c28,19.24,226.67,53.65,224-11.08S555.35,656.93,423.77,667.2C463.38,721.41,497,851.15,434.43,926.07Z" style="fill:#5fd8ff;stroke:#606060;stroke-linecap:round;stroke-linejoin:round;stroke-width:2.259999990463257px;fill-rule:evenodd"/><path d="M1.28,795c0-.67-4.16-1.42,31.83,4.39C164.5,820.6,261.4,821.82,344.22,799s233.89-16.38,299.91,2.49,188.78,21.35,242.4.88,171.34-17.79,194.75-.73v282.63s-898.67,0-1080,.22Z" style="fill:#5fd8ff;stroke:#606060;stroke-linecap:round;stroke-linejoin:round;stroke-width:2.259999990463257px"/><g style="isolation:isolate"><g style="isolation:isolate"><path d="M560.31,989.14l-12,35.48h-2l12-35.48Z" style="fill:#8ae3ff"/><path d="M581.94,990.75,580,994.91h-10l-2.18,4.45a17.53,17.53,0,0,1,10.28,4.82,10.83,10.83,0,0,1,3.25,7.83,11.1,11.1,0,0,1-1.06,4.85,13,13,0,0,1-2.68,3.79,13.45,13.45,0,0,1-3.6,2.52,13.18,13.18,0,0,1-5.77,1.35,7.28,7.28,0,0,1-4.34-1,2.81,2.81,0,0,1-1.36-2.24,1.6,1.6,0,0,1,.56-1.21,2,2,0,0,1,1.42-.52,2.93,2.93,0,0,1,1.11.19,10.94,10.94,0,0,1,1.63,1A6.46,6.46,0,0,0,571,1022a6.89,6.89,0,0,0,5-2.17,7.18,7.18,0,0,0,2.16-5.27,9.24,9.24,0,0,0-1.93-5.62,12.44,12.44,0,0,0-5.33-4,21.46,21.46,0,0,0-7.27-1.27l6.36-12.9Z" style="fill:#8ae3ff"/><path d="M587.06,1007.54a25.31,25.31,0,0,1,1.71-9.78,13.63,13.63,0,0,1,4.55-6.1,7.67,7.67,0,0,1,4.55-1.59c2.55,0,4.83,1.29,6.85,3.89q3.79,4.81,3.79,13.06a25.73,25.73,0,0,1-1.66,9.81,12.85,12.85,0,0,1-4.25,5.86,8.66,8.66,0,0,1-5,1.83q-4.75,0-7.91-5.61A22.74,22.74,0,0,1,587.06,1007.54Zm4.79.61a31.1,31.1,0,0,0,1.69,11.18q1.4,3.64,4.16,3.65a4.36,4.36,0,0,0,2.74-1.19,7.61,7.61,0,0,0,2.15-4,48.27,48.27,0,0,0,1.13-11.86,32.22,32.22,0,0,0-1.18-9.47,8.31,8.31,0,0,0-2.27-4,3.74,3.74,0,0,0-2.42-.81,3.89,3.89,0,0,0-3,1.49,12.52,12.52,0,0,0-2.39,6.39A58.56,58.56,0,0,0,591.85,1008.15Z" style="fill:#8ae3ff"/><path d="M612.11,1007.54a25.31,25.31,0,0,1,1.71-9.78,13.63,13.63,0,0,1,4.55-6.1,7.7,7.7,0,0,1,4.55-1.59c2.55,0,4.83,1.29,6.86,3.89q3.78,4.81,3.79,13.06a25.72,25.72,0,0,1-1.67,9.81,12.91,12.91,0,0,1-4.24,5.86,8.66,8.66,0,0,1-5,1.83q-4.74,0-7.9-5.61A22.74,22.74,0,0,1,612.11,1007.54Zm4.8.61a31.34,31.34,0,0,0,1.68,11.18q1.39,3.64,4.16,3.65a4.34,4.34,0,0,0,2.74-1.19,7.54,7.54,0,0,0,2.16-4,48.36,48.36,0,0,0,1.12-11.86,32.59,32.59,0,0,0-1.17-9.47,8.4,8.4,0,0,0-2.28-4,3.72,3.72,0,0,0-2.42-.81,3.85,3.85,0,0,0-3,1.49,12.61,12.61,0,0,0-2.4,6.39A59.94,59.94,0,0,0,616.91,1008.15Z" style="fill:#8ae3ff"/><path d="M637.17,1007.54a25.31,25.31,0,0,1,1.71-9.78,13.63,13.63,0,0,1,4.55-6.1,7.67,7.67,0,0,1,4.55-1.59c2.54,0,4.83,1.29,6.85,3.89q3.79,4.81,3.79,13.06a25.73,25.73,0,0,1-1.66,9.81,12.85,12.85,0,0,1-4.25,5.86,8.66,8.66,0,0,1-5,1.83q-4.75,0-7.91-5.61A22.74,22.74,0,0,1,637.17,1007.54Zm4.79.61a31.1,31.1,0,0,0,1.69,11.18q1.4,3.64,4.16,3.65a4.36,4.36,0,0,0,2.74-1.19,7.54,7.54,0,0,0,2.15-4,48.27,48.27,0,0,0,1.13-11.86,32.22,32.22,0,0,0-1.18-9.47,8.31,8.31,0,0,0-2.27-4,3.74,3.74,0,0,0-2.42-.81,3.85,3.85,0,0,0-3,1.49q-1.77,2-2.4,6.39A58.56,58.56,0,0,0,642,1008.15Z" style="fill:#8ae3ff"/></g></g><g style="isolation:isolate"><g style="isolation:isolate"><path d="M407.9,924.1v10.59h-1.13q-1.29-5-3.31-6.79a7.43,7.43,0,0,0-5.14-1.8,5.66,5.66,0,0,0-3.84,1.26,3.63,3.63,0,0,0-1.46,2.78,5,5,0,0,0,1.09,3.26,12.17,12.17,0,0,0,4.28,3l4.95,2.41q6.9,3.36,6.9,8.86a8.36,8.36,0,0,1-3.21,6.84,11.08,11.08,0,0,1-7.18,2.6,24.65,24.65,0,0,1-6.52-1,6.9,6.9,0,0,0-1.84-.34,1.35,1.35,0,0,0-1.22.89h-1.12V945.49h1.12a12.69,12.69,0,0,0,3.63,7.17,8.82,8.82,0,0,0,6,2.41,5.38,5.38,0,0,0,3.82-1.38,4.36,4.36,0,0,0,1.47-3.31,5.31,5.31,0,0,0-1.64-3.94,28.91,28.91,0,0,0-6.58-4q-4.92-2.45-6.45-4.41A7.64,7.64,0,0,1,389,933.1a8.61,8.61,0,0,1,2.64-6.42,9.29,9.29,0,0,1,6.8-2.58,16,16,0,0,1,4.45.78,10.62,10.62,0,0,0,2.31.51,1.34,1.34,0,0,0,.85-.24,3.18,3.18,0,0,0,.71-1Z" style="fill:#8ae3ff"/><path d="M424,907.83v22.75a26.32,26.32,0,0,1,6-5.31,9.34,9.34,0,0,1,4.41-1.17,7.19,7.19,0,0,1,4.55,1.46,8.59,8.59,0,0,1,2.82,4.58,32.44,32.44,0,0,1,.65,8v11a11.68,11.68,0,0,0,.47,4,2.68,2.68,0,0,0,1.16,1.29,6.44,6.44,0,0,0,3,.48v1.22H431.74V954.9h.71a5.1,5.1,0,0,0,3-.66,3.57,3.57,0,0,0,1.19-2,26.52,26.52,0,0,0,.1-3.19v-11a25.9,25.9,0,0,0-.53-6.69,4.53,4.53,0,0,0-1.68-2.4,4.77,4.77,0,0,0-2.78-.79,7.78,7.78,0,0,0-3.46.88,16.6,16.6,0,0,0-4.32,3.56v16.44a12.64,12.64,0,0,0,.36,4,2.93,2.93,0,0,0,1.32,1.31,7.59,7.59,0,0,0,3.35.53v1.22H413.6V954.9a6.88,6.88,0,0,0,3.26-.65A2.39,2.39,0,0,0,418,953a11.8,11.8,0,0,0,.4-3.87V920.94a47.35,47.35,0,0,0-.25-6.56,2.92,2.92,0,0,0-.78-1.66,2.14,2.14,0,0,0-1.41-.44,8.27,8.27,0,0,0-2.31.54l-.48-1.19,9.31-3.8Z" style="fill:#8ae3ff"/><path d="M460.36,924.1v25a11.24,11.24,0,0,0,.43,3.89,3,3,0,0,0,1.25,1.44,6.69,6.69,0,0,0,3,.48v1.22H450V954.9a7.12,7.12,0,0,0,3.06-.44,3.13,3.13,0,0,0,1.24-1.46,11.15,11.15,0,0,0,.46-3.91v-12a42.6,42.6,0,0,0-.31-6.55,2.64,2.64,0,0,0-.75-1.51,2.06,2.06,0,0,0-1.39-.43,6.84,6.84,0,0,0-2.31.51l-.47-1.22,9.37-3.8Zm-2.82-16.27a3.41,3.41,0,0,1,3.43,3.43,3.33,3.33,0,0,1-1,2.44,3.27,3.27,0,0,1-2.43,1,3.45,3.45,0,1,1,0-6.89Z" style="fill:#8ae3ff"/><path d="M481.11,927.46V947.9q0,4.35.95,5.5a4.17,4.17,0,0,0,3.37,1.5h2.81v1.22H469.67V954.9h1.39a4.72,4.72,0,0,0,2.48-.68,3.5,3.5,0,0,0,1.54-1.84,15,15,0,0,0,.43-4.48V927.46h-6.05V925h6.05v-2A18.75,18.75,0,0,1,477,915.1a12.31,12.31,0,0,1,4.57-5.22,12.48,12.48,0,0,1,6.91-2,10.51,10.51,0,0,1,6.56,2.31,4.33,4.33,0,0,1,2,3.43,2.68,2.68,0,0,1-.89,1.91,2.61,2.61,0,0,1-1.9.91,3,3,0,0,1-1.65-.57,9,9,0,0,1-2.12-2.41,8.6,8.6,0,0,0-2.31-2.49,4.39,4.39,0,0,0-2.34-.65,4.25,4.25,0,0,0-2.65.83,4.74,4.74,0,0,0-1.56,2.58q-.48,1.75-.48,9V925h8v2.45Z" style="fill:#8ae3ff"/><path d="M501.15,914.79V925h7.27v2.38h-7.27v20.17q0,3,.87,4.08a2.73,2.73,0,0,0,2.22,1.05,3.83,3.83,0,0,0,2.17-.7,4.45,4.45,0,0,0,1.63-2h1.33a10.77,10.77,0,0,1-3.36,5,7.28,7.28,0,0,1-4.49,1.68,6,6,0,0,1-3-.87,5.14,5.14,0,0,1-2.21-2.48,12.89,12.89,0,0,1-.71-5V927.39h-4.93v-1.12a12.82,12.82,0,0,0,3.82-2.53,20.26,20.26,0,0,0,3.48-4.23,37.89,37.89,0,0,0,2.18-4.72Z" style="fill:#8ae3ff"/><path d="M509.67,925h14.5v1.26h-.71a3.42,3.42,0,0,0-2.29.66,2.09,2.09,0,0,0-.77,1.65,9.39,9.39,0,0,0,1.13,3.67l7.57,15.69,7-17.19a7.22,7.22,0,0,0,.58-2.75,1.49,1.49,0,0,0-.24-.92,1.87,1.87,0,0,0-.85-.59,6.32,6.32,0,0,0-2-.22V925h10.12v1.26a4.79,4.79,0,0,0-1.93.54,5.57,5.57,0,0,0-1.5,1.53,21.28,21.28,0,0,0-1.15,2.62l-12.67,31a16,16,0,0,1-4.8,6.82,9.46,9.46,0,0,1-5.73,2.31,4.75,4.75,0,0,1-3.29-1.15,3.49,3.49,0,0,1-1.29-2.65,3,3,0,0,1,.93-2.3,3.68,3.68,0,0,1,2.57-.86,9.13,9.13,0,0,1,3.05.75,7.59,7.59,0,0,0,1.7.5,3.56,3.56,0,0,0,2.23-1,11.08,11.08,0,0,0,2.42-4.07l2.21-5.4-11.17-23.47a18.57,18.57,0,0,0-1.63-2.61,4.91,4.91,0,0,0-3.91-2.55Z" style="fill:#8ae3ff"/><path d="M566.32,924.1v10.59H565.2c-.86-3.33-2-5.59-3.31-6.79a7.47,7.47,0,0,0-5.15-1.8,5.69,5.69,0,0,0-3.84,1.26,3.63,3.63,0,0,0-1.46,2.78,5.07,5.07,0,0,0,1.09,3.26,12.17,12.17,0,0,0,4.28,3l5,2.41q6.88,3.36,6.89,8.86a8.36,8.36,0,0,1-3.21,6.84,11.08,11.08,0,0,1-7.18,2.6,24.65,24.65,0,0,1-6.52-1,6.91,6.91,0,0,0-1.83-.34,1.36,1.36,0,0,0-1.23.89h-1.12V945.49h1.12a12.69,12.69,0,0,0,3.64,7.17,8.8,8.8,0,0,0,6,2.41,5.38,5.38,0,0,0,3.82-1.38,4.36,4.36,0,0,0,1.47-3.31,5.27,5.27,0,0,0-1.64-3.94,29,29,0,0,0-6.57-4Q550.49,940,549,938a7.69,7.69,0,0,1-1.52-4.89,8.6,8.6,0,0,1,2.63-6.42,9.3,9.3,0,0,1,6.81-2.58,16.09,16.09,0,0,1,4.45.78,10.46,10.46,0,0,0,2.3.51,1.32,1.32,0,0,0,.85-.24,3.16,3.16,0,0,0,.72-1Z" style="fill:#8ae3ff"/><path d="M582.42,907.83v22.75a26.11,26.11,0,0,1,6-5.31,9.37,9.37,0,0,1,4.42-1.17,7.23,7.23,0,0,1,4.55,1.46,8.65,8.65,0,0,1,2.82,4.58,32.58,32.58,0,0,1,.64,8v11a11.37,11.37,0,0,0,.48,4,2.61,2.61,0,0,0,1.15,1.29,6.47,6.47,0,0,0,3,.48v1.22H590.16V954.9h.71a5.08,5.08,0,0,0,3-.66,3.51,3.51,0,0,0,1.19-2,26.52,26.52,0,0,0,.1-3.19v-11a26.54,26.54,0,0,0-.52-6.69A4.53,4.53,0,0,0,593,929a4.8,4.8,0,0,0-2.79-.79,7.82,7.82,0,0,0-3.46.88,16.59,16.59,0,0,0-4.31,3.56v16.44a13.1,13.1,0,0,0,.35,4,2.91,2.91,0,0,0,1.33,1.31,7.54,7.54,0,0,0,3.34.53v1.22H572V954.9a6.88,6.88,0,0,0,3.26-.65,2.35,2.35,0,0,0,1.09-1.29,11.71,11.71,0,0,0,.41-3.87V920.94a46.65,46.65,0,0,0-.26-6.56,2.92,2.92,0,0,0-.78-1.66,2.14,2.14,0,0,0-1.41-.44,8.42,8.42,0,0,0-2.31.54l-.47-1.19,9.3-3.8Z" style="fill:#8ae3ff"/><path d="M625.68,951.64a52,52,0,0,1-6,4.28,9.29,9.29,0,0,1-3.91.85,7,7,0,0,1-5.31-2.21,8.12,8.12,0,0,1-2.09-5.81,7.39,7.39,0,0,1,1-3.94,13.5,13.5,0,0,1,4.84-4.35,75.8,75.8,0,0,1,11.46-5v-1.23q0-4.65-1.48-6.38a5.33,5.33,0,0,0-4.29-1.73,4.83,4.83,0,0,0-3.4,1.15,3.47,3.47,0,0,0-1.29,2.65l.07,2a3.39,3.39,0,0,1-.8,2.41,2.72,2.72,0,0,1-2.09.85,2.62,2.62,0,0,1-2-.88,3.47,3.47,0,0,1-.8-2.41c0-1.95,1-3.74,3-5.37s4.79-2.44,8.39-2.44a14.54,14.54,0,0,1,6.79,1.39,6.4,6.4,0,0,1,2.95,3.29q.62,1.47.61,6v10.56a49.16,49.16,0,0,0,.17,5.45,2.3,2.3,0,0,0,.56,1.34,1.31,1.31,0,0,0,.9.34,1.87,1.87,0,0,0,1-.24,21.72,21.72,0,0,0,2.75-2.47v1.9q-3.81,5.08-7.27,5.09a3.31,3.31,0,0,1-2.65-1.15A6.21,6.21,0,0,1,625.68,951.64Zm0-2.21V937.58a68.56,68.56,0,0,0-6.62,2.88,11.45,11.45,0,0,0-3.84,3.13,6,6,0,0,0-1.15,3.56,5.77,5.77,0,0,0,1.46,4.06,4.41,4.41,0,0,0,3.36,1.62C620.61,952.83,622.87,951.69,625.68,949.43Z" style="fill:#8ae3ff"/><path d="M648,924.1v7q3.9-7,8-7a4.37,4.37,0,0,1,3.09,1.13,3.49,3.49,0,0,1,1.22,2.64,3.1,3.1,0,0,1-.88,2.24,2.82,2.82,0,0,1-2.1.91,4.47,4.47,0,0,1-2.67-1.17,4.44,4.44,0,0,0-2.19-1.17,2.05,2.05,0,0,0-1.33.68,16.51,16.51,0,0,0-3.15,4.58v14.91a9.26,9.26,0,0,0,.64,3.91,3.55,3.55,0,0,0,1.56,1.53,7,7,0,0,0,3.23.61v1.22H637.53V954.9a6.57,6.57,0,0,0,3.53-.75,2.85,2.85,0,0,0,1.19-1.73,16.9,16.9,0,0,0,.17-3.3v-12a49.63,49.63,0,0,0-.22-6.47,2.58,2.58,0,0,0-.81-1.51,2.29,2.29,0,0,0-1.48-.48,6.76,6.76,0,0,0-2.38.51l-.34-1.22,9.41-3.8Z" style="fill:#8ae3ff"/><path d="M671.29,907.83v31l7.91-7.23a26.62,26.62,0,0,0,2.92-2.92,1.45,1.45,0,0,0-.29-2,3,3,0,0,0-1.85-.56V925H693.5v1.09a12.94,12.94,0,0,0-4.64.85,15.26,15.26,0,0,0-4.06,2.78l-8,7.37,8,10.09q3.33,4.17,4.49,5.3a9.3,9.3,0,0,0,2.85,2.07,9.06,9.06,0,0,0,3,.34v1.22H680V954.9a3.11,3.11,0,0,0,1.75-.39,1.19,1.19,0,0,0,.46-1,5.22,5.22,0,0,0-1.36-2.51l-9.54-12.19v10.32a11.9,11.9,0,0,0,.42,4,2.8,2.8,0,0,0,1.21,1.36,9.06,9.06,0,0,0,3.39.44v1.22H660.49V954.9a8.38,8.38,0,0,0,3.56-.58,2.44,2.44,0,0,0,1.09-1.15,10.33,10.33,0,0,0,.51-3.88V921a50,50,0,0,0-.24-6.6,2.9,2.9,0,0,0-.78-1.67,2.16,2.16,0,0,0-1.42-.46,6.53,6.53,0,0,0-2.14.58l-.58-1.19,9.24-3.8Z" style="fill:#8ae3ff"/><path d="M717,924.1v10.59h-1.12q-1.29-5-3.31-6.79a7.43,7.43,0,0,0-5.14-1.8,5.66,5.66,0,0,0-3.84,1.26,3.63,3.63,0,0,0-1.46,2.78,5,5,0,0,0,1.09,3.26,12.07,12.07,0,0,0,4.28,3l4.95,2.41q6.9,3.36,6.9,8.86a8.36,8.36,0,0,1-3.21,6.84,11.1,11.1,0,0,1-7.18,2.6,24.59,24.59,0,0,1-6.52-1,6.9,6.9,0,0,0-1.84-.34,1.35,1.35,0,0,0-1.22.89h-1.12V945.49h1.12a12.63,12.63,0,0,0,3.63,7.17,8.82,8.82,0,0,0,6,2.41,5.35,5.35,0,0,0,3.82-1.38,4.34,4.34,0,0,0,1.48-3.31,5.28,5.28,0,0,0-1.65-3.94,28.55,28.55,0,0,0-6.57-4q-4.92-2.45-6.45-4.41a7.64,7.64,0,0,1-1.53-4.89,8.64,8.64,0,0,1,2.63-6.42,9.33,9.33,0,0,1,6.81-2.58,16,16,0,0,1,4.45.78,10.62,10.62,0,0,0,2.31.51,1.34,1.34,0,0,0,.85-.24,3.34,3.34,0,0,0,.71-1Z" style="fill:#8ae3ff"/></g></g><g style="isolation:isolate"><path d="M450.89,1061.51a4.39,4.39,0,0,1-1.28,1,3.16,3.16,0,0,1-1.34.29,3.35,3.35,0,0,1-2.56-1.22,4.56,4.56,0,0,1-1.1-3.15,5.68,5.68,0,0,1,1.22-3.52,3.71,3.71,0,0,1,3.11-1.6,2.67,2.67,0,0,1,1.95.75v-1.65a13.42,13.42,0,0,0-.07-1.88.82.82,0,0,0-.23-.48.61.61,0,0,0-.39-.13,1.92,1.92,0,0,0-.67.16l-.13-.34,2.67-1.1h.43V1059a13.17,13.17,0,0,0,.08,1.92.93.93,0,0,0,.23.49.58.58,0,0,0,.38.13,2.1,2.1,0,0,0,.7-.16l.11.34-2.66,1.1h-.45Zm0-.68v-4.61a3.09,3.09,0,0,0-.35-1.21,2,2,0,0,0-.77-.82,1.88,1.88,0,0,0-.95-.28,2,2,0,0,0-1.53.77,4.41,4.41,0,0,0-.89,3,4.68,4.68,0,0,0,.86,3,2.46,2.46,0,0,0,1.91,1A2.37,2.37,0,0,0,450.89,1060.83Z" style="fill:#8ae3ff"/><path d="M456.08,1056.94a4.6,4.6,0,0,0,1,3.13,3,3,0,0,0,2.29,1.13,2.49,2.49,0,0,0,1.53-.48,3.58,3.58,0,0,0,1.09-1.66l.3.2a4.7,4.7,0,0,1-1.19,2.44,3.18,3.18,0,0,1-2.47,1.09,3.58,3.58,0,0,1-2.76-1.25,4.79,4.79,0,0,1-1.15-3.38,5,5,0,0,1,1.18-3.57,3.82,3.82,0,0,1,2.95-1.29,3.28,3.28,0,0,1,2.47,1,3.62,3.62,0,0,1,1,2.65Zm0-.56h4.14a3.51,3.51,0,0,0-.21-1.21,1.9,1.9,0,0,0-.72-.86,1.85,1.85,0,0,0-1-.32,2,2,0,0,0-1.45.63A2.73,2.73,0,0,0,456.08,1056.38Z" style="fill:#8ae3ff"/><path d="M462.81,1054.46l2.75-1.11h.37v2.09a5.12,5.12,0,0,1,1.39-1.65,2.57,2.57,0,0,1,1.47-.48,2.82,2.82,0,0,1,2.25,1.06,4.94,4.94,0,0,1,1.1,3.35,5.61,5.61,0,0,1-1.32,3.83,3.51,3.51,0,0,1-2.76,1.24,3.6,3.6,0,0,1-1.25-.2,3.13,3.13,0,0,1-.88-.59v2.73a3.73,3.73,0,0,0,.11,1.16.86.86,0,0,0,.4.4,2.32,2.32,0,0,0,1,.15v.36h-4.69v-.36H463a1.76,1.76,0,0,0,.92-.21.73.73,0,0,0,.29-.35,4.09,4.09,0,0,0,.1-1.21v-8.46a4.1,4.1,0,0,0-.08-1.1.58.58,0,0,0-.25-.35.76.76,0,0,0-.46-.12,1.86,1.86,0,0,0-.6.14Zm3.12,1.56v3.34a7,7,0,0,0,.09,1.42,1.81,1.81,0,0,0,.67,1,2.09,2.09,0,0,0,1.34.43,1.94,1.94,0,0,0,1.58-.76,4.41,4.41,0,0,0,.8-2.81,4.86,4.86,0,0,0-.9-3.15,1.87,1.87,0,0,0-1.49-.76,2,2,0,0,0-.93.23A5.6,5.6,0,0,0,465.93,1056Z" style="fill:#8ae3ff"/><path d="M476.54,1053.31v7.19a3.38,3.38,0,0,0,.12,1.12.85.85,0,0,0,.36.41,2,2,0,0,0,.88.14v.35h-4.35v-.35a1.93,1.93,0,0,0,.88-.13.84.84,0,0,0,.36-.42,3.34,3.34,0,0,0,.13-1.12v-3.45a11.78,11.78,0,0,0-.09-1.88.79.79,0,0,0-.22-.44.6.6,0,0,0-.4-.12,1.91,1.91,0,0,0-.66.15l-.14-.36,2.7-1.09Zm-.81-4.68a1,1,0,0,1,.7.29,1,1,0,1,1-1.41,0A1,1,0,0,1,475.73,1048.63Z" style="fill:#8ae3ff"/><path d="M486.61,1059.12a4.84,4.84,0,0,1-1.42,2.72,3.37,3.37,0,0,1-2.33,1,3.43,3.43,0,0,1-2.66-1.28,5,5,0,0,1-1.13-3.45,4.79,4.79,0,0,1,1.25-3.43,4,4,0,0,1,3-1.32,3.27,3.27,0,0,1,2.17.7,1.91,1.91,0,0,1,.85,1.45.78.78,0,0,1-.24.6.94.94,0,0,1-.67.23,1,1,0,0,1-.86-.37,1.42,1.42,0,0,1-.22-.78,1.28,1.28,0,0,0-.4-.88,1.39,1.39,0,0,0-.95-.3,2,2,0,0,0-1.57.73,3.83,3.83,0,0,0-.79,2.53,5,5,0,0,0,.79,2.82,2.4,2.4,0,0,0,2.12,1.23,2.6,2.6,0,0,0,1.72-.65,4.45,4.45,0,0,0,1-1.64Z" style="fill:#8ae3ff"/><path d="M490.48,1050.63v2.94h2.09v.69h-2.09v5.8a2,2,0,0,0,.25,1.17.8.8,0,0,0,.64.3,1.07,1.07,0,0,0,.63-.2,1.34,1.34,0,0,0,.47-.59h.38a3,3,0,0,1-1,1.44,2.06,2.06,0,0,1-1.29.49,1.81,1.81,0,0,1-.88-.25,1.55,1.55,0,0,1-.63-.71,3.73,3.73,0,0,1-.21-1.44v-6h-1.41v-.32a3.92,3.92,0,0,0,1.09-.73,5.81,5.81,0,0,0,1-1.22,10.93,10.93,0,0,0,.62-1.36Z" style="fill:#8ae3ff"/><path d="M495.32,1060.62a1.08,1.08,0,0,1,1.08,1.09,1.08,1.08,0,0,1-1.08,1.08,1,1,0,0,1-.77-.31,1.07,1.07,0,0,1-.32-.77,1,1,0,0,1,.32-.77A1.06,1.06,0,0,1,495.32,1060.62Z" style="fill:#8ae3ff"/><path d="M501.52,1048.63v11.87a3.26,3.26,0,0,0,.12,1.11.91.91,0,0,0,.38.42,2.21,2.21,0,0,0,.94.14v.35h-4.38v-.35a1.81,1.81,0,0,0,.84-.13.78.78,0,0,0,.35-.42,3.34,3.34,0,0,0,.13-1.12v-8.13a15.17,15.17,0,0,0-.07-1.86.82.82,0,0,0-.22-.47.61.61,0,0,0-.39-.13,1.7,1.7,0,0,0-.64.16l-.17-.34,2.67-1.1Z" style="fill:#8ae3ff"/><path d="M507.08,1053.31v7.19a3.3,3.3,0,0,0,.13,1.12.85.85,0,0,0,.36.41,1.93,1.93,0,0,0,.87.14v.35H504.1v-.35a2,2,0,0,0,.88-.13.83.83,0,0,0,.35-.42,3.09,3.09,0,0,0,.13-1.12v-3.45a13.79,13.79,0,0,0-.08-1.88.79.79,0,0,0-.22-.44.62.62,0,0,0-.4-.12,1.91,1.91,0,0,0-.66.15l-.14-.36,2.7-1.09Zm-.81-4.68a1,1,0,0,1,.7.29,1,1,0,0,1,0,1.4.92.92,0,0,1-.7.3,1,1,0,0,1-.7-.3,1,1,0,0,1-.29-.7.93.93,0,0,1,.29-.7A1,1,0,0,1,506.27,1048.63Z" style="fill:#8ae3ff"/><path d="M512.21,1055.21c.65-.65,1-1,1.15-1.12a3.58,3.58,0,0,1,.95-.57,2.65,2.65,0,0,1,1-.21,2.19,2.19,0,0,1,1.44.49,2.34,2.34,0,0,1,.81,1.41,6.54,6.54,0,0,1,1.7-1.53,3,3,0,0,1,1.43-.37,2.17,2.17,0,0,1,1.26.37,2.44,2.44,0,0,1,.88,1.19,5.52,5.52,0,0,1,.21,1.78v3.85a3.33,3.33,0,0,0,.13,1.15.8.8,0,0,0,.36.37,1.84,1.84,0,0,0,.86.15v.35H520v-.35h.18a1.55,1.55,0,0,0,.9-.23.83.83,0,0,0,.32-.49,5.73,5.73,0,0,0,0-1v-3.85a3.32,3.32,0,0,0-.26-1.54,1.32,1.32,0,0,0-1.22-.63,2.32,2.32,0,0,0-1,.26,5.59,5.59,0,0,0-1.27,1l0,.11,0,.42v4.27a4,4,0,0,0,.1,1.14.85.85,0,0,0,.39.38,2.24,2.24,0,0,0,1,.15v.35h-4.52v-.35a2.05,2.05,0,0,0,1-.18.89.89,0,0,0,.38-.53,5.24,5.24,0,0,0,0-1v-3.85a3,3,0,0,0-.32-1.57,1.38,1.38,0,0,0-1.2-.63,2.19,2.19,0,0,0-1,.29,4,4,0,0,0-1.25,1v4.8a3.4,3.4,0,0,0,.12,1.14.9.9,0,0,0,.37.4,2.43,2.43,0,0,0,1,.13v.35h-4.43v-.35a2.1,2.1,0,0,0,.86-.13.81.81,0,0,0,.37-.42,3.13,3.13,0,0,0,.13-1.12v-3.42a12,12,0,0,0-.09-1.9.73.73,0,0,0-.21-.45.62.62,0,0,0-.4-.12,1.91,1.91,0,0,0-.66.15l-.14-.36,2.69-1.09h.42Z" style="fill:#8ae3ff"/><path d="M528.2,1053.31v7.19a3.38,3.38,0,0,0,.12,1.12.85.85,0,0,0,.36.41,2,2,0,0,0,.88.14v.35h-4.35v-.35a1.93,1.93,0,0,0,.88-.13.84.84,0,0,0,.36-.42,3.34,3.34,0,0,0,.13-1.12v-3.45a11.78,11.78,0,0,0-.09-1.88.79.79,0,0,0-.22-.44.6.6,0,0,0-.4-.12,1.91,1.91,0,0,0-.66.15l-.14-.36,2.7-1.09Zm-.81-4.68a1,1,0,0,1,.7.29,1,1,0,1,1-1.41,0A1,1,0,0,1,527.39,1048.63Z" style="fill:#8ae3ff"/><path d="M533.27,1050.63v2.94h2.09v.69h-2.09v5.8a1.91,1.91,0,0,0,.25,1.17.79.79,0,0,0,.64.3,1.06,1.06,0,0,0,.62-.2,1.28,1.28,0,0,0,.47-.59h.38a3,3,0,0,1-1,1.44,2,2,0,0,1-1.29.49,1.74,1.74,0,0,1-.87-.25,1.57,1.57,0,0,1-.64-.71,3.77,3.77,0,0,1-.2-1.44v-6h-1.42v-.32a4,4,0,0,0,1.1-.73,5.77,5.77,0,0,0,1-1.22,9.6,9.6,0,0,0,.62-1.36Z" style="fill:#8ae3ff"/><path d="M537.73,1056.94a4.6,4.6,0,0,0,1,3.13,3,3,0,0,0,2.29,1.13,2.49,2.49,0,0,0,1.53-.48,3.58,3.58,0,0,0,1.09-1.66l.3.2a4.7,4.7,0,0,1-1.19,2.44,3.18,3.18,0,0,1-2.47,1.09,3.59,3.59,0,0,1-2.76-1.25,4.84,4.84,0,0,1-1.15-3.38,5,5,0,0,1,1.18-3.57,3.82,3.82,0,0,1,3-1.29,3.28,3.28,0,0,1,2.47,1,3.62,3.62,0,0,1,1,2.65Zm0-.56h4.14a3.83,3.83,0,0,0-.2-1.21,2,2,0,0,0-.73-.86,1.83,1.83,0,0,0-1-.32,2,2,0,0,0-1.45.63A2.73,2.73,0,0,0,537.73,1056.38Z" style="fill:#8ae3ff"/><path d="M551.42,1061.51a4.52,4.52,0,0,1-1.28,1,3.21,3.21,0,0,1-1.35.29,3.33,3.33,0,0,1-2.55-1.22,4.56,4.56,0,0,1-1.1-3.15,5.67,5.67,0,0,1,1.21-3.52,3.74,3.74,0,0,1,3.12-1.6,2.69,2.69,0,0,1,1.95.75v-1.65a13.42,13.42,0,0,0-.07-1.88.82.82,0,0,0-.23-.48.65.65,0,0,0-.39-.13,2,2,0,0,0-.68.16l-.12-.34,2.66-1.1H553V1059a13.17,13.17,0,0,0,.08,1.92.8.8,0,0,0,.23.49.57.57,0,0,0,.38.13,2.1,2.1,0,0,0,.7-.16l.11.34-2.66,1.1h-.45Zm0-.68v-4.61a3.26,3.26,0,0,0-.35-1.21,2,2,0,0,0-.78-.82,1.82,1.82,0,0,0-.94-.28,2,2,0,0,0-1.53.77,4.36,4.36,0,0,0-.89,3,4.63,4.63,0,0,0,.86,3,2.46,2.46,0,0,0,1.91,1A2.39,2.39,0,0,0,551.42,1060.83Z" style="fill:#8ae3ff"/><path d="M560.08,1048.63l-4.79,14.16h-.78l4.79-14.16Z" style="fill:#8ae3ff"/><path d="M566.44,1053.31v3h-.32a4.09,4.09,0,0,0-1-2,2.16,2.16,0,0,0-1.48-.51,1.65,1.65,0,0,0-1.11.36,1,1,0,0,0-.42.8,1.47,1.47,0,0,0,.32.94,3.54,3.54,0,0,0,1.23.85l1.42.69a2.89,2.89,0,0,1,2,2.55,2.4,2.4,0,0,1-.92,2,3.22,3.22,0,0,1-2.06.74,6.9,6.9,0,0,1-1.88-.29,2.09,2.09,0,0,0-.53-.1.4.4,0,0,0-.35.26h-.32v-3.2h.32a3.56,3.56,0,0,0,1,2.06,2.49,2.49,0,0,0,1.73.7,1.51,1.51,0,0,0,1.09-.4,1.23,1.23,0,0,0,.43-1,1.52,1.52,0,0,0-.47-1.13,8.33,8.33,0,0,0-1.89-1.17,5.37,5.37,0,0,1-1.86-1.27,2.21,2.21,0,0,1-.44-1.4,2.47,2.47,0,0,1,.76-1.85,2.68,2.68,0,0,1,2-.74,4.57,4.57,0,0,1,1.27.23,3.54,3.54,0,0,0,.67.14.36.36,0,0,0,.24-.07.82.82,0,0,0,.21-.3Z" style="fill:#8ae3ff"/><path d="M571.07,1048.63v6.55a7.11,7.11,0,0,1,1.72-1.53,2.6,2.6,0,0,1,1.27-.34,2.1,2.1,0,0,1,1.31.42,2.53,2.53,0,0,1,.81,1.32,9.62,9.62,0,0,1,.18,2.28v3.17a3.33,3.33,0,0,0,.14,1.16.7.7,0,0,0,.33.37,1.88,1.88,0,0,0,.86.14v.35H573.3v-.35h.2a1.43,1.43,0,0,0,.87-.19,1,1,0,0,0,.34-.56,7.66,7.66,0,0,0,0-.92v-3.17a7.69,7.69,0,0,0-.15-1.92,1.35,1.35,0,0,0-.48-.69,1.42,1.42,0,0,0-.8-.23,2.26,2.26,0,0,0-1,.26,4.71,4.71,0,0,0-1.24,1v4.73a3.65,3.65,0,0,0,.1,1.14.87.87,0,0,0,.38.38,2.21,2.21,0,0,0,1,.15v.35h-4.43v-.35a1.91,1.91,0,0,0,.94-.19.69.69,0,0,0,.31-.37,3.26,3.26,0,0,0,.12-1.11v-8.1a15.35,15.35,0,0,0-.07-1.88.82.82,0,0,0-.23-.48.64.64,0,0,0-.4-.13,2.26,2.26,0,0,0-.67.16l-.14-.34,2.68-1.1Z" style="fill:#8ae3ff"/><path d="M581.53,1053.31v7.19a3.38,3.38,0,0,0,.12,1.12.85.85,0,0,0,.36.41,2,2,0,0,0,.88.14v.35h-4.35v-.35a1.93,1.93,0,0,0,.88-.13.84.84,0,0,0,.36-.42,3.34,3.34,0,0,0,.13-1.12v-3.45a11.78,11.78,0,0,0-.09-1.88.79.79,0,0,0-.22-.44.6.6,0,0,0-.4-.12,1.91,1.91,0,0,0-.66.15l-.14-.36,2.7-1.09Zm-.81-4.68a1,1,0,0,1,.7.29,1,1,0,1,1-1.41,0A1,1,0,0,1,580.72,1048.63Z" style="fill:#8ae3ff"/><path d="M587.5,1054.28v5.88a2.9,2.9,0,0,0,.27,1.58,1.19,1.19,0,0,0,1,.43h.81v.35H584.2v-.35h.4a1.39,1.39,0,0,0,.72-.2,1,1,0,0,0,.44-.52,4.57,4.57,0,0,0,.12-1.29v-5.88h-1.73v-.71h1.73V1053a5.5,5.5,0,0,1,.43-2.27,3.66,3.66,0,0,1,1.32-1.5,3.58,3.58,0,0,1,2-.57,3,3,0,0,1,1.89.67,1.24,1.24,0,0,1,.57,1,.81.81,0,0,1-.26.56.76.76,0,0,1-.55.25.85.85,0,0,1-.47-.16,2.43,2.43,0,0,1-.61-.69,2.49,2.49,0,0,0-.66-.72,1.33,1.33,0,0,0-.68-.18,1.21,1.21,0,0,0-.76.24,1.27,1.27,0,0,0-.45.74,14.25,14.25,0,0,0-.13,2.59v.64h2.3v.71Z" style="fill:#8ae3ff"/><path d="M593.26,1050.63v2.94h2.09v.69h-2.09v5.8a1.91,1.91,0,0,0,.25,1.17.77.77,0,0,0,.64.3,1.06,1.06,0,0,0,.62-.2,1.28,1.28,0,0,0,.47-.59h.38a3,3,0,0,1-1,1.44,2,2,0,0,1-1.29.49,1.74,1.74,0,0,1-.87-.25,1.57,1.57,0,0,1-.64-.71,3.77,3.77,0,0,1-.2-1.44v-6h-1.42v-.32a4,4,0,0,0,1.1-.73,5.77,5.77,0,0,0,1-1.22,9.6,9.6,0,0,0,.62-1.36Z" style="fill:#8ae3ff"/><path d="M595.71,1053.57h4.17v.37h-.21a1,1,0,0,0-.66.19.6.6,0,0,0-.22.47,2.6,2.6,0,0,0,.33,1.05l2.17,4.52,2-5a2,2,0,0,0,.16-.79.4.4,0,0,0-.07-.26.5.5,0,0,0-.24-.17,2,2,0,0,0-.59-.06v-.37h2.91v.37a1.25,1.25,0,0,0-.55.15,1.63,1.63,0,0,0-.43.44,5.44,5.44,0,0,0-.33.75l-3.65,8.93a4.54,4.54,0,0,1-1.38,2,2.68,2.68,0,0,1-1.64.67,1.33,1.33,0,0,1-1-.34,1,1,0,0,1-.37-.76.87.87,0,0,1,.27-.66,1,1,0,0,1,.73-.25,2.72,2.72,0,0,1,.88.22,2,2,0,0,0,.49.15,1,1,0,0,0,.64-.31,3.25,3.25,0,0,0,.7-1.17l.63-1.55-3.21-6.75a5.3,5.3,0,0,0-.47-.75,2.26,2.26,0,0,0-.4-.46,2.13,2.13,0,0,0-.72-.27Z" style="fill:#8ae3ff"/><path d="M612,1053.31v3h-.33a3.91,3.91,0,0,0-.95-2,2.16,2.16,0,0,0-1.48-.51,1.64,1.64,0,0,0-1.1.36,1,1,0,0,0-.42.8,1.46,1.46,0,0,0,.31.94,3.54,3.54,0,0,0,1.23.85l1.43.69a2.89,2.89,0,0,1,2,2.55,2.43,2.43,0,0,1-.92,2,3.26,3.26,0,0,1-2.07.74,6.89,6.89,0,0,1-1.87-.29,2.17,2.17,0,0,0-.53-.1.39.39,0,0,0-.35.26h-.32v-3.2h.32a3.61,3.61,0,0,0,1,2.06,2.5,2.5,0,0,0,1.73.7,1.52,1.52,0,0,0,1.1-.4,1.26,1.26,0,0,0,.43-1,1.49,1.49,0,0,0-.48-1.13,7.87,7.87,0,0,0-1.89-1.17,5.41,5.41,0,0,1-1.85-1.27,2.15,2.15,0,0,1-.44-1.4,2.5,2.5,0,0,1,.75-1.85,2.71,2.71,0,0,1,2-.74,4.63,4.63,0,0,1,1.28.23,3.26,3.26,0,0,0,.67.14.36.36,0,0,0,.24-.07.72.72,0,0,0,.2-.3Z" style="fill:#8ae3ff"/><path d="M616.63,1048.63v6.55a7.3,7.3,0,0,1,1.71-1.53,2.66,2.66,0,0,1,1.27-.34,2.08,2.08,0,0,1,1.31.42,2.42,2.42,0,0,1,.81,1.32,9,9,0,0,1,.19,2.28v3.17a3.1,3.1,0,0,0,.14,1.16.7.7,0,0,0,.33.37,1.85,1.85,0,0,0,.86.14v.35h-4.4v-.35h.21a1.47,1.47,0,0,0,.87-.19,1.09,1.09,0,0,0,.34-.56,7.66,7.66,0,0,0,0-.92v-3.17a7.69,7.69,0,0,0-.15-1.92,1.43,1.43,0,0,0-.49-.69,1.4,1.4,0,0,0-.8-.23,2.22,2.22,0,0,0-1,.26,4.71,4.71,0,0,0-1.24,1v4.73a3.65,3.65,0,0,0,.1,1.14.82.82,0,0,0,.38.38,2.18,2.18,0,0,0,1,.15v.35h-4.43v-.35a1.94,1.94,0,0,0,.94-.19.69.69,0,0,0,.31-.37,3.35,3.35,0,0,0,.11-1.11v-8.1a13.42,13.42,0,0,0-.07-1.88.83.83,0,0,0-.22-.48.65.65,0,0,0-.41-.13,2.21,2.21,0,0,0-.66.16l-.14-.34,2.68-1.1Z" style="fill:#8ae3ff"/><path d="M629.07,1061.23a15.12,15.12,0,0,1-1.73,1.23,2.69,2.69,0,0,1-1.12.25,2,2,0,0,1-1.53-.64,2.33,2.33,0,0,1-.6-1.67,2.07,2.07,0,0,1,.29-1.13,3.93,3.93,0,0,1,1.39-1.25,21.53,21.53,0,0,1,3.3-1.43v-.35a2.9,2.9,0,0,0-.43-1.84,1.52,1.52,0,0,0-1.23-.49,1.4,1.4,0,0,0-1,.33,1,1,0,0,0-.37.76l0,.57a1,1,0,0,1-.23.69.78.78,0,0,1-.6.24.75.75,0,0,1-.59-.25,1,1,0,0,1-.23-.69,2,2,0,0,1,.86-1.55,3.7,3.7,0,0,1,2.41-.7,4.25,4.25,0,0,1,1.95.4,1.81,1.81,0,0,1,.85,1,5.21,5.21,0,0,1,.18,1.72v3a12.06,12.06,0,0,0,.05,1.57.65.65,0,0,0,.16.39.39.39,0,0,0,.26.09.6.6,0,0,0,.27-.06,6.63,6.63,0,0,0,.79-.72v.55c-.73,1-1.42,1.47-2.09,1.47a.93.93,0,0,1-.76-.34A1.72,1.72,0,0,1,629.07,1061.23Zm0-.63v-3.41a19.78,19.78,0,0,0-1.91.83,3.14,3.14,0,0,0-1.1.9,1.72,1.72,0,0,0-.33,1,1.68,1.68,0,0,0,.42,1.17,1.26,1.26,0,0,0,1,.46A3.54,3.54,0,0,0,629.07,1060.6Z" style="fill:#8ae3ff"/><path d="M635.49,1053.31v2q1.13-2,2.31-2a1.26,1.26,0,0,1,.89.33,1,1,0,0,1,.35.75.91.91,0,0,1-.26.65.83.83,0,0,1-.6.26,1.32,1.32,0,0,1-.77-.33,1.21,1.21,0,0,0-.63-.34.65.65,0,0,0-.38.19,5,5,0,0,0-.91,1.32v4.29a2.51,2.51,0,0,0,.19,1.12.92.92,0,0,0,.45.44,1.91,1.91,0,0,0,.93.18v.35h-4.58v-.35a1.82,1.82,0,0,0,1-.22.81.81,0,0,0,.34-.49,4.41,4.41,0,0,0,0-1V1057a15.27,15.27,0,0,0-.06-1.86.67.67,0,0,0-.24-.43.64.64,0,0,0-.42-.14,1.87,1.87,0,0,0-.68.15l-.1-.36,2.7-1.09Z" style="fill:#8ae3ff"/><path d="M642.18,1048.63v8.91l2.28-2.08a7.47,7.47,0,0,0,.84-.84.46.46,0,0,0,.08-.24.43.43,0,0,0-.17-.33.79.79,0,0,0-.53-.16v-.32h3.89v.32a3.59,3.59,0,0,0-1.33.24,4.28,4.28,0,0,0-1.17.8l-2.3,2.12,2.3,2.9c.64.8,1.07,1.31,1.29,1.52a2.51,2.51,0,0,0,.82.6,2.38,2.38,0,0,0,.85.1v.35h-4.35v-.35a1.07,1.07,0,0,0,.51-.11.38.38,0,0,0,.13-.29,1.55,1.55,0,0,0-.39-.73l-2.75-3.5v3a3.4,3.4,0,0,0,.12,1.14.84.84,0,0,0,.35.39,2.66,2.66,0,0,0,1,.13v.35h-4.55v-.35a2.44,2.44,0,0,0,1-.17.73.73,0,0,0,.32-.33,3.15,3.15,0,0,0,.14-1.11v-8.15a13.69,13.69,0,0,0-.07-1.9.77.77,0,0,0-.22-.47.62.62,0,0,0-.41-.14,1.94,1.94,0,0,0-.62.17l-.16-.34,2.65-1.1Z" style="fill:#8ae3ff"/><path d="M655.32,1053.31v3H655a4,4,0,0,0-1-2,2.15,2.15,0,0,0-1.48-.51,1.64,1.64,0,0,0-1.1.36,1,1,0,0,0-.42.8,1.46,1.46,0,0,0,.31.94,3.54,3.54,0,0,0,1.23.85l1.43.69a2.89,2.89,0,0,1,2,2.55,2.43,2.43,0,0,1-.92,2,3.26,3.26,0,0,1-2.07.74,6.89,6.89,0,0,1-1.87-.29,2.17,2.17,0,0,0-.53-.1.39.39,0,0,0-.35.26h-.32v-3.2h.32a3.61,3.61,0,0,0,1,2.06,2.5,2.5,0,0,0,1.73.7,1.52,1.52,0,0,0,1.1-.4,1.26,1.26,0,0,0,.43-1,1.49,1.49,0,0,0-.48-1.13,7.87,7.87,0,0,0-1.89-1.17,5.41,5.41,0,0,1-1.85-1.27,2.15,2.15,0,0,1-.44-1.4,2.5,2.5,0,0,1,.75-1.85,2.71,2.71,0,0,1,2-.74,4.63,4.63,0,0,1,1.28.23,3.26,3.26,0,0,0,.67.14.36.36,0,0,0,.24-.07.82.82,0,0,0,.21-.3Z" style="fill:#8ae3ff"/></g><g style="isolation:isolate"><g style="isolation:isolate"><path d="M466.27,1018.19l-2.32,6.39H444.37v-.91q8.64-7.87,12.16-12.87t3.53-9.12a7.21,7.21,0,0,0-1.94-5.19,6.16,6.16,0,0,0-4.62-2,7.26,7.26,0,0,0-4.39,1.43,8.35,8.35,0,0,0-2.88,4.2h-.9a11.37,11.37,0,0,1,3.14-7,8.78,8.78,0,0,1,6.33-2.42,9.34,9.34,0,0,1,6.74,2.59,8.22,8.22,0,0,1,2.7,6.12,11.88,11.88,0,0,1-1.17,5,33.29,33.29,0,0,1-5.88,8.39q-6.09,6.66-7.6,8h8.66a23.49,23.49,0,0,0,3.7-.2,4.92,4.92,0,0,0,1.93-.8,5.12,5.12,0,0,0,1.49-1.7Z" style="fill:#8ae3ff"/><path d="M490.1,991.4l-1.9,4.16h-10L476,1000a17.53,17.53,0,0,1,10.27,4.82,10.84,10.84,0,0,1,3.26,7.83,11.11,11.11,0,0,1-1.07,4.85,13,13,0,0,1-2.68,3.79,13.58,13.58,0,0,1-9.37,3.87,7.28,7.28,0,0,1-4.34-1,2.81,2.81,0,0,1-1.36-2.24,1.64,1.64,0,0,1,.56-1.21,2,2,0,0,1,1.42-.52,3,3,0,0,1,1.12.19,10.47,10.47,0,0,1,1.62,1,6.56,6.56,0,0,0,3.72,1.27,6.87,6.87,0,0,0,5-2.17,7.18,7.18,0,0,0,2.17-5.27,9.25,9.25,0,0,0-1.94-5.62,12.38,12.38,0,0,0-5.33-4,21.41,21.41,0,0,0-7.27-1.27l6.36-12.9Z" style="fill:#8ae3ff"/><path d="M496,997.71a13.44,13.44,0,0,1,3.59-5.17,8,8,0,0,1,5.39-1.82,7.46,7.46,0,0,1,6.12,2.59,6.33,6.33,0,0,1,1.61,4.14q0,3.62-4.55,7.48a9.87,9.87,0,0,1,4.63,3.43,8.88,8.88,0,0,1,1.56,5.23,11,11,0,0,1-2.74,7.47q-3.57,4.11-10.35,4.11-3.34,0-4.56-.84a2.25,2.25,0,0,1-1.21-1.78,1.68,1.68,0,0,1,.57-1.25,2,2,0,0,1,1.39-.54,4.22,4.22,0,0,1,1.24.2,14.66,14.66,0,0,1,1.89.89,11.58,11.58,0,0,0,2,.92,6.72,6.72,0,0,0,1.93.27,5.83,5.83,0,0,0,4.34-1.93,6.38,6.38,0,0,0,1.85-4.58,8.85,8.85,0,0,0-.85-3.77,6.84,6.84,0,0,0-1.4-2.08,10.09,10.09,0,0,0-2.89-1.77,9.32,9.32,0,0,0-3.74-.8H501v-.73a10,10,0,0,0,3.88-1.4,7,7,0,0,0,3.7-6.31A5.42,5.42,0,0,0,507,995.6,5.35,5.35,0,0,0,503.1,994q-3.8,0-6.34,4.07Z" style="fill:#8ae3ff"/><path d="M541.78,1012.35v3.47h-4.45v8.76h-4v-8.76h-14v-3.13l15.39-22h2.69v21.63Zm-8.49,0V995.88l-11.65,16.47Z" style="fill:#8ae3ff"/></g></g></svg>