<?xml version="1.0" encoding="UTF-8" standalone="no"?> <!-- Created with Vectornator for iOS (http://vectornator.io/) --><!DOCTYPE svg PUBLIC "-//W3C//DTD SVG 1.1//EN" "http://www.w3.org/Graphics/SVG/1.1/DTD/svg11.dtd">
<svg height="100%" style="fill-rule:nonzero;clip-rule:evenodd;stroke-linecap:round;stroke-linejoin:round;" xmlns:xlink="http://www.w3.org/1999/xlink" xmlns="http://www.w3.org/2000/svg" xml:space="preserve" width="100%" xmlns:vectornator="http://vectornator.io" version="1.1" viewBox="0 0 2500 2500">
<metadata>
<vectornator:setting key="DimensionsVisible" value="0"/>
<vectornator:setting key="PencilOnly" value="1"/>
<vectornator:setting key="SnapToPoints" value="0"/>
<vectornator:setting key="OutlineMode" value="0"/>
<vectornator:setting key="GuidesVisible" value="1"/>
<vectornator:setting key="RulersVisible" value="1"/>
<vectornator:setting key="SnapToEdges" value="0"/>
<vectornator:setting key="CMYKEnabledKey" value="0"/>
<vectornator:setting key="DisplayWhiteBackground" value="0"/>
<vectornator:setting key="doHistoryDisabled" value="0"/>
<vectornator:setting key="SnapToGuides" value="1"/>
<vectornator:setting key="TimeLapseWatermarkDisabled" value="0"/>
<vectornator:setting key="DynamicGuides" value="1"/>
<vectornator:setting key="IsolateActiveLayer" value="0"/>
<vectornator:setting key="Units" value="Points"/>
<vectornator:setting key="SnapToGrid" value="0"/>
</metadata>
<defs>
<linearGradient y1="1250" id="LinearGradient" x1="0" y2="1250" x2="2500" gradientUnits="userSpaceOnUse" gradientTransform="matrix(1 0 0 1 0 0)">
<stop stop-color="#ffee6f" offset="0"/>
<stop stop-color="#f9d559" offset="1"/>
</linearGradient>
</defs>
<g id="background" vectornator:layerName="background">
<path stroke="#606060" fill-rule="evenodd" stroke-width="4.1604" d="M2500+0.5L2500+2499.5L0+2499.5L0+0.5L2500+0.5Z" fill="url(#LinearGradient)" stroke-linecap="round" opacity="1" stroke-linejoin="round"/>
</g>
<g id="mouthInner" vectornator:layerName="mouthInner">
<path stroke="#606060" fill-rule="evenodd" stroke-width="5.3168" d="M1255.4+1044.2C1255.4+1044.2+1208+1204+1395.2+1298C1617.4+1414.6+1632.4+1430.1+1728.6+1459.8C1830+1479.1+1883.4+1437.6+1888.7+1422.7C1894+1407.8+1903.4+1371.8+1821.4+1300.7C1740.5+1230.7+1772.1+1255.6+1700.6+1230.1C1638.3+1202.4+1608.1+1180.7+1375.4+1153.5C1351.2+1071.1+1255.4+1044.2+1255.4+1044.2Z" fill="#f2967a" stroke-linecap="round" fill-opacity="0.93018" opacity="1" stroke-linejoin="round"/>
</g>
<g id="teethLower1" vectornator:layerName="teethLower1">
<path stroke="#606060" fill-rule="evenodd" stroke-width="5.3441" d="M1341.1+1247.9C1393.8+1212+1384.5+1190.4+1370.9+1278.4C1448.6+1245.8+1412.1+1231.2+1415.1+1309.1C1485.1+1282+1452.8+1235.3+1456.9+1333.2C1511.1+1302.2+1511+1272.1+1502+1350.9C1504.2+1358.2+1545.7+1314.6+1551.6+1309.1C1554+1317.3+1551.1+1349.8+1548.3+1369.4C1563.4+1354.3+1580.7+1334.2+1595.9+1327.5C1578+1390.4+1548.7+1406.2+1628.1+1339.8C1617.4+1362.8+1615.4+1381.9+1615.1+1394.2C1649.3+1375.9+1684.5+1329.8+1665+1366.8C1621.3+1440.8+1675.4+1387.4+1704.7+1369.7C1701.7+1378.6+1691.5+1400.6+1687.6+1414.4C1697.7+1409+1721.2+1389.1+1740.3+1377.3C1734.6+1394.2+1722.1+1415.1+1717.1+1427C1737.1+1414.9+1754.5+1397.5+1774.6+1383.9C1758.8+1407+1755.2+1430.6+1750.9+1436.9C1766.1+1428.1+1808.8+1388.5+1816.7+1382.1C1790.9+1456+1803.1+1442.2+1846.8+1377.2C1846.8+1377.2+1827.6+1430.4+1836.2+1428.9C1863.8+1414+1879.3+1350.1+1879.6+1405.6C1906.9+1380.7+1889.7+1384.5+1891.9+1381.3C1869.3+1576.3+1328.2+1460.7+1332.9+1291.6" fill="#fff8dd" stroke-linecap="round" opacity="1" stroke-linejoin="round"/>
</g>
<g id="teethUpper2" vectornator:layerName="teethUpper2">
<path stroke="#606060" fill-rule="evenodd" stroke-width="5.2311" d="M1927.8+1309.1C1899.7+1306.1+1856.3+1338.6+1826.4+1339.7C1840.1+1320.9+1865.2+1284+1826.1+1301C1780.8+1312.7+1764.3+1350.4+1785.1+1283.4C1790.5+1259.6+1741.7+1304.6+1718.9+1318.8C1720.1+1293.7+1723.1+1270.9+1725.4+1258.7C1717.4+1264.2+1683.1+1299+1655.6+1311.4C1657.4+1299.7+1696.7+1237.3+1664.6+1257.3C1596.1+1308.2+1608.9+1316.5+1621.4+1237.9C1594.9+1245.8+1585.3+1285.8+1555.7+1292C1559.8+1269.1+1570.3+1244.7+1564.2+1219.9C1563.3+1197.3+1516.4+1276.3+1502.5+1280.7C1504.3+1268.9+1522.5+1211+1522.5+1186.9C1513.8+1201.8+1469.5+1239.4+1456.8+1251.1C1452.6+1236.3+1459.6+1208.4+1454.7+1184.4C1444+1195.9+1464.2+1172.3+1394.6+1233.5C1391.6+1138.6+1427.4+1154.6+1328.2+1225C1357.3+1100.6+1368.9+1104.1+1492.2+1115.8C1587.6+1137.5+1698.1+1125.9+1776.6+1185.4" fill="#fff8dd" stroke-linecap="round" opacity="1" stroke-linejoin="round"/>
</g>
<g id="finRight" vectornator:layerName="finRight">
<path stroke="#606060" fill-rule="evenodd" stroke-width="5.2311" d="M1250.9+1720.8C1512.7+1811.7+1736.1+2065.6+1736.1+2065.6C1736.1+2065.6+1758.5+2086.8+1778.3+2071.5C1797.3+2058.1+1805.3+2043+1803+2031.7C1801.1+1983.5+1724.1+1658.8+1520.5+1494.7C1382.4+1417+1196.9+1578.2+1250.9+1720.8Z" fill="#f7ae25" stroke-linecap="round" opacity="1" stroke-linejoin="round"/>
</g>
<g id="finTop" vectornator:layerName="finTop">
<path stroke="#606060" fill-rule="evenodd" stroke-width="5.2311" d="M719.9+1036.6C795.7+1036.6+1204.6+848.6+1117.9+732.9C1031.1+617.2+601.9+388.7+372.9+574C514.3+623.6+740.2+819.7+719.9+1036.6Z" fill="#f7ae25" stroke-linecap="round" opacity="1" stroke-linejoin="round"/>
</g>
<g id="body" vectornator:layerName="body">
<path stroke="#666666" fill-rule="evenodd" stroke-width="5.2311" d="M2071.8+1291.8C2018.3+1312.4+1992.3+1326+1948.3+1315.3C1927.4+1309.5+1654.3+1235.2+1555.6+1209.4C1523.6+1201.1+1487.1+1165.8+1432.2+1174C1332.3+1154.3+1379.8+1153.7+1282.7+1066.6C1327+1214+1351.7+1280.1+1410.7+1321.1C1455.6+1350.8+1670.8+1434.6+1773.2+1443.5C1900.5+1449.3+1909.7+1374.3+1841.3+1317.7C1757.1+1253.7+2030.1+1389.6+1800.7+1499.4C1669.4+1549+1546.4+1528.4+1539.1+1535.9C1408+1585.5+1197.9+1911.7+1197.9+1911.7C1134.8+2105.4+1080.3+2139+1180.6+2500.1C1128.5+2500.1+856.9+2509+656.5+2499.6C656.5+2499.6+215.5+1658.1+586.8+1086.3C611+1047+704.9+909.2+810.8+839.6C1069.2+642.9+1406.1+597.5+1697.4+702.3C1856.9+757.7+1934.8+853.4+2026.7+923.8C2106.4+987.9+2180.9+1052.7+2224.4+1107.1C2275+1166.7+2219.4+1197.7+2071.8+1291.8Z" fill="#f7ae25" stroke-linecap="round" opacity="1" stroke-linejoin="round"/>
</g>
<g id="bodyUnder" vectornator:layerName="bodyUnder">
<path stroke="#666666" fill-rule="evenodd" stroke-width="5.2311" d="M2075.5+1291.8C2022.1+1312.4+2007.7+1328.6+1952+1315.3C1931.1+1309.5+1652.8+1249.4+1554.1+1223.5C1501.9+1209.1+1501.9+1196.9+1435.9+1173.9C1336+1154.2+1385.1+1162.7+1287.9+1075.5C1332.3+1222.9+1351.7+1280+1410.7+1320.9C1455.6+1350.6+1674.5+1434.4+1776.8+1443.3C1904.1+1449.1+1913.3+1374.1+1844.9+1317.5C1760.7+1253.5+2033.8+1389.4+1804.3+1499.2C1673+1548.8+1550+1528.2+1542.7+1535.7C1411.6+1585.3+1266.7+1803.7+1213.2+1918C1180.6+1987.6+1080.3+2138.8+1180.6+2499.9C1077+2499.9+890+2499.4+890+2499.4C890+2499.4+795.2+2262.5+814.3+2017.5C854.8+1741.8+1091.5+1506.3+1142.5+1464.9C1199.9+1405.1+1275.9+1380.8+1250+1278.3C1175.7+984.2+1158.6+927.9+1408.3+1044.2C1479.9+1069+1708.8+1003.2+1842.3+1022.1C2013.9+1046.4+2140.7+1119.9+2144.8+1025.7C2175.7+1049.2+2192.7+1065.7+2228+1107C2278.7+1166.7+2223+1197.7+2075.5+1291.8Z" fill="#fdebd0" stroke-linecap="round" opacity="1" stroke-linejoin="round"/>
</g>
<g id="teethlower2" vectornator:layerName="teethlower2">
<path stroke="#606060" fill-rule="evenodd" stroke-width="6.0093" d="M1829.6+1297.9C1847.4+1295.4+1848.6+1292.6+1857.6+1294.1C1857.1+1302.1+1857.6+1339.7+1859.3+1346.9C1869.2+1341+1881.8+1322+1887+1312.1C1889.8+1323.3+1857.7+1396.4+1882.1+1372.6C1916.4+1314.6+1892.2+1404.3+1879.7+1405.2C1879.7+1405.2+1874.3+1389.2+1872.3+1385C1866.5+1373.4+1827.4+1314.8+1818+1305.9" fill="#fff8dd" stroke-linecap="round" opacity="1" stroke-linejoin="round"/>
</g>
<g id="gills" vectornator:layerName="gills">
<path stroke="#606060" fill-rule="evenodd" stroke-width="5.2311" d="M984.7+1134.5C983.5+1130.2+993.5+1177+997.5+1187.9C1025.7+1266+1048.5+1298.5+1114.7+1350.3C1070+1310+1047.5+1235.7+1031.1+1174.4C1020.5+1134.5+1023.5+1079.5+1048.4+1159.5C1073.6+1222.9+1123.1+1274.5+1169.5+1322.5C1129.3+1282.8+1105.5+1230.6+1096.4+1175.3C1086.8+1127.6+1081.5+1068.3+1107.1+1025.9C1111.3+1109.3+1133.4+1194.5+1196.1+1255.3C1201.5+1261.4+1208.1+1269.6+1213.2+1274.7C1136.3+1183.6+1141.8+1052.6+1120.7+946.6C1057+1014.2+1044.8+1093.3+1079.5+1177.8C1067+1147.5+1034.1+1078+1035+1005.6C1031.3+962+1012.5+1041.4+1011.1+1056.3C1007.5+1092.3+1004.4+1115.4+1009.6+1150.9C1012.5+1170.6+1014.3+1191.8+1016.9+1198.4C997+1149+997.4+1114.4+988.4+1072.5C987.9+1068.2+988.5+1063.5+987.9+1059.3C981.9+1090.7+977.6+1103.8+984.7+1134.5" fill="#babb27" stroke-linecap="round" opacity="1" stroke-linejoin="round"/>
</g>
<g id="tail" vectornator:layerName="tail">
<path stroke="#606060" fill-rule="evenodd" stroke-width="5.2311" d="M1706.3+2501.3C1706.3+2501.3+1744.3+2534.5+1782.6+2361.7C1783.4+2358+1783.3+2354+1782.5+2350.2C1751.5+2208.5+1847.2+2098.4+1865.4+2093.9C1883.6+2089.4+1781.9+2231.3+1841.5+2343.9C1863.4+2375.8+1899.1+2398.8+1929.5+2419.8C1917.6+2427.9+1874.2+2425.3+1851.6+2423.5C1843.4+2422.8+1836.5+2428.5+1834.7+2437L1816.3+2501.2C1818.9+2504.4+1706.3+2501.3+1706.3+2501.3Z" fill="#f7ae25" stroke-linecap="round" opacity="1" stroke-linejoin="round"/>
</g>
<g id="finLeft" vectornator:layerName="finLeft">
<path stroke="#606060" fill-rule="evenodd" stroke-width="5.2311" d="M258.2+2148.5C245.8+2144.7+262.1+2082.2+266+2062.8C300.3+1893+365+1626.8+621.1+1464C906.4+1282.6+886.9+1576.1+1013.8+1615.3C677.5+1751.2+429.7+2019.6+321.1+2109.7C297+2129.8+268.8+2155.4+258.2+2148.5Z" fill="#f7ae25" stroke-linecap="round" opacity="1" stroke-linejoin="round"/>
</g>
<g id="Nostrils " vectornator:layerName="Nostrils ">
<path stroke="#606060" stroke-width="5.2311" d="M1859.06+1080.62C1858.57+1080.51+1863.49+1083.03+1871.09+1086.94C1870.94+1086.57+1870.87+1086.18+1870.69+1085.81C1863.21+1082.44+1859.49+1080.73+1859.06+1080.62ZM1871.09+1086.94C1876.4+1099.61+1867.52+1114.54+1933+1119.69C1904.18+1104+1883.33+1093.23+1871.09+1086.94ZM2131.06+1110.44C2128.62+1110.41+2126.38+1110.64+2124.5+1111.19C2124.5+1111.19+2135.7+1119.8+2161+1129C2175.53+1123.49+2148.18+1110.62+2131.06+1110.44Z" fill="#cea029" stroke-linecap="round" opacity="1" stroke-linejoin="round"/>
</g>
<g id="Eyes" vectornator:layerName="Eyes">
<path stroke="#606060" stroke-width="4.8138" d="M1399.84+854C1397.9+854.068+1396.07+854.263+1394.31+854.594C1370.31+861.094+1512.29+878.294+1503.09+918.094C1485.39+898.794+1443.89+893.894+1419.19+890.594C1313.29+883.494+1371.81+879.112+1410.41+910.812C1420.61+929.712+1442.4+955.012+1507.5+942.312C1528.3+939.912+1547.9+965.8+1558.5+972.5C1619.2+965.5+1645.61+966.213+1562.81+961.312C1547.11+957.412+1521.19+933.313+1511.09+923.312C1511.99+913.712+1504.71+896.412+1500.91+888.812C1477.84+880.094+1429.01+852.985+1399.84+854ZM1903+870.312C1891+878.712+1875.11+893.3+1880.91+904C1893.61+927.6+1915.39+945.688+1939.09+960.687C1980.49+986.888+1997.09+985.187+1997.09+985.187C1997.09+985.187+1951.21+962.288+1947.31+952.687C1943.61+943.387+1945.99+922+1937.19+916.5C1923.49+907.9+1900.81+910.106+1889.91+904.406C1893.01+894.606+1890.5+890.513+1903+870.312Z" fill="#cecf30" stroke-linecap="round" opacity="1" stroke-linejoin="round"/>
</g>
<g id="Pupils" vectornator:layerName="Pupils">
<path stroke="#606060" stroke-width="5.2311" d="M1487.09+904.906C1478.99+904.906+1472.31+911.488+1472.31+919.687C1472.31+927.887+1478.89+934.5+1487.09+934.5C1495.29+934.5+1501.91+927.888+1501.91+919.687C1501.91+911.488+1495.29+904.906+1487.09+904.906ZM1931.81+918.312C1923.61+918.313+1923.31+925.806+1922.91+931.906C1922.31+940.106+1929.49+946.687+1937.69+946.687C1945.99+946.688+1942.59+934.406+1942.59+934.406C1942.59+934.406+1939.91+918.212+1931.81+918.312Z" fill="#faff00" stroke-linecap="round" opacity="1" stroke-linejoin="round"/>
</g>
<g id="teethUpper3" vectornator:layerName="teethUpper3">
<path stroke="#606060" fill-rule="evenodd" stroke-width="5.2311" d="M1943.2+1313.4C1916.3+1309.6+1857.9+1331.1+1826.3+1339.7C1840+1320.9+1865.1+1284+1826+1301C1780.7+1312.7+1755.5+1368.2+1783.4+1278.4C1812.3+1285.1+1891.9+1301.2+1943.2+1313.7" fill="#fff8dd" stroke-linecap="round" opacity="1" stroke-linejoin="round"/>
</g>
<g id="shadow" vectornator:layerName="shadow">
<path d="M1817.8+1464.9C1757.1+1524.4+1615+1520.5+1529.1+1516.7C1417.4+1506.4+1303.7+1500.9+1213.1+1442.6C1228.5+1469.4+1328.1+1536.1+1398.8+1546C1422.1+1556.4+1469.8+1540.3+1453.1+1551.9C1369+1610.3+1278.5+1728.1+1263.9+1752.3C1155.2+1932.9+1036.3+2105.8+1143.5+2499.9C1061.7+2499.9+889+2503.7+782.8+2503.7C723.3+2382.5+692.9+2273.2+694.3+2069C695+1959.6+733.8+1791.1+785.2+1735.2C800.6+1718.5+965.7+1637.4+980.9+1628.4C1013.8+1609+980.9+1631.9+1013.8+1614.9C981+1609.7+929+1544+893+1482.8C841+1394.4+1092+1141.8+1203.4+1075.5C1215.2+1194.4+1247.8+1326.6+1370.6+1388.7C1555.6+1482.3+1703.4+1474.5+1817.8+1464.9Z" fill-rule="evenodd" fill="#000000" opacity="0.1351"/>
</g>
<g id="Fancy" vectornator:layerName="Fancy" visibility="hidden">
<path stroke="#606060" stroke-width="4" d="M1345.53+546.7C1350.05+523.512+1444.32+98.4491+1447.57+83.7918C1614.06+83.4055+1818+142.189+1899.07+257.086C1877.42+327.964+1771.72+563.007+1737.39+643.344C1803.38+628.446+1831.32+647.396+1849.51+657.613C1876.86+675.376+1858.86+747.559+1829.28+765.865C1783.2+739.161+1667.51+684.843+1623.5+683.106C1571.07+681.038+1571.03+692.887+1514.42+701.578C1427.79+714.875+1359.11+695.253+1233.79+658.448C1211.42+651.879+1198.43+640.111+1202.19+590.544C1217.64+459.742+1340.39+528.847+1345.53+546.7Z" fill="#ffffff" stroke-linecap="round" opacity="1" stroke-linejoin="round"/>
<path stroke="#606060" stroke-width="4" d="M1116.9+1516.3C955.353+1824.67+884.486+2093.8+916.953+2258.38C885.795+2223.62+527.317+1928.98+523.209+1931.03C519.952+1932.66+495.84+1954.03+476.564+1969.64C481.335+1991.74+536.396+2210.59+549.22+2240.18C503.358+2311.68+403.995+2344.6+284.812+2190.86C406.696+2214.33+478.728+2211.43+471.245+1973.93C479.196+1964.48+517.763+1936.3+523.128+1931C644.442+1811.21+849.328+1675.9+1013.8+1615.36C960.687+1605.62+915.778+1508.76+899.281+1488.5C876.993+1461.13+847.915+1394.13+751.19+1407.5C724.463+1411.05+572.176+1455.46+438.093+1634.08C413.175+1327.82+585.406+1057.66+686.045+949.458C751.401+1148.45+1076.51+1350.3+1118.25+1392.43C1159.98+1434.56+1277.76+1444.23+1278.47+1444.94C1279.13+1445.6+1195.65+1647.25+1193.65+1648.25C1190.28+1649.93+1184.6+1575.71+1157.29+1535.15C1146.31+1522.74+1135.24+1522.51+1116.9+1516.3Z" fill="#ffffff" stroke-linecap="round" opacity="1" stroke-linejoin="round"/>
<path stroke="#606060" stroke-width="4" d="M1504.11+1552.29C1452.59+1581.09+1198.52+1667.59+1077.03+2205.91C1076.07+2210.16+1177.75+2282.49+1179.63+2281.86C1163+1917.07+1278.47+1795.85+1408.83+1674.22C1412.86+1676.23+1426.51+1689.75+1410.17+1750.17C1415.39+1748.87+1522.03+1616.99+1523.43+1615.58C1508.3+1591.33+1505.24+1551.65+1504.11+1552.29Z" fill="#ffffff" stroke-linecap="round" opacity="1" stroke-linejoin="round"/>
<path stroke="#606060" stroke-width="4" d="M1177.7+1670.76C1186.89+1671.45+1179.98+1665.34+1177.09+1666.5C1173.7+1667.86+1169.2+1674.68+1167.36+1677.44C1158.09+1691.35+1151.38+1705.52+1149.12+1722.44C1144.94+1753.8+1159.31+1791.54+1194.12+1795.4C1197.08+1795.73+1204.64+1796.22+1207.49+1795.4C1211.09+1794.38+1214.41+1790.36+1217.22+1788.11C1230.06+1777.83+1238.27+1762.01+1240.33+1745.55C1241.93+1732.75+1237.9+1720.03+1235.46+1707.85C1233.53+1698.2+1222.09+1691.34+1222.09+1679.88C1222.09+1677.97+1221.3+1673.91+1223.3+1672.58C1227.77+1669.6+1240.94+1672.14+1246.41+1671.36C1258.17+1669.68+1270.09+1667.54+1281.67+1664.07C1290.52+1661.41+1298.46+1656.96+1307.21+1654.34C1322.93+1649.62+1338.99+1645.66+1354.64+1640.96C1360.54+1639.19+1366.07+1636.15+1371.66+1633.66C1389.94+1625.54+1408.77+1617.62+1427.6+1610.56C1440.68+1605.66+1452.93+1599.47+1464.09+1591.1C1468.11+1588.08+1472.6+1588.67+1473.82+1583.81C1474.4+1581.48+1480.37+1576.72+1479.9+1575.29C1478.53+1571.2+1463.04+1577.03+1461.66+1577.72C1450.51+1583.3+1439.28+1585.64+1427.6+1589.89C1419.87+1592.7+1412.62+1596.37+1404.5+1598.4C1385.96+1603.03+1367.77+1608.68+1349.77+1615.42C1343.05+1617.95+1335.96+1619.36+1329.1+1621.5C1323.71+1623.19+1318.77+1626.22+1313.29+1627.58C1306.53+1629.27+1299.32+1629.22+1292.62+1631.23C1270.35+1637.91+1248.54+1646.13+1225.73+1650.69C1219.36+1651.97+1214.64+1656.5+1208.71+1657.99C1201.95+1659.68+1184.86+1657.12+1179.52+1653.12C1176.42+1650.79+1174.58+1647.55+1172.23+1644.61C1170.19+1642.06+1166.6+1640.1+1164.93+1637.31C1156.45+1623.18+1145.82+1608.95+1139.39+1593.53C1132.03+1575.87+1126.53+1557.09+1121.15+1538.81C1114.45+1516.04+1103.73+1494.62+1096.83+1471.93C1091.41+1454.13+1086.62+1436.16+1081.02+1418.42C1070.39+1384.75+1059.09+1351.41+1049.4+1317.48C1046.98+1309+1042.81+1300.58+1040.89+1291.94C1038.42+1280.84+1034.86+1269.08+1032.38+1257.89C1031.13+1252.3+1030.99+1246.5+1029.94+1240.87C1026.77+1223.76+1021.96+1206.97+1019+1189.79C1015.94+1172.03+1013.43+1153.92+1010.49+1136.28C1004.15+1098.29+997.383+1060.73+995.893+1021.97C995.301+1006.59+996.561+991.136+995.893+975.761C995.292+961.947+994.046+948.286+994.677+934.414C995.321+920.243+998.853+907.03+1000.76+893.066C1002.43+880.822+1002.4+868.619+1004.41+856.584C1006.9+841.637+1005.58+826.452+1008.05+811.588C1011.94+788.286+1018.11+765.549+1021.43+742.271C1022.56+734.393+1023.86+727.126+1023.86+719.166C1023.86+715.923+1023.86+709.437+1023.86+709.437C1023.86+709.437+1024.23+711.144+1023.86+711.869C1022.84+713.92+1020.43+714.943+1019+716.734C1014.78+722.01+1010.73+726.926+1006.84+732.543C995.491+748.933+982.898+764.683+978.868+784.835C974.158+808.383+967.488+831.744+963.058+855.368C961.786+862.153+962.273+869.152+961.842+876.041C960.627+895.488+958.125+914.917+956.978+934.414C956.343+945.201+954.554+956.379+955.762+967.248C958.035+987.705+958.195+1008.61+959.41+1029.27C960.581+1049.17+962.95+1068.99+964.275+1088.86C965.614+1108.95+969.693+1130.26+974.003+1149.66C976.215+1159.61+975.979+1170.03+977.651+1180.06C981.523+1203.29+985.93+1226.44+991.028+1249.38C996.562+1274.28+999.183+1300.28+1006.84+1324.78C1011.56+1339.89+1016.62+1355.32+1022.65+1369.77C1025.71+1377.12+1030.05+1385.33+1032.38+1392.88C1033.22+1395.62+1032.8+1398.64+1033.59+1401.39C1036.65+1412.09+1040.52+1423.77+1044.54+1434.23C1052.97+1456.15+1061.82+1477.88+1070.07+1499.9C1072.81+1507.18+1077.83+1513.55+1081.02+1520.57C1085.33+1530.04+1088.52+1539.73+1094.4+1548.54C1099.35+1555.98+1106.24+1562.49+1110.21+1570.43C1114.23+1578.49+1117.34+1587.21+1122.37+1594.75C1127.17+1601.95+1133.39+1608.24+1138.18+1615.42C1141.15+1619.88+1142.81+1625.36+1145.47+1630.02C1150.01+1637.96+1155.68+1644.9+1161.28+1651.91C1167.27+1659.39+1167.53+1669.98+1177.7+1670.76Z" fill="#ffffff" stroke-linecap="round" opacity="0" stroke-linejoin="round"/>
<path stroke="#606060" stroke-width="4" d="M1829.93+1399.8C1821.04+1388.92+1821.22+1349.67+1840.71+1349.02C1854.41+1349.64+2206.93+1373.54+2228.47+1388.41C2240.12+1396.46+2231.55+1442.52+2219.24+1446.88C2197.71+1454.5+1887.44+1410.46+1878.43+1403.59C1874.53+1392.29+1871.84+1384.09+1871.84+1384.09C1871.84+1384.09+1863.09+1403.83+1859.8+1404.3C1857.75+1404.59+1843.9+1401.19+1840.15+1400.94C1839.12+1397.83+1845.19+1381.57+1845.22+1380.86C1845.42+1375.83+1840.21+1388.47+1829.93+1399.8Z" fill="#ffffff" stroke-linecap="round" opacity="1" stroke-linejoin="round"/>
<path stroke="#606060" stroke-width="4" d="M1519.38+1306.94C1515.88+1307.26+1511.86+1313.96+1509.44+1316.59C1508.59+1317.51+1507.57+1318.29+1506.78+1319.25C1502+1325.03+1497.26+1330.84+1492.72+1336.81C1489.84+1340.6+1487.12+1344.5+1484.31+1348.34C1485.06+1343.87+1485.59+1339.56+1485.69+1336.38C1485.71+1335.59+1487.38+1334.13+1486.59+1334.19C1451.68+1336.7+1416.99+1342.8+1382+1343.84C1377.15+1343.99+1373.08+1340.04+1368.84+1337.69C1367.76+1337.08+1366.91+1336.07+1366.19+1335.06C1364.24+1332.34+1362.76+1327.5+1360.94+1329.78C1358.48+1332.85+1357.41+1336.8+1355.66+1340.31C1353.49+1344.65+1351.06+1348.91+1349.5+1353.5C1346.66+1361.84+1344.67+1370.47+1342.47+1379C1337.29+1399.12+1329.91+1421.22+1329.38+1442.47C1335.48+1449.48+1342.31+1456.16+1350.38+1460.72C1358.25+1465.17+1366.57+1468.77+1374.97+1472.12C1382.63+1475.19+1397+1475.47+1405.81+1480.03C1406.53+1476.36+1409.08+1473.89+1412.78+1471.25C1415.03+1469.64+1417.28+1467.98+1419.81+1466.88C1422.87+1465.54+1426.8+1466.22+1429.47+1464.22C1431.13+1462.98+1431.9+1460.55+1433.84+1459.84C1441.7+1456.99+1448.25+1459.3+1450.56+1449.28C1451.08+1447.03+1451.04+1446.29+1451.12+1445.19C1451.55+1469.18+1451.96+1493.26+1451.44+1516.94C1450.92+1540.47+1446.49+1562.49+1442.66+1585.5C1442.17+1588.43+1442.25+1594.58+1440.88+1597.78C1440.6+1598.42+1437.71+1601.85+1438.25+1603.06C1441.56+1610.5+1450.5+1613.99+1457.59+1618C1465.92+1622.71+1474.3+1627.36+1483.06+1631.19C1490.45+1634.41+1498.09+1637.14+1505.91+1639.09C1517.47+1641.98+1532.57+1642.39+1544.56+1641.72C1548.26+1641.51+1553.33+1640.4+1553.38+1639.97C1554.14+1633.05+1549.29+1626.61+1548.09+1619.75C1546.53+1610.73+1545.27+1601.66+1544.56+1592.53C1542.47+1565.37+1541.31+1537.95+1543.69+1510.81C1545.14+1494.16+1548.9+1477.7+1553.38+1461.59C1556.46+1450.48+1561.67+1440.7+1563.03+1429.09C1563.55+1424.66+1563+1421.09+1561.28+1417.66C1561.13+1417.36+1557.89+1413.11+1558.62+1412.38C1562.43+1408.57+1568.56+1408.22+1573.56+1406.22C1581.41+1403.08+1588.39+1400.15+1595.53+1395.69C1597.67+1394.35+1600.81+1392.58+1600.81+1389.53C1600.81+1382.63+1594.66+1377.37+1594.66+1370.22C1594.66+1367.57+1599.75+1357.54+1599.06+1356.16C1596.83+1351.7+1589.18+1356.99+1586.75+1357.91C1584.15+1358.88+1581.41+1359.47+1578.84+1360.53C1572.52+1363.13+1565.61+1367.51+1560.41+1371.97C1557.04+1374.86+1554.96+1379.73+1549.84+1380.75C1547.03+1381.31+1542.91+1379.55+1540.19+1379C1533.34+1377.63+1531.86+1364.52+1534.91+1359.66C1536.24+1357.52+1539.81+1355.97+1539.31+1353.5C1538.37+1348.76+1528.7+1350.46+1526.12+1351.75C1521.06+1354.28+1514.59+1367.34+1509.44+1357.03C1504.31+1346.78+1518.03+1345.45+1519.97+1337.69C1520.89+1334+1515.28+1330.09+1513.81+1327.16C1511.61+1322.76+1513.1+1318.77+1515.59+1314.84C1516.6+1313.26+1517.64+1311.62+1519.09+1310.44C1520.06+1309.65+1523.21+1310.21+1522.59+1309.12C1521.62+1307.42+1520.54+1306.83+1519.38+1306.94ZM1405.81+1480.03C1405.56+1481.33+1405.51+1482.76+1405.75+1484.44C1406.2+1487.59+1413.69+1488.49+1411.88+1485.31C1410.57+1483.03+1408.41+1481.37+1405.81+1480.03ZM1329.38+1442.47C1329.06+1442.1+1328.72+1441.74+1328.41+1441.38C1327.62+1440.46+1329.28+1446.11+1329.28+1444.91C1329.28+1444.1+1329.35+1443.28+1329.38+1442.47ZM1461.75+1381.38C1460.39+1383.53+1458.92+1385.61+1457.59+1387.78C1454.73+1392.48+1450.56+1397.22+1450.56+1402.72C1450.56+1403.76+1450.59+1404.86+1450.59+1405.91C1448.11+1400.98+1444.79+1396.28+1445.28+1390.41C1446.28+1378.44+1455.56+1385.29+1460.22+1382.5C1460.76+1382.17+1461.23+1381.74+1461.75+1381.38Z" fill="#ffffff" stroke-linecap="round" opacity="0" stroke-linejoin="round"/>
<path stroke="#606060" stroke-width="4" d="M135.007+1431.3C198.625+1456.46+210.341+1472+211.601+1473.09C213.48+1474.71+484.405+1568.17+489.143+1572.26L516.383+1544.35C511.193+1543.44+237.486+1450.11+223.663+1444.41C216.208+1441.34+202.535+1449.34+135.007+1431.3ZM878.774+1679.59L835.916+1703C843.479+1706.78+1326.91+1879.48+1326.51+1884.5C1322.37+1936.77+1400.37+1948.44+1419.78+1897.46C1439.57+1845.48+1383.68+1803.69+1340.89+1844.91C1339.76+1846+877.664+1679.03+878.774+1679.59Z" fill="#ffffff" stroke-linecap="round" opacity="1" stroke-linejoin="round"/>
<path stroke="#606060" stroke-width="5.2311" d="M1735.58+1888.37C1734.29+1888.61+1627.13+2078.36+1628.12+2080.83C1628.72+2082.32+1837.58+2096.6+1844.78+2093.3C1847.89+2091.88+1979.21+1886.97+1978.65+1886.23C1976.83+1883.83+1736.5+1888.2+1735.58+1888.37Z" fill="#ffffff" stroke-linecap="round" opacity="1" stroke-linejoin="round"/>
<path stroke="#606060" stroke-width="4.1604" d="M1957.68+803.749L1957.68+803.749C1998.86+803.749+2032.23+837.802+2032.23+879.809L2032.23+880.022C2032.23+922.028+1998.86+956.082+1957.68+956.082L1957.68+956.082C1916.51+956.082+1883.13+922.028+1883.13+880.022L1883.13+879.809C1883.13+837.802+1916.51+803.749+1957.68+803.749Z" fill="#ffffff" stroke-linecap="round" opacity="1" stroke-linejoin="round"/>
</g>
<g id="SciFi" vectornator:layerName="SciFi" visibility="hidden">
<path stroke="#606060" stroke-width="5.2311" d="M914.185+757.169C807.423+1112.77+1146.54+1557.95+1245.85+1697.68C1241.01+1701.08+1211.05+1695.35+1206.75+1699.65C1195.06+1711.34+1186.8+1777.46+1188.59+1790C1188.95+1792.52+1226.8+1800.49+1236.36+1800.49C1251.88+1800.49+1251.43+1706.43+1253.16+1701.22C1253.98+1698.78+1250.82+1754.23+1248.97+1761.65C1251.91+1775.88+1250.69+1783.6+1259.68+1787.99C1266.32+1791.23+1294.22+1784.17+1300+1771.4C1305.21+1759.9+1282.29+1710.88+1279.73+1704.07C1276.42+1695.25+1243.17+1700.69+1254.49+1695.79C1262.1+1692.49+1379.99+1662.68+1428.83+1611.18C1438.19+1601.31+1448.1+1594.57+1453.42+1588.59C1401.92+1634.77+1258.87+1683.96+1253.33+1679.52C1142.18+1517.12+844.013+1079.3+937.466+757.497C941.52+752.661+949.991+752.462+948.394+749.915C942.986+741.292+916.802+748.364+914.185+757.169Z" fill="#ffffff" stroke-linecap="round" opacity="1" stroke-linejoin="round"/>
<path stroke="#606060" stroke-width="5.2311" d="M1104.14+685.024C1106.85+686.005+1630.56+707.859+1632.77+707.692C1675.13+692.84+1693.58+663.045+1698.2+628.516C1722.42+626.69+1969.01+642.224+1979.64+643.469C1974.18+671.997+1984.12+727.617+1997.08+751.915C2004.7+739.864+2020.39+663.071+2018.3+644.477C2045.2+646.616+2072.85+648.335+2072.85+648.335C2072.85+648.335+2091.18+656.141+2091.27+655.864C2092.16+653.032+2093.31+623.906+2092.18+622.938C2091.61+622.446+2085.25+628.773+2074.67+629.33C2047.92+630.737+2020.54+630.256+2020.82+627.271C2022.55+608.736+2029.85+573.222+2027.16+516.202C2019.89+515.629+1979.12+575.018+1981.37+624.205C1979.99+625.81+1737.1+613.062+1705.23+606.803C1702.05+590.193+1716.58+565.958+1680.21+506.361C1522.21+496.495+1132.71+483.267+1126.42+486.866C1040.59+535.979+1053.41+666.683+1104.14+685.024Z" fill="#ffffff" stroke-linecap="round" opacity="1" stroke-linejoin="round"/>
<path stroke="#606060" stroke-width="5.2311" d="M1502.41+1595.11C1515.57+1604.2+1683.92+1725.65+1693.97+1723.52C1711.49+1719.82+1724.03+1681.31+1718.82+1647.29C1715.05+1622.75+1585.32+1536.27+1580.07+1533.1C1568.72+1532.45+1556.12+1529.84+1546.7+1533.56C1540.61+1535.97+1482.28+1568.15+1476.41+1571.26C1467.82+1575.8+1491.77+1587.75+1502.41+1595.11Z" fill="#ffffff" stroke-linecap="round" opacity="1" stroke-linejoin="round"/>
<path stroke="#606060" stroke-width="5.2311" d="M437.698+1629.2C527.366+1575.97+642.979+1608.25+742.361+1708.92C769.272+1736.19+917.714+1605.02+984.86+1581.42C1018.43+1517+988.064+1458+903.471+1395.26C805.197+1322.36+797.29+1348.8+704.16+1372.15C591.507+1400.4+517.36+1483.08+431.158+1568.83C398.399+1596.75+422.075+1620.02+437.832+1628.89" fill="#ffffff" stroke-linecap="round" opacity="1" stroke-linejoin="round"/>
<path stroke="#606060" stroke-width="5.2311" d="M1224.1+1518.02C1246.14+1652.28+1116.76+1728.89+1102.78+1728.89C1093.35+1728.89+1040.75+1658.62+1008.99+1614.94C994.083+1608.2+984.6+1596.96+973.185+1587.66C978.278+1584.67+984.888+1581.36+984.634+1580.98C996.835+1541.89+989.39+1518.11+984.35+1497.8C965.608+1434.36+816.772+1321.53+744.6+1362.04C726.337+1362.04+629.985+1204.22+627.614+1034.19C626.998+990.053+705.67+858.23+796.594+807.438C810.025+799.763+839.483+785.461+845.7+810.326C826.841+1017.33+867.279+1219.25+1224.1+1518.02Z" fill="#ffffff" stroke-linecap="round" opacity="1" stroke-linejoin="round"/>
<path stroke="#606060" stroke-width="5.2311" d="M430.63+1570.06C584.554+1408.82+628.522+1396.4+740.353+1360.08C680.614+1293.17+628.522+1160.79+629.478+1017.89C521.627+1188.78+444.527+1261.15+430.63+1570.06Z" fill="#ffffff" stroke-linecap="round" opacity="1" stroke-linejoin="round"/>
<path stroke="#606060" stroke-width="5.2311" d="M1489.73+1564.69C1507.38+1576.98+1520.39+1585.81+1527.32+1606.3C1505.51+1681.97+1415.93+1798.21+1300.76+1770.59C1367.96+1676.37+1432.43+1594.77+1489.73+1564.69Z" fill="#ffffff" stroke-linecap="round" opacity="1" stroke-linejoin="round"/>
<path stroke="#606060" stroke-width="5.2311" d="M1903.43+1417.84C1900.77+1426.18+1899.88+1444.25+1896.42+1446.55C1895.67+1447.06+1889.3+1447.15+1879.96+1446.69C1873.8+1453.03+1874.29+1453.79+1859.79+1464.54C1835.22+1497.8+1846.48+1549.06+1858.66+1564.62C1860.32+1566.81+1872.53+1567.83+1873.65+1570.08C1874.14+1571.04+1876.55+1582.01+1876.55+1582.01C1876.55+1582.01+1898.05+1587.7+1898.71+1585.41C1899.41+1582.97+1901.63+1575.16+1903.14+1573.65C1904.11+1572.68+1914.7+1575.25+1918.99+1573.14C1937.05+1564.28+1972.67+1502.93+1943.87+1460.49C1940.19+1455.07+1926.06+1455.15+1920.69+1451.15C1923.83+1451.45+1940.19+1450.07+1940.19+1450.07C1940.19+1450.07+1949.51+1454.12+1957.1+1452.91C1964.63+1453.16+1968.46+1498.55+1950.61+1561.4C1949.49+1565.32+1950.36+1564.93+1956.67+1564.95C1962.98+1564.98+1992.79+1442.22+1959.39+1442.58C1952.42+1441.58+1943.22+1440.43+1943.63+1438.36C1944.46+1434.13+1944.65+1429.35+1946.03+1424.91C1935.39+1421.09+1908.96+1416.91+1908.96+1416.91C1908.96+1416.91+1897.23+1369.18+1886.08+1362.97C1882.23+1372.73+1898.32+1400.27+1903.43+1417.84Z" fill="#ffffff" stroke-linecap="round" opacity="1" stroke-linejoin="round"/>
<path stroke="#606060" stroke-width="5.2311" d="M510.976+721.925C506.315+717.653+495.987+715.246+497.075+709.018C502.518+677.876+518.691+649.594+528.848+619.657C537.027+595.552+546.522+568.82+552.678+544.196C558.296+521.724+563.159+498.851+570.55+476.679C575.367+462.228+580.578+447.051+586.437+432.992C588.144+428.893+590.99+425.289+592.394+421.077C597.712+405.122+598.966+387.461+604.309+371.432C606.692+364.281+610.331+352.128+614.238+345.616C618.613+338.323+622.075+334.126+624.167+325.758C624.885+322.886+629.074+320.623+628.138+317.815C627.092+314.675+622.535+314.198+620.195+311.858C617.217+308.879+599.665+288.731+600.337+286.042C600.791+284.226+603.185+283.568+604.309+282.071C611.266+272.794+618.255+262.136+624.167+252.284C625.244+250.489+625.216+248.198+626.153+246.326C631.867+234.897+641.839+225.637+647.996+214.553C649.727+211.437+650.079+207.647+651.968+204.624C656.682+197.082+664.437+189.985+669.84+182.781C672.497+179.238+674.695+173.954+677.783+170.866C678.83+169.819+680.708+169.927+681.755+168.88C684.812+165.823+686.641+160.022+689.698+156.965C693.787+152.876+700.332+148.509+703.599+143.065C706.243+138.657+707.731+132.975+711.542+129.164C713.882+126.824+717.499+125.854+719.485+123.207C723.446+117.925+727.422+112.624+731.4+107.32C733.839+104.069+738.335+99.4385+739.343+95.4054C739.664+94.1211+738.609+92.5353+739.343+91.4338C740.164+90.2023+742.268+90.4946+743.315+89.448C744.361+88.4014+743.82+85.4764+745.301+85.4764C745.301+85.4764+745.301+92.6193+745.301+97.3912C745.301+102.025+745.301+106.658+745.301+111.292C745.301+121.883+745.301+132.474+745.301+143.065C745.301+165.725+745.795+188.258+743.315+210.582C741.425+227.589+745.018+245.183+743.315+262.213C742.653+268.832+741.329+275.418+741.329+282.071C741.329+286.231+742.888+319.423+739.343+321.787C736.431+323.728+723.92+318.515+721.471+317.815C714.522+315.83+683.741+312.786+683.741+325.758C683.741+327.238+685.727+328.25+685.727+329.73C685.727+335.385+681.702+340.301+679.769+345.616C676.618+354.281+672.552+362.62+669.84+371.432C666.927+380.899+664.646+391.596+661.897+401.219C659.293+410.331+658.543+419.907+655.94+429.02C651.947+442.993+645.281+457.128+640.053+470.722C631.935+491.829+625.613+513.61+616.224+534.267C603.026+563.301+588.854+592.921+580.479+623.628C573.616+648.793+566.234+675.948+554.664+699.089C552.886+702.644+542.476+726.345+542.749+726.89C543.514+728.421+556.923+725.589+558.635+724.904C565.948+721.979+594.252+718.819+600.337+724.904C606.103+730.67+610.808+738.573+616.224+744.762C626.049+755.991+635.284+766.997+642.039+780.507C649.76+795.949+651.13+814.297+657.925+830.152C665.67+848.221+678.977+862.726+683.741+881.782C685.308+888.05+681.933+892.258+679.769+897.669C675.994+907.106+673.33+916.708+667.854+925.47C666.1+928.277+663.377+930.453+661.897+933.413C658.272+940.664+657.02+950.506+651.968+957.243C650.845+958.741+648.834+959.54+647.996+961.214C646.247+964.713+646.645+971.306+646.011+975.115C644.884+981.871+640.464+985.01+638.067+991.001C635.345+997.806+634.2+1006.05+630.124+1012.85C625.788+1020.07+623.858+1021.1+618.209+1026.75C612.2+1032.75+608.718+1041.53+604.309+1048.59C597.51+1059.47+588.697+1069.14+582.465+1080.36C577.322+1089.62+575.288+1100.67+570.55+1110.15C567.24+1116.77+564.215+1123.54+560.621+1130.01C557.588+1135.47+552.885+1140.05+550.692+1145.89C549.734+1148.45+549.927+1151.4+548.706+1153.84C545.756+1159.74+539.915+1165.46+536.792+1171.71C531.933+1181.43+529.703+1191.84+524.877+1201.5C522.196+1206.86+517.307+1211.88+514.948+1217.38C512.276+1223.62+512.078+1231.06+508.99+1237.24C505.621+1243.98+503.163+1249.69+501.047+1257.1C500.051+1260.59+498.74+1269.66+497.075+1272.99C495.595+1275.95+492.347+1277.86+491.118+1280.93C481.002+1306.22+469.875+1330.76+461.331+1356.39C451.096+1387.09+449.958+1420.12+445.445+1451.71C444.367+1459.25+440.564+1466.01+439.487+1473.55C438.248+1482.22+434.767+1490.71+433.53+1499.37C432.228+1508.48+432.561+1518.02+431.544+1527.17C430.27+1538.63+427.463+1549.67+425.587+1560.93C424.734+1566.04+426.604+1571.73+425.587+1576.81C423.893+1585.28+421.084+1593.9+419.629+1602.63C418.074+1611.96+417.525+1621.09+415.658+1630.43C414.773+1634.85+416.75+1639.96+415.658+1644.33C414.636+1648.42+412.708+1652.16+411.686+1656.24C410.463+1661.14+411.983+1667.57+409.7+1672.13C407.245+1677.04+401.123+1681.58+397.785+1686.03C390.071+1696.32+384.222+1707.87+375.942+1717.8C367.46+1727.98+361.829+1740.74+354.098+1751.56C351.854+1754.7+350.87+1758.76+348.14+1761.49C343.259+1766.37+336.011+1771.12+332.254+1777.38C331.177+1779.17+331.345+1781.54+330.268+1783.34C327.557+1787.86+323.463+1791.55+322.325+1797.24C320.067+1808.53+317.217+1819.65+314.382+1831C313.517+1834.45+311.109+1837.43+310.41+1840.92C307.673+1854.61+307.202+1868.88+304.453+1882.63C302.205+1893.86+298.791+1904.98+296.51+1916.38C295.731+1920.28+297.071+1924.37+296.51+1928.3C294.823+1940.11+294.501+1952.26+292.538+1964.04C292.172+1966.24+291.184+1976.93+284.595+1971.99C282.686+1970.55+282.311+1967.72+280.623+1966.03C278.936+1964.34+276.353+1963.75+274.666+1962.06C258.995+1946.39+249.352+1925.54+230.978+1912.41C226.876+1909.48+221.587+1908.71+217.078+1906.46C209.823+1902.83+202.101+1898.83+195.234+1894.54C186.754+1889.24+180.202+1879.08+171.404+1874.68C168.963+1873.46+165.391+1874.63+163.461+1872.7C154.487+1863.72+155.438+1841.79+153.532+1831C152.471+1824.99+150.466+1819.16+149.56+1813.12C142.081+1763.26+143.603+1712.44+143.603+1662.2C143.603+1628.49+145.473+1594.55+147.575+1560.93C148.394+1547.81+147.005+1534.32+147.575+1521.21C148.958+1489.38+152.635+1457.6+155.518+1425.89C157.677+1402.14+158.742+1378.09+161.475+1354.4C166.549+1310.43+175.615+1267.18+181.333+1223.34C183.933+1203.41+187.276+1183.78+189.276+1163.77C190.6+1150.53+190.507+1137.07+193.248+1124.05C194.542+1117.91+197.843+1112.31+199.205+1106.18C200.506+1100.33+200.256+1094.23+201.191+1088.31C203.196+1075.61+207.022+1063.25+209.134+1050.58C212.204+1032.16+215.134+1014.7+221.049+996.959C229.776+970.779+241.151+945.339+250.836+919.513C254.142+910.696+258.508+900.741+260.765+891.711C261.086+890.427+260.031+888.841+260.765+887.74C261.586+886.508+263.613+886.717+264.737+885.754C268.291+882.708+271.356+879.135+274.666+875.825C284.931+865.56+295.648+855.75+306.439+846.038C335.613+819.781+365.724+796.992+397.785+774.549C423.673+756.428+448.796+736.447+481.189+732.847C490.827+731.776+501.25+732.847+510.976+732.847C514.604+732.847+522.267+733.358+520.905+730.862C518.773+726.953+514.258+724.934+510.976+721.925Z" fill="#ffffff" stroke-linecap="round" opacity="0" stroke-linejoin="round"/>
<path stroke="#606060" stroke-width="5.2311" d="M1844.67+1912.27C1839.25+1913.05+1676.06+2120.58+1676.41+2123.02C1677.37+2129.77+1729.58+2194.03+1750.23+2210.37C1773.84+2188.13+1795.28+2173.55+1796.47+2173.55C1809.19+2187.95+1820.75+2201.93+1854.05+2158.4C1887.35+2114.87+1869.68+2085.91+1847.65+2092.7C1858.65+2075.73+1863.75+2067.85+1871.31+2056.86C1874.35+2071.9+1900.36+2073.49+1926.73+2025.42C1953.1+1977.35+1944.16+1966.97+1914.43+1964.27C1920.79+1955.77+1932.93+1945.99+1927.12+1940.17C1917.98+1931.04+1904.1+1926.31+1883.99+1917.34C1888.94+1910.38+1977.14+1759.38+1977.37+1758.46C1977.57+1757.64+1969.57+1753.13+1968.97+1753.72C1966.97+1755.73+1871.04+1911.6+1870.04+1912.27C1858.55+1911.64+1845.86+1912.1+1844.67+1912.27Z" fill="#ffffff" stroke-linecap="round" opacity="1" stroke-linejoin="round"/>
<path stroke="#606060" stroke-width="5.2311" d="M1068.53+972.695C1087.84+979.619+1135.52+981.138+1149.3+978.064C1163.28+974.945+1161.61+940.839+1168.48+920.783C1173.98+915.801+1339.75+934.603+1360.82+935.443C1358.32+916.428+1351.51+860.793+1347.95+836.136C1337.3+835.944+1181.08+841.8+1181.12+840.943C1182.39+815.989+1195.95+774.49+1197.22+763.587C1181.41+751.289+1145+754.64+1123.29+756.371C980.355+787.04+1027.35+969.417+1068.53+972.695Z" fill="#ffffff" stroke-linecap="round" opacity="1" stroke-linejoin="round"/>
<path stroke="#606060" stroke-width="5.2311" d="M1380.01+800.582L1602.53+800.582C1620.82+800.582+1635.64+815.589+1635.64+834.101L1621.5+952.497C1621.5+971.009+1602.62+984.801+1584.34+984.801L1400.16+985.21C1381.88+985.21+1361.79+969.373+1361.79+950.861L1346.9+834.101C1346.9+815.589+1361.73+800.582+1380.01+800.582Z" fill="#ffffff" stroke-linecap="round" opacity="1" stroke-linejoin="round"/>
</g>
<g id="Hippy" vectornator:layerName="Hippy">
<path stroke="#606060" stroke-width="5.2311" d="M1928.28+1828.95C1924.82+1832.41+1827.15+1989.92+1879.15+2001.98C1928.63+2013.45+1943.15+1829.98+1943.15+1830.49C1943.15+1853.98+1916.85+2019.43+1965.21+2010.47C2024.8+1999.44+1956.02+1835.87+1956.99+1836.64C1959.6+1838.73+2006.14+2001.98+2044.94+1979.96C2094.31+1951.94+1969.79+1830.49+1970.33+1830.49C1973.34+1830.49+2088.91+1961.2+2121.24+1915.63C2149.5+1875.79+1986.94+1808.4+1986.23+1807.92C1985.94+1807.74+2141.22+1878.87+2153.41+1827.41C2170.28+1756.18+1986.8+1791+1987.76+1791.51C1992.37+1794+2168.58+1763.58+2148.28+1721.26C2131.17+1685.61+1972.35+1771.43+1972.89+1773.05C1973.04+1773.49+2121.29+1689.08+2073.92+1654.08C2028.61+1620.6+1960.48+1762.61+1960.58+1762.28C1961.95+1758.18+2035.42+1620.68+1980.19+1620.6C1939.48+1620.54+1940.58+1762.8+1940.58+1762.8C1940.58+1762.8+1951.68+1599.95+1895.92+1622.8C1852.53+1640.58+1930.89+1766.41+1928.79+1761.26C1926.19+1754.88+1848.23+1637.43+1818.3+1680.03C1791.32+1718.41+1918.92+1775.42+1918.65+1775.69C1917.54+1776.8+1771.1+1712.09+1771.35+1765.87C1771.51+1797.73+1904.46+1794.23+1910.33+1793.05C1910.66+1792.99+1764.54+1797.55+1779.87+1843.5C1798.53+1899.45+1918.19+1813.39+1918.02+1813.05C1916.98+1810.97+1618.24+2120.55+1628.25+2134.1C1642.69+2153.66+1928.71+1828.51+1928.28+1828.95Z" fill="#ffffff" stroke-linecap="round" opacity="1" stroke-linejoin="round"/>
<path stroke="#606060" stroke-width="5.2311" d="M1441.31+1601.34C1442.74+1601.75+1451.14+1636.35+1485+1654.49C1451.1+1720.24+1296.44+2148.01+1359.11+2430.44C1310.36+2416.06+1139.4+2330.21+1139.4+2279.83C1129.9+2148.01+1136.66+1941.28+1406.42+1636.35C1414.49+1628.28+1439.3+1600.77+1441.31+1601.34Z" fill="#ffffff" stroke-linecap="round" opacity="1" stroke-linejoin="round"/>
<path stroke="#606060" stroke-width="5.2311" d="M842.781+816.687C832.117+821.837+826.297+821.641+819.75+832.125C857.201+1199.73+1004.27+1543.96+1148.12+1733.91C1106.64+1756.47+1076.48+1799.58+1071.59+1851.47L1071.28+1854.59C1063.61+1935.96+1120.86+2007.9+1199.16+2015.28C1277.45+2022.66+1347.14+1962.68+1354.81+1881.31L1355.12+1878.19C1359.31+1833.76+1344.04+1792.21+1316.66+1762.38C1359.83+1720.62+1464.26+1606.9+1455.25+1589.22C1442.56+1595.01+1448.32+1594.6+1432.61+1608.01C1390.45+1656.05+1358.99+1703.51+1298.28+1745.62C1278.19+1730.22+1253.98+1720.02+1227.22+1717.5C1207.48+1715.64+1188.32+1718.07+1170.53+1724.03C1103.43+1633.3+890.442+1311.06+842.781+816.687Z" fill="#ffffff" stroke-linecap="round" opacity="1" stroke-linejoin="round"/>
<path stroke="#606060" stroke-width="5.2311" d="M584.623+1880.02C623.163+1953.75+793.186+2258.09+1013.8+1613.86C987.841+1611.11+939.393+1562.45+900.022+1489.57C891.961+1474.65+868.164+1432.2+811.758+1407.32C782.49+1394.41+750.274+1405.37+719.743+1413.04C620.965+1437.87+506.157+1546.3+438.093+1627.47C443.771+1432.2+460.133+1350.3+512.971+1225.07C565.809+1099.83+697.135+914.756+759.057+878.537C694.254+1075.5+956.669+1432.2+1148.08+1607C1156.93+1615.08+865.016+2231.04+842.777+2430.44C786.808+2353.61+543.838+2270.84+482.123+2219.59C472.054+2204.49+450.684+2006.45+461.001+1985.82" fill="#ffffff" stroke-linecap="round" opacity="1" stroke-linejoin="round"/>
<path stroke="#606060" stroke-width="5.2311" d="M997.004+787.289C1097.69+818.447+1302.71+775.864+1348.71+760.453C1391.12+746.243+1657.02+710.576+1670.52+711.465C1800.39+720.02+1863.12+794.076+1880.06+789.894C1926.23+778.494+1931.6+724.383+1933.4+716.642C1948.72+650.968+1902.39+607.136+1867.17+598.35C1881.87+495.75+1731.76+359.698+1588.8+291.207C1445.85+222.716+1264.97+198.29+1071.63+198.29C968.67+198.29+793.256+198.29+793.366+313.213C790.915+394.183+813.316+482.31+874.94+490.467C949.43+500.327+982.968+567.401+1002.39+601.403C1026+606.363+1031.37+629.315+994.775+627.578C934.883+653.327+947.785+777.635+997.004+787.289Z" fill="#fcfcfc" stroke-linecap="round" opacity="1" stroke-linejoin="round"/>
<path stroke="#606060" stroke-width="5.2311" d="M1485+647.5C1383.29+647.5+1300.53+724.729+1295.87+821.625C1276.24+823.692+1051.24+819.722+1042.19+823.344C1028.8+828.7+977.239+886.439+982.594+891C1000.62+906.356+1028.6+845.514+1051.66+839.906C1138.14+839.906+1261.61+843.531+1292.5+843.531C1295.41+842.628+1296.18+845.816+1296.18+845.816C1296.18+946.698+1380.3+1016.72+1485+1016.72C1584.78+1016.72+1666.38+942.391+1673.84+848.094L1812.5+848.094C1819.97+934.41+1894.67+1002.22+1985.91+1002.22C2082.1+1002.22+2160.09+926.875+2160.09+833.906L2160.09+830.312C2160.09+737.344+2082.1+662+1985.91+662C1889.71+662+1811.75+737.343+1811.75+830.312L1811.75+832.125L1674.56+832.125L1674.56+830.156C1674.56+729.274+1589.7+647.5+1485+647.5Z" fill="#ffffff" stroke-linecap="round" opacity="1" stroke-linejoin="round"/>
<path stroke="#606060" stroke-width="5.2311" d="M2326.66+1098.44C2326.29+1098.15+2319.21+1138.14+2318.91+1167.44C2318.63+1193.8+2293.29+1229.6+2304.81+1239.88C2327.85+1260.43+2381.08+1248.01+2354.84+1278.19C2346.01+1288.34+2267.76+1303.19+2267.87+1323.69C2267.99+1343.47+2304.15+1356.97+2310.62+1379.44C2322.71+1399.12+2135.39+1435.38+2095.34+1453.91C2076.91+1429.96+1885.15+1398.86+1874.94+1408.78C1881.9+1423.09+2065.83+1471.69+2094.69+1458.09C2146.01+1464.51+2324.11+1407.55+2335.41+1395.34C2337.54+1393.04+2344.79+1382.63+2325.69+1369.56C2314.32+1361.73+2286.89+1347.36+2295.09+1333.91C2306.47+1315.24+2381.09+1304.01+2381.09+1286.53C2381.09+1260.44+2333.17+1242.49+2326.66+1230.78C2316.87+1213.82+2354.49+1188.96+2357.28+1160.25C2360.08+1131.54+2328.18+1099.63+2326.66+1098.44Z" fill="#ffffff" stroke-linecap="round" opacity="1" stroke-linejoin="round"/>
<path stroke="#606060" stroke-width="5.2311" d="M2244.72+1208.53C2242.08+1219.08+2165.12+1309.05+2166.44+1366.12C2172.11+1408.28+2230.08+1452.74+2226.16+1458.62C2221.86+1465.06+2125.97+1460.49+2116.25+1476.03C2094.22+1511.26+2151.12+1553.45+2144.81+1557.47C2134.87+1563.79+2051.97+1575.72+1985.25+1542.28C1945.14+1533.44+1873.45+1578.78+1852.5+1604.5C1843.07+1555.37+1759.23+1436.02+1724.72+1420.84C1727.13+1463.55+1816.37+1596.75+1853.47+1612.22C1853.44+1610.58+1853.03+1608.58+1852.75+1606.69C1963.76+1557.24+1980.07+1559.87+2023.91+1579.91C2051.98+1592.74+2153.56+1583.1+2165.09+1563.59C2176.62+1544.09+2125.84+1510.1+2140.34+1495.59C2144+1491.94+2241.35+1471.93+2249.22+1464.5C2263.08+1451.41+2208.68+1408.29+2204.06+1379.19C2198.17+1323.14+2245.65+1210.71+2246.31+1208.53L2244.72+1208.53Z" fill="#ffffff" stroke-linecap="round" opacity="1" stroke-linejoin="round"/>
</g>
<g id="Chad" vectornator:layerName="Chad" visibility="hidden">
<path stroke="#606060" stroke-width="5.2311" d="M1750.58+757.832C1756.64+746.924+1866.95+383.702+1997.01+264.161C1602.9+246.498+1312.62+481.072+1172.92+670.371C1170.99+671.656+1535.75+654.436+1750.58+757.832Z" fill="#fff732" stroke-linecap="round" opacity="1" stroke-linejoin="round"/>
<path stroke="#606060" stroke-width="5.2311" d="M536.071+2203.46C503.465+2451.97+637.041+2504.47+654.663+2498.75C657.689+2498.08+1189.24+2577.73+1205.38+2575.59C1373.17+2553.34+1322.19+2278.95+1144.2+2329.93C1162.37+2320.36+1167.88+2127.59+1141.42+2120.43C1148.84+2085.21+545.564+2173.57+536.071+2203.46Z" fill="#3eff1c" stroke-linecap="round" opacity="1" stroke-linejoin="round"/>
<path stroke="#606060" stroke-width="5.2311" d="M591.589+1075.38C626.692+1116.33+648.225+1191.71+710.66+1235.46C917.446+1380.35+970.9+1436.62+1020.83+1532.14C1065.77+1618.11+1129.22+1693.21+1208.99+1710.3C1303.4+1720.07+1387.69+1633.31+1441.15+1568.78C1446.27+1562.61+1467.16+1547.81+1479.79+1533.73C1496.03+1539.87+1501.02+1543.14+1512.25+1552.66C1508.38+1555.01+1511.28+1557.48+1501.16+1577.25C1466.37+1691.37+1312.51+1850.54+1275.86+1871.3C1180.6+1925.24+1157.31+2051.03+1145.14+2125.1C1066.36+2329.34+805.52+2343.44+538.827+2204.38C490.451+2166.9+476.516+1982.92+474.356+1972.12C611.609+1843.48+749.852+1752.65+853.691+1694.86C895.841+1671.05+922.841+1657.96+945.77+1645.84C970.153+1615.91+931.369+1534.79+930.307+1532.66C927.535+1527.12+863.689+1563.45+860.382+1561.8C857.849+1560.53+891.563+1469.15+889.517+1467.11C888.487+1466.08+813.26+1484.97+812.308+1484.59C806.745+1482.36+851.247+1419.65+841.444+1405.92C833.245+1394.44+723.739+1451.08+721.988+1451.08C720.095+1451.08+737.562+1410.03+735.134+1410.03C732.963+1410.03+565.841+1464.26+440.227+1630.54C423.844+1392.3+538.933+1127.06+591.589+1075.38Z" fill="#ff384b" stroke-linecap="round" opacity="1" stroke-linejoin="round"/>
<path stroke="#606060" stroke-width="5.2311" d="M1837.29+2212.48C1840.81+2223.64+1890.53+2186.4+1905.45+2176.35C1923.08+2164.47+1938.16+2149.25+1948.1+2131.77C1952.11+2124.71+1951.25+2111.55+1951.25+2111.55C1951.25+2111.55+2006.69+2099.61+2008.35+2096.46C2010.86+2091.69+1989.73+2039.19+1987.47+2037.35C1986.42+2036.49+1942.8+2059.57+1943.51+2063.95C1943.93+2066.55+1940.79+1964.82+1932.3+1955.34C1927.84+1950.36+1844.44+1894.02+1833.84+1894.19C1824.65+1894.34+1799.71+1937.47+1800.78+1938.35C1803.97+1940.95+1838.75+1980.24+1847.53+1988.32C1856.31+1996.39+1883.92+2096.82+1865.7+2089.1C1852.09+2083.34+1792.06+2111.35+1790.91+2113.81C1789.37+2117.11+1833.03+2198.99+1837.29+2212.48Z" fill="#fff732" stroke-linecap="round" opacity="1" stroke-linejoin="round"/>
<path stroke="#606060" stroke-width="5.2311" d="M1865.38+2350.98C1910.53+2361.23+1939.63+2375.67+1941.83+2396.2C1962.16+2411.49+1961.79+2396.27+1984.49+2383.1C1996.97+2363.81+2023.93+2315.76+2023.82+2300.21C2023.62+2273.25+2026.91+2238.35+2040.79+2236.29C2054.66+2234.24+2086.85+2283.87+2086.85+2283.87C2086.85+2283.87+2069.39+2394.65+2058.42+2402.29C2047.46+2409.92+2017.07+2470.35+2017.07+2470.35L2038.8+2480.81L2006.82+2534.22C2006.82+2534.22+1984.23+2521.27+1964.34+2505.55C1944.45+2489.84+1941.82+2462.09+1928.04+2468.99C1915.54+2475.24+1892.25+2475.83+1851.95+2469.63C1860.54+2439.57+1861.17+2381.06+1865.38+2350.98Z" fill="#fff732" stroke-linecap="round" opacity="1" stroke-linejoin="round"/>
<path stroke="#666666" stroke-width="5.2311" d="M1896.49+1389.56C1913.21+1434.56+2003.32+1494.89+1993.7+1570.16C1984.7+1640.61+1915.73+1631.5+1876.49+1637.39C1778.9+1652.05+1721.99+1653.47+1616.97+1611.03C1538.03+1579.14+1425.43+1505.54+1357.36+1436.81C1323.85+1342.25+1310.33+1289.23+1294.68+1212.96C1367.43+1383.58+1642.57+1464.36+1858.18+1460.54C1884.63+1437.35+1881.39+1427.18+1896.49+1389.56Z" fill="#fdebd0" stroke-linecap="round" opacity="1" stroke-linejoin="round"/>
<path d="M1248.86+1260.87C1242.32+1196.77+1289.52+1192.48+1289.52+1192.48C1289.52+1192.48+1358.11+1324.98+1511.24+1376.44C1592.1+1403.6+1685.71+1438.84+1685.71+1438.84C1685.71+1438.84+1762.52+1453.03+1818.88+1454.16C1871.46+1455.21+1888.83+1400.15+1893.4+1393.6C1898.89+1396.34+1916.27+1445.94+1916.27+1445.94L1961.36+1565.83L1765.26+1603.91C1765.26+1603.91+1595.72+1577.29+1494.52+1531.79C1406.01+1492.01+1399.23+1483.44+1356.43+1441.63C1302.42+1388.89+1293.56+1374.12+1259.68+1307.41C1258.16+1295.14+1249.94+1271.51+1248.86+1260.87Z" opacity="1" fill="#fdebd0"/>
<path stroke="#666666" stroke-width="5.2311" d="M1218.97+993.625C1183.33+1025.52+1164.87+1099.27+1168.33+1143.84C1174.22+1180.65+1234.58+1270.19+1256.39+1302.13" fill="#fdebd0" stroke-linecap="round" opacity="0" stroke-linejoin="round"/>
</g>
<g id="Virgin" vectornator:layerName="Virgin" visibility="hidden">
<path stroke="#606060" stroke-width="5.2311" d="M516.667+2132.76C492.477+2189.77+657.39+2508.34+662.024+2510.66C674.028+2516.66+1181.11+2500.62+1180.56+2498.67C1130.57+2318.99+1164.81+2227.88+1140.4+2228.9C1117.02+2207.92+517.221+2131.46+516.667+2132.76Z" fill="#ffffff" stroke-linecap="round" opacity="1" stroke-linejoin="round"/>
<path stroke="#606060" stroke-width="5.2311" d="M1316.14+1747.32C1505.54+1852.48+1523.91+1867.13+1675.17+2010.21C1710.94+2018.39+1798.92+1937.51+1785.32+1894.14C1779.1+1858.22+1611.75+1543.61+1573.89+1532.29C1544.09+1523.39+1514.41+1550.34+1507.48+1552.65C1493.41+1557.34+1352.65+1677.19+1316.14+1747.32Z" fill="#ffffff" stroke-linecap="round" opacity="1" stroke-linejoin="round"/>
<path stroke="#606060" stroke-width="5.2311" d="M438.635+1630.44C598.223+1435.06+745.406+1397.33+804.303+1408.82C879.729+1423.52+930.515+1547.06+960.152+1579.89C989.789+1612.72+1001.08+1608.59+1012.74+1616.32C778.944+1704.76+558.402+1892.2+475.422+1972.04C493.058+2050.88+493.005+2072.09+512.28+2124.15C885.51+2384.13+1110.31+2289.84+1138.63+2229.54C1150.09+2067.5+1240.8+1728.95+1534.85+1537.62C1471.06+1583.38+1366.74+1611.47+1309.97+1609.38C1216.78+1605.96+741.381+1386.38+803.2+844.222C513.269+1052.59+433.663+1403.26+438.635+1630.44Z" fill="#ffffff" stroke-linecap="round" opacity="1" stroke-linejoin="round"/>
<path stroke="#606060" stroke-width="5.2311" d="M266.003+1984.43C264.375+1987.59+356.965+2096.03+379.496+2082.94C483.783+1939.21+801.074+1687.91+1014.58+1617.09C990.114+1607.42+968.391+1588.67+960.027+1577.3C904.147+1501.38+880.709+1419.17+789.161+1406.1C639.355+1384.69+361.962+1629.24+265.929+1984.1" fill="#ffffff" stroke-linecap="round" opacity="1" stroke-linejoin="round"/>
<path stroke="#606060" stroke-width="5.2311" d="M1086.71+660.821C1085.45+652.726+943.373+769.556+944.246+773.046C945.178+776.776+1118.9+708.752+1121.57+710.357C1123.67+711.615+1079.94+750.003+1078.66+806.33C1139.47+753.843+1279.03+696.773+1286.69+695.679C1288.04+695.486+1316.77+759.604+1371.08+774.57C1383.98+728.24+1421.04+705.075+1429.79+701.183C1437.81+697.622+1559.47+780.287+1626.1+787.412C1613.49+749.571+1623.83+710.039+1626.1+708.522C1632.04+704.566+1703.16+787.412+1804.06+781.908C1904.97+776.404+2018.48+686.506+2029.73+686.506C2031.09+686.506+1864.76+730.649+1754.42+689.484C1835.05+676.546+1860.84+659.769+1898.14+631.553C1880.1+636.779+1732.73+668.754+1669.22+658.678C1596.55+624.246+1431.68+587.667+1386.22+619.022C1300.52+586.19+1247.66+604.554+1213.3+633.301C1173.09+616.24+1146.54+630.525+1145.42+629.632C1143.29+627.923+1066.91+503.77+1053.69+510.379C1048.73+512.855+1119.28+654.625+1116.07+662.655C1112.89+670.591+1102.3+650.955+1101.39+649.813C1096.6+643.823+1044.1+616.225+1044.1+616.225C1044.1+616.225+1062.39+647.529+1087.4+662.146" fill="#ffffff" stroke-linecap="round" opacity="1" stroke-linejoin="round"/>
<path stroke="#606060" stroke-width="5.2311" d="M1339.89+879.145C1338.06+880.368+1336.57+882.452+1334.39+882.814C1330.93+883.391+1325.78+878.508+1323.38+877.31C1316.77+874.006+1309.9+871.249+1303.2+868.137C1280.84+857.756+1258.52+847.112+1235.32+838.783C1218.36+832.696+1191.82+824.223+1172.94+822.271C1155.26+820.441+1137.19+821.959+1119.74+818.601C1098.41+814.501+1082.87+802.336+1061.03+800.255C1040.18+798.269+1019.48+803.924+998.648+803.924C982.588+803.924+965.002+805.91+949.113+803.924C944.185+803.308+935.966+800.009+930.766+802.089C924.97+804.408+919.785+813.448+914.254+816.767C909.224+819.785+904.025+821.492+899.577+825.94C887.051+838.466+879.318+854.475+868.388+868.137C861.52+876.722+854.985+885.769+850.041+895.657C849.176+897.387+846.477+902.026+848.206+901.161C855.942+897.293+859.909+888.351+866.553+882.814C884.138+868.16+907.213+856.684+927.097+846.121C949.737+834.094+970.948+823.143+996.814+829.609C1006.15+831.944+1015.1+836.474+1024.33+838.783C1039.07+842.467+1055.29+845.617+1070.2+849.791C1086.93+854.474+1094.41+858.249+1110.56+860.799C1128.48+863.628+1146.25+862.746+1163.77+868.137C1184.66+874.567+1202.96+889.553+1224.31+893.822C1241.38+897.237+1258.62+897.098+1275.68+901.161C1286.97+903.849+1297.62+908.757+1308.71+912.169C1315.16+914.155+1322.29+912.538+1328.89+914.004C1339.17+916.289+1346.6+929.502+1360.08+925.012C1367.62+922.495+1373.22+915.689+1380.26+912.169" fill="#ffffff" stroke-linecap="round" opacity="0" stroke-linejoin="round"/>
<path stroke="#666666" stroke-width="5.2311" d="M1950.41+1314.4L1920.47+1316.95L1906.15+1327.78C1906.15+1327.78+1900.02+1372.34+1898.35+1387.2C1896.43+1404.24+1879.96+1422.1+1879.96+1422.1L1804.9+1391.91L1792.1+1292.45L1837.39+1237.8L1986.09+1215.64L1950.41+1314.4Z" fill="#fdebd0" stroke-linecap="round" opacity="1" stroke-linejoin="round"/>
<path d="M2150.95+1193.44L1962.41+1310.7L1908.93+1315.34L1886.09+1355.05L1896.3+1395.18C1896.3+1395.18+1897.45+1410.56+1884.29+1425.29C1871.12+1440.03+1843.63+1454.11+1843.63+1454.11L1635.57+1438.95L1328.65+1309.48L1251.37+1041.64L1808.92+1112.86L2150.95+1193.44Z" opacity="1" fill="#fdebd0"/>
<path stroke="#666666" stroke-width="5.2311" d="M1906.45+1303.76L1405.94+1292.62L1702.88+1333.12L1870.18+1323.63L1906.45+1303.76Z" fill="#ff8c78" stroke-linecap="round" opacity="1" stroke-linejoin="round"/>
<path stroke="#606060" stroke-width="5.2311" d="M1871.44+838.929C1870.83+853.506+1870.33+859.854+1871.84+872.75L1652.56+872.75C1653.58+861.673+1653.92+850.07+1653.47+837.906C1627.17+839.817+1431.83+847.271+1321.59+846.5C1321.2+855.578+1321.25+864.316+1321.69+872.75C1321.69+872.75+1002.6+872.563+1000.78+872.625C997.564+872.674+989.415+873.505+986.382+876.987L924.281+947.781C921.249+951.263+921.517+956.605+924.875+959.75C928.233+962.895+933.436+962.638+936.469+959.156C936.469+959.156+996.09+892.781+996.875+892.781L1323.5+892.781C1327.2+920.108+1325.63+950.188+1337.69+970.295C1402.76+1078.83+1580.08+1075.01+1638.34+962.375C1650.94+938.011+1649.19+921.255+1649.84+892.781L1875.09+892.781C1878.49+908.787+1880.83+931.21+1886.8+944.265C1941.02+1062.83+2112.33+1050.8+2130.27+923.623C2133.56+900.285+2139.38+870.194+2138.32+840.387C2114.61+842.184+1970.8+839.654+1871.44+838.929Z" fill="#ffffff" stroke-linecap="round" opacity="1" stroke-linejoin="round"/>
</g>
</svg>
