<svg id="Layer_1" data-name="Layer 1" xmlns="http://www.w3.org/2000/svg" viewBox="0 0 967.65 977.06"><path d="M913.9,502.25h1.39a6.13,6.13,0,0,1,6.14,6.13v6.9a6.14,6.14,0,0,1-6.14,6.14H913.9a6.13,6.13,0,0,1-6.13-6.14v-6.9A6.12,6.12,0,0,1,913.9,502.25Z" style="fill:#70e9c5;fill-opacity:0"/><path d="M0,0H967.65V977.06H0Z" style="fill:#e8cf4b"/><path d="M478.3,151.2c-114.81,0-229.63,19.6-229.81,33.49,0,1.61-2.81,8.66,6.81,9.22-.23,205.88-.54,485,0,665.42-4,.34-3.25,6.4-3.25,7.5.33,27,121.69,72.39,237.1,72.39s227-51.32,228.2-72.28c0-1.1-.24-4.4-2.72-5.46.52-180.38.22-461.69,0-667.57,6.57-1.12,4.72-5.9,4.67-7.51-.17-13.89-112.87-35.2-227.68-35.2-2.21,0-4.44.16-6.65.18S480.52,151.2,478.3,151.2Z" style="fill:#a8a8a8;stroke:#6f6f6f;stroke-linecap:round;stroke-linejoin:round;stroke-width:2.6315567475274073px"/><path d="M497,234.32c114.92,0,217.79-19.12,217.79-35,.18,82.11.33,240.1,0,323.18C714.94,537.26,606.49,570,491.57,570S255,537,255.08,522.51c0-116.67.12-253,0-323.18C255.08,214.24,382.05,234.32,497,234.32Z" style="fill:#d82f38;stroke:#6f6f6f;stroke-linecap:round;stroke-linejoin:round;stroke-width:2.6315567475274073px"/><path d="M491.57,570c115,0,223.37-33.83,223.42-49.53-.3,92.92-.1,246.72-.14,327.26-.28,11.72-96,71.17-235.24,69S255.42,857.81,255,844.86c.17-89,0-207.86,0-324.42C255,535.7,376.58,570,491.57,570Z" style="fill:#e4e4e4;stroke:#6f6f6f;stroke-linecap:round;stroke-linejoin:round;stroke-width:2.6315567475274073px"/><path d="M271.54,190.44c0-7.48,93.8-26.71,216.56-26.71s213.06,19.87,213.06,27.35S612.71,215.24,490,215.24,271.54,197.93,271.54,190.44Z" style="fill:none;stroke:#6f6f6f;stroke-linecap:round;stroke-linejoin:round;stroke-width:1.0922213557852483px"/><path d="M294.36,193.47c0-6.58,82.91-23.47,191.41-23.47s188.32,17.45,188.32,24-78.18,21.21-186.68,21.21S294.36,200,294.36,193.47Z" style="fill:none;stroke:#6f6f6f;stroke-linecap:round;stroke-linejoin:round;stroke-width:1.0922213557852483px"/><path d="M255.65,846.94c3,17.25,107.5,68.51,228.12,69.8,113.65,1.21,230.54-53,230.54-67.8" style="fill:none;stroke:#6f6f6f;stroke-linecap:round;stroke-linejoin:round;stroke-width:2.6315567475274073px"/><path d="M396,573.24c0-49.48,38.83-89.6,86.73-89.6s86.73,40.12,86.73,89.6-38.83,89.59-86.73,89.59S396,622.72,396,573.24Z" style="fill:#b99643;stroke:#6f6f6f;stroke-linecap:round;stroke-linejoin:round;stroke-width:2.6315567475274073px"/><path d="M316.26,196.81c0-5.57,71.44-19.87,164.94-19.87s162.27,14.77,162.27,20.34-67.36,18-160.86,18S316.26,202.37,316.26,196.81Z" style="fill:none;stroke:#6f6f6f;stroke-linecap:round;stroke-linejoin:round;stroke-width:1.0922213557852483px"/><path d="M257.47,841.43c1.31,15,114.26,67.4,227.92,67.94s226.7-51.79,226.7-66.61" style="fill:none;stroke:#da3039;stroke-linecap:round;stroke-linejoin:round;stroke-width:2.6315567475274073px"/><path d="M255.3,861.48c2.28,25.65,110.51,68.16,231.13,69.44,113.65,1.21,226-51.34,226.11-68.68" style="fill:none;stroke:#6f6f6f;stroke-linecap:round;stroke-linejoin:round;stroke-width:1.27989812559741px"/><g style="isolation:isolate"><path d="M311.22,274c7.34,1.48,13,6,17.1,13.66s6.08,17.75,6.08,30.35a73.12,73.12,0,0,1-2,18.12,32.43,32.43,0,0,1-5.93,12.55,13.06,13.06,0,0,1-6.33,4.46,18.52,18.52,0,0,1-8.93,0q-9.37-1.91-18.72-4v-5.76l3.91.23,1-1.61V279.4c-.34-.7-.69-1.41-1-2.12l-3.91-1.44V270Q301.85,272.11,311.22,274Zm-5.33,5.53v65.92l3.73.77c5.1,1,8.91-1,11.42-5.93s3.77-13,3.77-24.1-1.25-19.58-3.77-25.49-6.32-9.36-11.42-10.4Z" style="fill:#e4e4e4"/><path d="M365.94,347.88v8.76a20.79,20.79,0,0,1-6.7,4.22,13.46,13.46,0,0,1-6.76.7c-4.82-.74-8.69-4.09-11.6-10s-4.36-13.33-4.36-22.24,1.48-16,4.46-21.16,6.8-7.37,11.5-6.64c4.25.66,7.56,3.47,9.92,8.48s3.54,11.73,3.54,20.18v2.25q-10.59-1.49-21.17-3.22v.35q0,10.08,2.78,16.29c1.85,4.14,4.4,6.47,7.64,7a9.08,9.08,0,0,0,5.22-.83A20,20,0,0,0,365.94,347.88Zm-8.52-23v-1.26A34.54,34.54,0,0,0,356,312.4q-1.44-4-4.16-4.47-3-.46-4.76,3.54t-2,11.52Q351.25,324,357.42,324.92Z" style="fill:#e4e4e4"/><path d="M366.93,388.52v-5.47l3.5-.1.89-1.66V315l-4.39-.6v-4.73q4.69-2.1,9.39-4.27l2.91.37v7.09a25.09,25.09,0,0,1,5.54-5,7.42,7.42,0,0,1,4.72-1.24q5.28.6,8.77,8.82t3.49,20.33q0,14.16-4.66,22.13c-3.11,5.3-7.29,7.66-12.54,7a26.7,26.7,0,0,1-2.65-.46c-.87-.21-1.75-.46-2.64-.76l0,18.83c.32.6.65,1.2,1,1.8l4,1v5.47Q375.57,389.73,366.93,388.52Zm12.3-31.33a13,13,0,0,0,2.07.86,11.83,11.83,0,0,0,2.07.46c2.92.35,5.23-1.44,7-5.35s2.58-9.36,2.58-16.31q0-9.27-2.27-14.74t-6.28-5.95a5.59,5.59,0,0,0-2.3.27,14.18,14.18,0,0,0-2.83,1.35Z" style="fill:#e4e4e4"/><path d="M412.45,309.3l3.14.27v51l1,1.87,3.65.76v5.3q-8.52-.69-17-1.53v-5.3l3.52-.12c.31-.56.61-1.13.92-1.7V319.11l-4.28-.42V314Q407.87,311.66,412.45,309.3Zm-.7-27c1.41.12,2.58,1,3.49,2.75a13.29,13.29,0,0,1,1.36,6.31,12.79,12.79,0,0,1-1.35,6.31c-.9,1.59-2,2.33-3.44,2.2s-2.49-1-3.39-2.78a13.57,13.57,0,0,1-1.37-6.35,12.66,12.66,0,0,1,1.35-6.22C409.3,283,410.41,282.21,411.75,282.33Z" style="fill:#e4e4e4"/><path d="M448.7,365a23.35,23.35,0,0,1-6.23,4.36,12.61,12.61,0,0,1-6.07,1.17q-7-.44-11.3-8.79t-4.3-21.3q0-13.43,4.71-21.65c3.15-5.49,7.17-8.06,12.06-7.76a10.31,10.31,0,0,1,7.78,4,14.7,14.7,0,0,1,3,9.4,11.07,11.07,0,0,1-1.32,5.73,3.63,3.63,0,0,1-3.36,2.1,4.3,4.3,0,0,1-2.05-.67,6.79,6.79,0,0,1-1.79-1.8v-12.5a6.16,6.16,0,0,0-.94-.38,4.51,4.51,0,0,0-.71-.13q-3.63-.21-6.07,5.81t-2.45,15.59q0,10.49,2.7,16.72c1.8,4.15,4.25,6.33,7.34,6.51a8.16,8.16,0,0,0,4.39-1.1,18.53,18.53,0,0,0,4.64-3.77Z" style="fill:#e4e4e4"/><path d="M452.42,321.65l-4.23-.2V317q2.42-2.35,4.81-4.73,1.69-6.06,3.4-12.13l4.1.16q0,7.32,0,14.64c3.22.12,6.43.22,9.65.3v7.09c-3.22-.09-6.43-.19-9.65-.3q0,14.7,0,29.42c0,4.42.4,7.46,1.18,9.1a4.44,4.44,0,0,0,4.23,2.56,11.55,11.55,0,0,0,2.25-.13,10.28,10.28,0,0,0,2-.55V368a25.87,25.87,0,0,1-5.33,2.62,12.91,12.91,0,0,1-4.63.79,7,7,0,0,1-3-.75,7.14,7.14,0,0,1-2.37-2.06,9.46,9.46,0,0,1-1.83-4,46.63,46.63,0,0,1-.53-8.64Q452.44,338.83,452.42,321.65Z" style="fill:#e4e4e4"/><path d="M485.91,371.42v-5.76l4-.6,1.11-1.84V300.3l-.92-1.68-4.17-.6v-5.76q9.39.08,18.78,0V298l-4,.61-1,1.68v64.3q6.27,0,12.54-.16c.27-.64.55-1.28.83-1.92q.5-7.18,1-14.36l4.84-.12v23.1Q502.38,371.58,485.91,371.42Z" style="fill:#e4e4e4"/><path d="M528.27,312.3l3.15-.12v51l1,1.74,3.65.31v5.3q-8.53.39-17.08.61v-5.3l3.53-.56.93-1.82V322.72l-4.3.12v-4.72Q523.68,315.23,528.27,312.3Zm-.7-26.88c1.42-.06,2.59.72,3.5,2.31a12.29,12.29,0,0,1,1.37,6.14,13.83,13.83,0,0,1-1.35,6.48q-1.35,2.56-3.45,2.64c-1.36.05-2.5-.74-3.41-2.36a12.56,12.56,0,0,1-1.37-6.18,13.63,13.63,0,0,1,1.36-6.38C525.12,286.35,526.24,285.46,527.57,285.42Z" style="fill:#e4e4e4"/><path d="M567,317.84a55.54,55.54,0,0,1,6.72-6.52c2-1.53,3.56-2.36,4.81-2.47,3-.27,5.25,1.14,6.75,4.26s2.25,7.93,2.25,14.46V359.2c.29.57.57,1.14.86,1.7l3.42.11v5.3q-8,.84-15.95,1.55v-5.3l2.79-.71c.3-.63.6-1.25.89-1.87V331.75q0-6.75-1.41-9.61a4.28,4.28,0,0,0-4.55-2.59,7,7,0,0,0-2.5.75,18.39,18.39,0,0,0-3,1.95V361c.28.57.55,1.15.83,1.72l2.95.22v5.3q-7.68.65-15.37,1.16v-5.3l2.67-.64c.3-.7.61-1.39.92-2.09V332.65c0-4.18-.47-7.21-1.4-9.06a4.29,4.29,0,0,0-4.45-2.58,7.7,7.7,0,0,0-2.64.68,16.16,16.16,0,0,0-2.83,1.67v38.95l.89,1.73,2.74.3v5.3q-8,.5-16,.86v-5.3l3.34-.62c.3-.61.61-1.22.92-1.83V322l-4.26.2V317.5l9.19-6,3.14-.18v7a42.6,42.6,0,0,1,6.07-5.85,9.24,9.24,0,0,1,4.58-2,5.52,5.52,0,0,1,4.42,1.7A14.38,14.38,0,0,1,567,317.84Z" style="fill:#e4e4e4"/><path d="M601.06,306.74l3.14-.37v51c.31.56.63,1.11.95,1.67l3.64,0v5.3q-8.5,1-17,2V361l3.52-.84c.3-.63.61-1.26.92-1.89V317.54l-4.28.47v-4.73C595,311.12,598,308.93,601.06,306.74Zm-.69-26.83a3.49,3.49,0,0,1,3.48,2,11.68,11.68,0,0,1,1.36,6,14.52,14.52,0,0,1-1.35,6.59c-.89,1.78-2,2.75-3.43,2.91s-2.48-.54-3.39-2.1a11.86,11.86,0,0,1-1.36-6.07,14.43,14.43,0,0,1,1.34-6.48C597.92,281,599,280.06,600.37,279.91Z" style="fill:#e4e4e4"/><path d="M612.55,315l-4.2.53v-4.49l4.77-5.56,3.39-12.72,4.08-.55v14.63q4.78-.66,9.57-1.37v7.09q-4.78.71-9.57,1.37v29.42c0,4.43.38,7.39,1.17,8.9s2.18,2.12,4.2,1.83a12,12,0,0,0,2.22-.53,11,11,0,0,0,2-.89v5.61a32.39,32.39,0,0,1-5.29,3.55,14.43,14.43,0,0,1-4.6,1.59,6.46,6.46,0,0,1-3-.23,5.51,5.51,0,0,1-2.35-1.64,7.76,7.76,0,0,1-1.82-3.66,44.9,44.9,0,0,1-.53-8.54Z" style="fill:#e4e4e4"/><path d="M659.56,341.94v8.76a32.79,32.79,0,0,1-6.68,6.37,17,17,0,0,1-6.74,2.88q-7.23,1.2-11.6-6.27t-4.38-20.83q0-13.43,4.47-22.6t11.51-10.34q6.36-1.07,9.89,5.3t3.53,19v2.25q-10.54,1.92-21.13,3.58v.35q0,10.08,2.78,15.4c1.85,3.54,4.39,5.05,7.63,4.5a11.68,11.68,0,0,0,5.21-2.51A31.54,31.54,0,0,0,659.56,341.94Zm-8.5-20.22v-1.27q0-7.2-1.44-10.78t-4.16-3.14c-2,.33-3.56,2-4.76,5.07a36.12,36.12,0,0,0-2,12.15Q644.91,322.78,651.06,321.72Z" style="fill:#e4e4e4"/><path d="M684.07,274.86l-4.7,1v-4.72q4.78-3.75,9.56-7.54l3-.64v79.63l.87,1.71,3.28-.27v5.18q-6,1.35-12,2.6v-6.63a38.25,38.25,0,0,1-5.39,6.94,10,10,0,0,1-4.76,2.8q-5.46,1.08-9-6.2t-3.5-19.83q0-14.12,4.6-23.73T678,294a14.87,14.87,0,0,1,2.88-.3,20.48,20.48,0,0,1,3.16.2Zm0,65.68V301.13a13.69,13.69,0,0,0-2.6-.75,6,6,0,0,0-2.16,0q-4.2.86-6.73,7.46t-2.52,16.91q0,9.8,2.29,14.88c1.52,3.39,3.64,4.81,6.33,4.26a7.43,7.43,0,0,0,2.4-1A20.37,20.37,0,0,0,684.07,340.54Z" style="fill:#e4e4e4"/></g><g style="isolation:isolate"><path d="M436,406a13,13,0,0,1-2.24.41,12.19,12.19,0,0,1-2.34,0,9.47,9.47,0,0,1-2.18-.43,7.11,7.11,0,0,1-1.83-.91,8,8,0,0,1-2.65-3,8.32,8.32,0,0,1-1-3.92,7.71,7.71,0,0,1,.58-3.05,6.19,6.19,0,0,1,1.68-2.32,5.93,5.93,0,0,1,2.41-1.29,8.75,8.75,0,0,1,3.08-.25,12.36,12.36,0,0,1,2.21.39,14.94,14.94,0,0,1,2.24.78V396l-1.6-.12c-.15-.79-.29-1.58-.44-2.37l-.29-.4a6.62,6.62,0,0,0-.88-.31,5.28,5.28,0,0,0-.85-.16,4.08,4.08,0,0,0-3.61,1.35,6.5,6.5,0,0,0-1.33,4.38,7.38,7.38,0,0,0,1.39,4.7,5.18,5.18,0,0,0,3.84,2,3,3,0,0,0,.6,0l.72-.09.33-.31c.17-.86.35-1.72.52-2.59l1.6.13Z" style="fill:#e4e4e4"/><path d="M437.52,399.2a8.51,8.51,0,0,1,.56-3.18,6.15,6.15,0,0,1,1.68-2.34,6.52,6.52,0,0,1,2.31-1.26,7.66,7.66,0,0,1,2.79-.29,8.16,8.16,0,0,1,2.61.58,7.71,7.71,0,0,1,2.2,1.41,7.82,7.82,0,0,1,1.92,2.73,8.67,8.67,0,0,1,.66,3.41,8,8,0,0,1-.59,3.15,6.36,6.36,0,0,1-1.74,2.42,6.43,6.43,0,0,1-2.26,1.29,7.11,7.11,0,0,1-2.65.34,7.68,7.68,0,0,1-5.43-2.5A8.28,8.28,0,0,1,437.52,399.2Zm7.39-5.67a3.22,3.22,0,0,0-3,1.49,7.59,7.59,0,0,0-1.14,4.45,8.83,8.83,0,0,0,1.14,4.71,3.66,3.66,0,0,0,3,1.93,3.2,3.2,0,0,0,3-1.51,7.69,7.69,0,0,0,1.13-4.46,8.78,8.78,0,0,0-1.11-4.71A3.64,3.64,0,0,0,444.91,393.53Z" style="fill:#e4e4e4"/><path d="M453.45,407.58v-1l1.29-.12.4-.37V394.51l-.31-.32-1.38-.18V393l5,.23v.59l6.68,10.62v-9.34l-.39-.43-1.33-.17v-1.07c1.66.06,3.32.12,5,.16v1.07l-1.29.09-.38.4v13l-2.44-.08q-3.78-6-7.55-12v10.09c.11.14.23.28.35.41l1.35.25v1Q455.94,407.72,453.45,407.58Z" style="fill:#e4e4e4"/><path d="M475.63,393.72a8.33,8.33,0,0,1,5.81,2,7.08,7.08,0,0,1,2.06,5.42,8.17,8.17,0,0,1-.67,3.41,6.46,6.46,0,0,1-2,2.5,5.9,5.9,0,0,1-2.14,1,11.69,11.69,0,0,1-3,.28l-6.37-.14v-1.07l1.33-.08.35-.33V395.15l-.35-.36-1.33-.14v-1.08C471.38,393.63,473.51,393.68,475.63,393.72Zm-1.81,1.19v12.18l1.27,0a4.7,4.7,0,0,0,3.88-1.45,6.92,6.92,0,0,0,1.28-4.57,7.05,7.05,0,0,0-1.28-4.6,4.92,4.92,0,0,0-3.88-1.57Z" style="fill:#e4e4e4"/><path d="M484.76,408.46v-1.07l1.33-.11c.12-.11.24-.22.35-.34V395.31l-.35-.31-1.33-.11v-1.07q5.5,0,11,0v3.42l-1.51,0c-.13-.64-.25-1.28-.37-1.92l-.24-.28-4.37,0v5.19h2.85l.29-.31c.08-.52.15-1,.23-1.56h1.29v5.06h-1.29c-.08-.53-.15-1.05-.23-1.58l-.29-.3h-2.85v5.67l5.1,0,.25-.35.35-2.31,1.51,0v3.91Q490.63,408.5,484.76,408.46Z" style="fill:#e4e4e4"/><path d="M497.58,408.4v-1l1.29-.2.4-.4V395.22l-.31-.3-1.38-.09v-1.06c1.67,0,3.34,0,5-.09v.59q3.35,5.12,6.69,10.19v-9.34l-.4-.41-1.33-.08v-1.07l5-.16v1.07l-1.29.17-.37.43v13l-2.44.08q-3.78-5.75-7.56-11.54v10.1l.35.39,1.35.15v1.05Z" style="fill:#e4e4e4"/><path d="M514.05,407.5v-3.95l1.65-.06c.12.87.24,1.73.35,2.6l.29.32a6.52,6.52,0,0,0,1,.19,7.58,7.58,0,0,0,1,0,3.53,3.53,0,0,0,2-.66,1.86,1.86,0,0,0,.76-1.54,2.2,2.2,0,0,0-.53-1.45,5.32,5.32,0,0,0-1.8-1.19l-.62-.27a9.85,9.85,0,0,1-2.24-1.23,4.09,4.09,0,0,1-1.12-1.35,3.27,3.27,0,0,1-.4-1.57,4,4,0,0,1,1.43-3.14,5.83,5.83,0,0,1,3.72-1.38,11.36,11.36,0,0,1,2,.09,15.13,15.13,0,0,1,2.09.46v3.53L522,397l-.36-2.25-.31-.29a2.39,2.39,0,0,0-.7-.2,4.31,4.31,0,0,0-.9,0,3,3,0,0,0-1.86.65,2,2,0,0,0-.3,2.75A4.22,4.22,0,0,0,519,398.7a13.66,13.66,0,0,0,1.31.57,12.94,12.94,0,0,1,1.81.85,4.34,4.34,0,0,1,1.46,1.39,3.35,3.35,0,0,1,.51,1.79,4.11,4.11,0,0,1-1.59,3.32,6.88,6.88,0,0,1-4.2,1.44,12.83,12.83,0,0,1-2.14-.1A11.54,11.54,0,0,1,514.05,407.5Z" style="fill:#e4e4e4"/><path d="M525.65,407.45v-1.07l1.33-.19.36-.36V394.2l-.36-.29-1.33,0v-1.07q5.51-.3,11-.69v3.42l-1.51.11c-.12-.64-.25-1.27-.37-1.9l-.24-.27-4.36.28V399l2.84-.18.3-.33c.07-.52.15-1.05.22-1.58l1.29-.08v5l-1.29.09c-.07-.52-.15-1-.22-1.56l-.3-.28-2.84.18v5.67l5.09-.33c.08-.13.17-.25.25-.37.12-.78.24-1.56.35-2.34l1.5-.1v3.91Q531.51,407.13,525.65,407.45Z" style="fill:#e4e4e4"/><path d="M544.88,391.49a7.7,7.7,0,0,1,5.79,1.41,6.4,6.4,0,0,1,2.06,5.22,8.67,8.67,0,0,1-.67,3.48,7.36,7.36,0,0,1-2,2.7,6.87,6.87,0,0,1-2.14,1.24,12.08,12.08,0,0,1-3,.58c-2.12.18-4.24.34-6.36.5v-1.06l1.33-.22.35-.37V393.39l-.35-.32h-1.33V392Zm-1.8,1.37v12.19l1.26-.11a5.16,5.16,0,0,0,3.87-1.84,7.48,7.48,0,0,0,1.28-4.7,6.5,6.5,0,0,0-1.28-4.47,4.46,4.46,0,0,0-3.87-1.17Z" style="fill:#e4e4e4"/></g><g style="isolation:isolate"><g style="isolation:isolate"><path d="M356,867.59V848.5q4.69,1.35,9.4,2.61,1.17,6.66,2.33,13.31l1.44,1.93c1.29.54,2.57,1,3.85,1.44s2.58.79,3.9,1.11c3.92,1,7.05.8,9.38-.41a6.39,6.39,0,0,0,3.5-6.16,8.48,8.48,0,0,0-.48-2.79A10.06,10.06,0,0,0,388,856.9c-1.6-2.14-5-4.77-10.13-8-2.52-1.55-4.46-2.83-5.82-3.81-5.27-3.72-9.11-7.53-11.55-11.35a22.51,22.51,0,0,1-3.66-12.33c0-6.52,2.39-11.06,7.17-13.72s11.21-3,19.29-1.12a71.41,71.41,0,0,1,10.65,3.38,110,110,0,0,1,11.28,5.27v17.43c-3.18-.59-6.36-1.2-9.53-1.85q-1-5.92-2.05-11.85l-1.25-1.52a22.72,22.72,0,0,0-2.93-1.31,25.7,25.7,0,0,0-3.22-.93c-3.86-.86-6.89-.76-9.08.35s-3.28,3.07-3.28,5.89c0,3.85,4.18,8.66,12.61,14.11,1,.61,1.7,1.09,2.2,1.44,7.53,4.83,12.54,8.81,15,12.18a19.63,19.63,0,0,1,3.69,11.93c0,6.74-2.65,11.67-7.93,14.67s-12.39,3.54-21.29,1.41a61.73,61.73,0,0,1-9.82-3.37A132.38,132.38,0,0,1,356,867.59Z" style="fill:#3b3b3b"/><path d="M417,848.4c0-10.65,3.48-18.62,10.47-24.12s16.27-7.59,27.87-6.62a51.13,51.13,0,0,1,13.27,2.83,37.76,37.76,0,0,1,10.85,6,37.06,37.06,0,0,1,10.43,12.76,35.57,35.57,0,0,1,3.61,15.91c0,10.73-3.64,19.54-10.91,26.19S465.93,891,454.47,890s-20.4-5.5-27.24-13.23S417,859.5,417,848.4Zm38.24-23c-5.45-.46-9.76,1.71-12.93,6.58s-4.76,11.78-4.76,20.78c0,8.43,1.67,15.45,5,21s7.59,8.61,12.8,9,9.41-1.94,12.59-7.05,4.77-12.18,4.77-21.14c0-8.53-1.6-15.41-4.8-20.69S460.47,825.85,455.23,825.41Z" style="fill:#3b3b3b"/><path d="M499.24,820.92q17.6,0,35.17-1.27v6q-3.37.43-6.75.83l-1.27,1.59v34.79q0,9.61,3.66,13.51c2.43,2.58,6.46,3.69,12.08,3.21,5.34-.46,9.11-2.29,11.3-5.4s3.29-8.39,3.29-15.84V825.49l-1.21-1.37c-2.47.14-4.93.27-7.4.37v-6q13.08-1.28,26.1-3.22v6c-2.21.46-4.41.91-6.62,1.34l-1.31,1.69v34.14c0,10.14-2.29,17.76-6.88,22.77s-12.08,8.1-22.5,8.89a35.92,35.92,0,0,1-15.41-1.74,20.65,20.65,0,0,1-10-7.7,19.27,19.27,0,0,1-2.78-6.63,62.13,62.13,0,0,1-.84-12.17V828.73c-.42-.49-.84-1-1.27-1.48-2.46-.1-4.91-.21-7.37-.34Z" style="fill:#3b3b3b"/><path d="M578.74,883.77v-6q3.3-.72,6.6-1.49l2-2.3V821.06L586,819.78q-3.62.42-7.25.8v-6q16.74-2.65,33.31-6.41c9.55-2.17,16.66-2.34,21.38-.2s7.07,6.6,7.07,13.48c0,7.79-2.43,14.4-7.29,19.74s-12,9.23-21.56,11.38c-1.63.37-2.86.62-3.69.77s-1.62.27-2.35.36v16.72l1.5,1.64q3.79-.63,7.59-1.3v6Q596.82,880.92,578.74,883.77Zm26.87-37,1.4-.3c4.93-1.07,8.56-3.19,10.9-6.29s3.51-7.3,3.51-12.61q0-6.74-3.11-9.89t-8.51-1.94l-4.19.92Z" style="fill:#3b3b3b"/></g><g style="isolation:isolate"><path d="M356,867.59V848.5q4.69,1.35,9.4,2.61,1.17,6.66,2.33,13.31l1.44,1.93c1.29.54,2.57,1,3.85,1.44s2.58.79,3.9,1.11c3.92,1,7.05.8,9.38-.41a6.39,6.39,0,0,0,3.5-6.16,8.48,8.48,0,0,0-.48-2.79A10.06,10.06,0,0,0,388,856.9c-1.6-2.14-5-4.77-10.13-8-2.52-1.55-4.46-2.83-5.82-3.81-5.27-3.72-9.11-7.53-11.55-11.35a22.51,22.51,0,0,1-3.66-12.33c0-6.52,2.39-11.06,7.17-13.72s11.21-3,19.29-1.12a71.41,71.41,0,0,1,10.65,3.38,110,110,0,0,1,11.28,5.27v17.43c-3.18-.59-6.36-1.2-9.53-1.85q-1-5.92-2.05-11.85l-1.25-1.52a22.72,22.72,0,0,0-2.93-1.31,25.7,25.7,0,0,0-3.22-.93c-3.86-.86-6.89-.76-9.08.35s-3.28,3.07-3.28,5.89c0,3.85,4.18,8.66,12.61,14.11,1,.61,1.7,1.09,2.2,1.44,7.53,4.83,12.54,8.81,15,12.18a19.63,19.63,0,0,1,3.69,11.93c0,6.74-2.65,11.67-7.93,14.67s-12.39,3.54-21.29,1.41a61.73,61.73,0,0,1-9.82-3.37A132.38,132.38,0,0,1,356,867.59Z" style="fill:none;stroke:#a08961;stroke-linecap:round;stroke-linejoin:round;stroke-width:2.631556749343872px"/><path d="M417,848.4c0-10.65,3.48-18.62,10.47-24.12s16.27-7.59,27.87-6.62a51.13,51.13,0,0,1,13.27,2.83,37.76,37.76,0,0,1,10.85,6,37.06,37.06,0,0,1,10.43,12.76,35.57,35.57,0,0,1,3.61,15.91c0,10.73-3.64,19.54-10.91,26.19S465.93,891,454.47,890s-20.4-5.5-27.24-13.23S417,859.5,417,848.4Zm38.24-23c-5.45-.46-9.76,1.71-12.93,6.58s-4.76,11.78-4.76,20.78c0,8.43,1.67,15.45,5,21s7.59,8.61,12.8,9,9.41-1.94,12.59-7.05,4.77-12.18,4.77-21.14c0-8.53-1.6-15.41-4.8-20.69S460.47,825.85,455.23,825.41Z" style="fill:none;stroke:#a08961;stroke-linecap:round;stroke-linejoin:round;stroke-width:2.631556749343872px"/><path d="M499.24,820.92q17.6,0,35.17-1.27v6q-3.37.43-6.75.83l-1.27,1.59v34.79q0,9.61,3.66,13.51c2.43,2.58,6.46,3.69,12.08,3.21,5.34-.46,9.11-2.29,11.3-5.4s3.29-8.39,3.29-15.84V825.49l-1.21-1.37c-2.47.14-4.93.27-7.4.37v-6q13.08-1.28,26.1-3.22v6c-2.21.46-4.41.91-6.62,1.34l-1.31,1.69v34.14c0,10.14-2.29,17.76-6.88,22.77s-12.08,8.1-22.5,8.89a35.92,35.92,0,0,1-15.41-1.74,20.65,20.65,0,0,1-10-7.7,19.27,19.27,0,0,1-2.78-6.63,62.13,62.13,0,0,1-.84-12.17V828.73c-.42-.49-.84-1-1.27-1.48-2.46-.1-4.91-.21-7.37-.34Z" style="fill:none;stroke:#a08961;stroke-linecap:round;stroke-linejoin:round;stroke-width:2.631556749343872px"/><path d="M578.74,883.77v-6q3.3-.72,6.6-1.49l2-2.3V821.06L586,819.78q-3.62.42-7.25.8v-6q16.74-2.65,33.31-6.41c9.55-2.17,16.66-2.34,21.38-.2s7.07,6.6,7.07,13.48c0,7.79-2.43,14.4-7.29,19.74s-12,9.23-21.56,11.38c-1.63.37-2.86.62-3.69.77s-1.62.27-2.35.36v16.72l1.5,1.64q3.79-.63,7.59-1.3v6Q596.82,880.92,578.74,883.77Zm26.87-37,1.4-.3c4.93-1.07,8.56-3.19,10.9-6.29s3.51-7.3,3.51-12.61q0-6.74-3.11-9.89t-8.51-1.94l-4.19.92Z" style="fill:none;stroke:#a08961;stroke-linecap:round;stroke-linejoin:round;stroke-width:2.631556749343872px"/></g></g></svg>