<svg id="Layer_1" data-name="Layer 1" xmlns="http://www.w3.org/2000/svg" viewBox="0 0 1080.5 1080"><path d="M919.66,605.18h1.39a6.14,6.14,0,0,1,6.14,6.14v6.9a6.14,6.14,0,0,1-6.14,6.14h-1.39a6.13,6.13,0,0,1-6.13-6.14v-6.9A6.13,6.13,0,0,1,919.66,605.18Z" style="fill:#70e9c5;fill-opacity:0"/><path d="M-.18-5.62h1083V1080H-.18Z" style="fill:#e8cf4b"/><path d="M534.32,44.17C388.91,44.17,243.49,69,243.27,86.59c-.05,2-3.57,11,8.62,11.67-.29,260.74-.68,614.28,0,842.72-5,.44-4.12,8.11-4.12,9.5.42,34.2,154.12,91.67,300.28,91.67s287.5-65,289-91.53c0-1.39-.31-5.57-3.45-6.91.67-228.45.29-584.71,0-845.45,8.33-1.42,6-7.47,5.93-9.51-.22-17.59-142.95-44.58-288.35-44.58-2.81,0-5.62.21-8.43.23S537.12,44.17,534.32,44.17Z" style="fill:#a8a8a8;stroke:#6f6f6f;stroke-linecap:round;stroke-linejoin:round;stroke-width:3.332729391313819px"/><path d="M556.45,149.44c145.54,0,275.82-24.22,275.82-44.31.23,104,.41,304.08,0,409.29.23,18.68-137.12,60.1-282.65,60.1S250,532.79,250.11,514.42c0-147.75.15-320.4,0-409.29C250.11,124,410.91,149.44,556.45,149.44Z" style="fill:#d82f38;stroke:#6f6f6f;stroke-linecap:round;stroke-linejoin:round;stroke-width:3.332729391313819px"/><path d="M549.64,574.52c145.63,0,282.89-42.85,282.94-62.72-.37,117.68-.13,312.45-.17,414.46-.35,14.83-121.61,90.12-297.92,87.38s-283.93-74.58-284.44-91c.22-112.66-.05-263.23,0-410.85C250.05,531.12,404,574.52,549.64,574.52Z" style="fill:#e4e4e4;stroke:#6f6f6f;stroke-linecap:round;stroke-linejoin:round;stroke-width:3.332729391313819px"/><path d="M269.27,93.87c0-9.48,118.8-33.83,274.26-33.83S813.36,85.2,813.36,94.68s-112,30.6-267.49,30.6S269.27,103.36,269.27,93.87Z" style="fill:none;stroke:#6f6f6f;stroke-linecap:round;stroke-linejoin:round;stroke-width:1.3832413903543284px"/><path d="M300.86,97.7c0-8.33,105-29.72,242.41-29.72s238.49,22.1,238.49,30.43-99,26.87-236.42,26.87S300.86,106,300.86,97.7Z" style="fill:none;stroke:#6f6f6f;stroke-linecap:round;stroke-linejoin:round;stroke-width:1.3832413903543284px"/><path d="M250.87,925.29c3.75,21.84,136.16,86.77,288.91,88.4,143.93,1.53,292-67.09,292-85.86" style="fill:none;stroke:#6f6f6f;stroke-linecap:round;stroke-linejoin:round;stroke-width:3.332729391313819px"/><path d="M431.47,578.66c0-62.66,49.18-113.46,109.84-113.46S651.15,516,651.15,578.66,602,692.13,541.31,692.13,431.47,641.33,431.47,578.66Z" style="fill:#b99643;stroke:#6f6f6f;stroke-linecap:round;stroke-linejoin:round;stroke-width:3.332729391313819px"/><path d="M334.11,101.93c0-7.05,90.48-25.16,208.89-25.16s205.51,18.71,205.51,25.76-85.31,22.75-203.72,22.75S334.11,109,334.11,101.93Z" style="fill:none;stroke:#6f6f6f;stroke-linecap:round;stroke-linejoin:round;stroke-width:1.3832413903543284px"/><path d="M253.44,918.31c1.65,18.94,144.7,85.36,288.64,86s287.1-65.58,287.1-84.35" style="fill:none;stroke:#da3039;stroke-linecap:round;stroke-linejoin:round;stroke-width:3.332729391313819px"/><path d="M251.78,943.71c2.88,32.48,140,86.31,292.71,87.94,143.94,1.54,286.24-65,286.36-87" style="fill:none;stroke:#6f6f6f;stroke-linecap:round;stroke-linejoin:round;stroke-width:1.6209242324239597px"/><path d="M303.31,252.39v42.12h4.38q9,0,13.39-5.22t4.41-15.86q0-10.64-4.41-15.83t-13.39-5.21Zm6.25-4.2q12.92,0,20,6.63t7.11,18.69a28.33,28.33,0,0,1-2.33,11.79,22.54,22.54,0,0,1-6.94,8.7,21.16,21.16,0,0,1-7.41,3.61,40.79,40.79,0,0,1-10.47,1.14h-22v-3.68l4.6-.41,1.21-1.18v-40l-1.21-1.22-4.6-.37v-3.68Z" style="fill:#e4e4e4"/><path d="M366.52,275.53v-.81q0-4.59-1.7-7.05a5.53,5.53,0,0,0-4.85-2.44,6.65,6.65,0,0,0-5.56,2.74,13,13,0,0,0-2.28,7.56Zm9.89,13.87V295a33.64,33.64,0,0,1-7.8,3.31,28.87,28.87,0,0,1-7.87,1.11q-8.43,0-13.52-5.19t-5.1-13.72q0-8.58,5.21-14a17.75,17.75,0,0,1,13.41-5.43q7.42,0,11.55,4.47t4.12,12.57v1.43H351.76v.22q0,6.44,3.24,10.12a11.26,11.26,0,0,0,8.9,3.68,19.3,19.3,0,0,0,6.07-1A30.32,30.32,0,0,0,376.41,289.4Z" style="fill:#e4e4e4"/><path d="M394.84,294.22c.81.17,1.62.3,2.41.39s1.61.12,2.41.12a9.63,9.63,0,0,0,8.08-3.93q3-3.94,3-10.6,0-5.93-2.63-9.25a8.8,8.8,0,0,0-7.31-3.33,11.66,11.66,0,0,0-2.66.35,22.94,22.94,0,0,0-3.3,1.09Zm-14.31,21v-3.49l4.09-.37,1-1.14V267.91h-5.12v-3l10.93-3.53h3.38v4.52a34.19,34.19,0,0,1,6.44-3.61,15.08,15.08,0,0,1,5.49-1.14,12.57,12.57,0,0,1,10.19,5q4,5,4,12.74,0,9.06-5.4,14.45T401,298.75c-1,0-2.06,0-3.08-.1s-2-.15-3.07-.27l0,12,1.15,1.06,4.67.3v3.49Z" style="fill:#e4e4e4"/><path d="M436.35,261.37H440v32.56l1.1,1.14,4.23.29v3.39H425.57v-3.39l4.08-.29,1.07-1.14v-26h-5v-3Zm-.81-17.19a5.47,5.47,0,0,1,4,1.57,5.3,5.3,0,0,1,1.58,3.95,5.65,5.65,0,0,1-1.56,4.11,5.54,5.54,0,0,1-9.51-4,5.61,5.61,0,0,1,1.56-4A5.2,5.2,0,0,1,435.54,244.18Z" style="fill:#e4e4e4"/><path d="M481.27,295.36a34.59,34.59,0,0,1-7.21,3,26.08,26.08,0,0,1-7,1q-8.1,0-13.08-5.11t-5-13.39a19.08,19.08,0,0,1,5.46-14.06,18.87,18.87,0,0,1,14-5.48,16,16,0,0,1,9,2.3,6.88,6.88,0,0,1,3.44,5.91,4.86,4.86,0,0,1-1.53,3.69,5.4,5.4,0,0,1-3.88,1.46,7.87,7.87,0,0,1-2.38-.35,7.37,7.37,0,0,1-2.07-1.09v-8a8.31,8.31,0,0,0-1.09-.2,6.35,6.35,0,0,0-.83-.06,8.38,8.38,0,0,0-7,4A16.83,16.83,0,0,0,459.19,279q0,6.69,3.13,10.56a10.36,10.36,0,0,0,8.5,3.86,16.56,16.56,0,0,0,5.08-.86,25.12,25.12,0,0,0,5.37-2.56Z" style="fill:#e4e4e4"/><path d="M488.52,267.55h-4.9v-2.87l5.56-3.17,3.93-7.83h4.75V263H509v4.53H497.86v18.76c0,2.82.45,4.74,1.36,5.78s2.54,1.54,4.9,1.54a23.24,23.24,0,0,0,2.59-.13,18.39,18.39,0,0,0,2.3-.38v3.6a44.78,44.78,0,0,1-6.16,1.79,26.87,26.87,0,0,1-5.36.6,13.78,13.78,0,0,1-3.51-.4,8.68,8.68,0,0,1-2.74-1.25,5.39,5.39,0,0,1-2.12-2.49,16.82,16.82,0,0,1-.6-5.5Z" style="fill:#e4e4e4"/><path d="M533.11,298.75v-3.68l4.6-.41,1.28-1.18V253.31l-1.06-1.07-4.82-.37v-3.68h21.71v3.68l-4.61.37L549,253.31v41.06h14.5l1-1.22,1.14-9.16h5.6v14.76Z" style="fill:#e4e4e4"/><path d="M585,261.37h3.64v32.56l1.11,1.14,4.23.29v3.39H574.24v-3.39l4.08-.29,1.07-1.14v-26h-5v-3Zm-.81-17.19a5.51,5.51,0,0,1,4,1.57,5.34,5.34,0,0,1,1.58,3.95,5.65,5.65,0,0,1-1.56,4.11,5.39,5.39,0,0,1-4,1.59,5.3,5.3,0,0,1-3.93-1.58,5.36,5.36,0,0,1-1.58-4,5.61,5.61,0,0,1,1.56-4A5.16,5.16,0,0,1,584.21,244.18Z" style="fill:#e4e4e4"/><path d="M632.74,266.33a58.75,58.75,0,0,1,7.78-3.81,16.4,16.4,0,0,1,5.57-1.3q5.24,0,7.84,3.13t2.61,9.38v20.2l1,1.14,4,.29v3.39H643v-3.39l3.24-.29,1-1.14v-18c0-2.87-.54-4.95-1.64-6.22s-2.85-1.91-5.28-1.91a12.83,12.83,0,0,0-2.88.35A25.71,25.71,0,0,0,634,269.2v24.73l1,1.14,3.42.29v3.39H620.52v-3.39l3.09-.29,1.07-1.29V275.46q0-4-1.62-5.85c-1.08-1.23-2.79-1.84-5.15-1.84a14.89,14.89,0,0,0-3,.33,22.61,22.61,0,0,0-3.28,1v24.87l1,1.14,3.17.29v3.39H597.31v-3.39l3.86-.29,1.07-1.14v-26h-4.93v-3l10.63-3.53h3.64v4.45a45,45,0,0,1,7-3.5,15.64,15.64,0,0,1,5.3-1.1,9.92,9.92,0,0,1,5.11,1.29A10.51,10.51,0,0,1,632.74,266.33Z" style="fill:#e4e4e4"/><path d="M675.23,261.37h3.64v32.56l1.11,1.14,4.23.29v3.39H664.45v-3.39l4.09-.29,1.06-1.14v-26h-5v-3Zm-.81-17.19a5.48,5.48,0,0,1,4.05,1.57,5.34,5.34,0,0,1,1.58,3.95,5.65,5.65,0,0,1-1.56,4.11,5.54,5.54,0,0,1-9.51-4,5.61,5.61,0,0,1,1.56-4A5.18,5.18,0,0,1,674.42,244.18Z" style="fill:#e4e4e4"/><path d="M691.53,267.55h-4.89v-2.87l5.55-3.17,3.94-7.83h4.75V263H712v4.53H700.88v18.76c0,2.82.45,4.74,1.36,5.78s2.54,1.54,4.89,1.54a23.12,23.12,0,0,0,2.59-.13,18.09,18.09,0,0,0,2.3-.38v3.6a44.38,44.38,0,0,1-6.16,1.79,26.78,26.78,0,0,1-5.35.6,13.8,13.8,0,0,1-3.52-.4,8.78,8.78,0,0,1-2.74-1.25,5.36,5.36,0,0,1-2.11-2.49,16.47,16.47,0,0,1-.61-5.5Z" style="fill:#e4e4e4"/><path d="M739.36,275.53v-.81c0-3.06-.57-5.41-1.69-7.05a5.55,5.55,0,0,0-4.86-2.44,6.63,6.63,0,0,0-5.55,2.74,13,13,0,0,0-2.28,7.56Zm9.9,13.87V295a34,34,0,0,1-7.8,3.31,28.94,28.94,0,0,1-7.88,1.11q-8.42,0-13.52-5.19T715,280.5q0-8.58,5.2-14a17.75,17.75,0,0,1,13.41-5.43q7.44,0,11.56,4.47t4.12,12.57v1.43H724.61v.22q0,6.44,3.23,10.12a11.27,11.27,0,0,0,8.91,3.68,19.34,19.34,0,0,0,6.07-1A30.55,30.55,0,0,0,749.26,289.4Z" style="fill:#e4e4e4"/><path d="M781,291.57V266.41a27,27,0,0,0-3.05-.83,12.47,12.47,0,0,0-2.54-.28,9.4,9.4,0,0,0-7.89,3.9q-3,3.9-3,10.49,0,6.26,2.68,9.78a8.81,8.81,0,0,0,7.43,3.54,13.29,13.29,0,0,0,2.82-.35A27.77,27.77,0,0,0,781,291.57Zm0-41.94h-5.52v-3l11.22-3.53h3.5v50.85l1,1.21,3.86.3v3.31H781v-4.24a30.52,30.52,0,0,1-6.33,3.72,14.74,14.74,0,0,1-5.59,1.18,12.92,12.92,0,0,1-10.5-5.06q-4.11-5.06-4.11-13.08,0-9,5.39-14.61t14-5.59a33.2,33.2,0,0,1,3.38.18c1.18.13,2.42.31,3.72.56Z" style="fill:#e4e4e4"/><path d="M474.45,363.66a16.72,16.72,0,0,1-2.84.74,17.15,17.15,0,0,1-3,.26,11.75,11.75,0,0,1-2.77-.32,8.3,8.3,0,0,1-2.32-.94,9,9,0,0,1-3.37-3.49,9.87,9.87,0,0,1-1.22-4.85,10.29,10.29,0,0,1,.74-3.92,9,9,0,0,1,2.14-3.15,8.7,8.7,0,0,1,3-1.91,11.49,11.49,0,0,1,3.91-.64,15.69,15.69,0,0,1,2.8.26,18.19,18.19,0,0,1,2.84.77v4.61h-2l-.55-2.95-.38-.47a6.85,6.85,0,0,0-1.11-.31,5.63,5.63,0,0,0-1.07-.11,5.57,5.57,0,0,0-4.58,2.1A8.82,8.82,0,0,0,463,355a8.66,8.66,0,0,0,1.76,5.78,6,6,0,0,0,4.87,2.1,5.5,5.5,0,0,0,.76-.07c.29-.05.59-.11.91-.19l.42-.42.66-3.33h2Z" style="fill:#e4e4e4"/><path d="M486,347.13a4.42,4.42,0,0,0-3.81,2.14,10.14,10.14,0,0,0-1.44,5.74,10.57,10.57,0,0,0,1.44,5.86,4.33,4.33,0,0,0,3.75,2.21,4.38,4.38,0,0,0,3.79-2.15,10.18,10.18,0,0,0,1.44-5.73,10.73,10.73,0,0,0-1.41-5.88A4.31,4.31,0,0,0,486,347.13ZM476.61,355a11,11,0,0,1,.71-4.08,8.47,8.47,0,0,1,2.13-3.11,8.85,8.85,0,0,1,2.92-1.81,10.12,10.12,0,0,1,3.54-.6,9.76,9.76,0,0,1,3.3.54,8.93,8.93,0,0,1,2.79,1.62,9.19,9.19,0,0,1,2.43,3.32,11.2,11.2,0,0,1,.1,8.31,9.15,9.15,0,0,1-5.07,5,9.91,9.91,0,0,1-10.24-2.07A9.8,9.8,0,0,1,476.61,355Z" style="fill:#e4e4e4"/><path d="M497,364.32V363l1.64-.23.5-.5V347.66l-.4-.39-1.74-.14v-1.35h6.33v.74l8.46,13.13V347.82l-.5-.53-1.69-.16v-1.35h6.3v1.35l-1.63.16-.47.53v16.5h-3.09l-9.57-14.84v12.79l.45.5,1.71.23v1.32Z" style="fill:#e4e4e4"/><path d="M522.91,347.32v15.45h1.6a6.06,6.06,0,0,0,4.91-1.92c1.08-1.28,1.62-3.21,1.62-5.81s-.54-4.54-1.62-5.81a6.08,6.08,0,0,0-4.91-1.91Zm2.29-1.54c3.16,0,5.6.81,7.34,2.43a8.89,8.89,0,0,1,2.61,6.85,10.46,10.46,0,0,1-.85,4.33,8.29,8.29,0,0,1-2.55,3.19A7.7,7.7,0,0,1,529,363.9a14.89,14.89,0,0,1-3.84.42h-8.07V363l1.69-.15.44-.43V347.71l-.44-.44-1.69-.14v-1.35Z" style="fill:#e4e4e4"/><path d="M536.91,364.32V363l1.68-.15.45-.43V347.66l-.45-.39-1.68-.14v-1.35h13.93v4.33h-1.91l-.47-2.43-.3-.36h-5.53v6.58h3.6l.38-.39.28-2h1.63v6.41h-1.63l-.28-2-.38-.38h-3.6v7.18h6.45l.32-.45.44-2.92h1.91v4.95Z" style="fill:#e4e4e4"/><path d="M553.3,364.32V363l1.63-.23.5-.5V347.66l-.39-.39-1.74-.14v-1.35h6.33v.74l8.45,13.13V347.82l-.5-.53-1.68-.16v-1.35h6.3v1.35l-1.63.16-.48.53v16.5H567l-9.56-14.84v12.79l.44.5,1.72.23v1.32Z" style="fill:#e4e4e4"/><path d="M574.3,363.71v-5h2.09l.45,3.31.36.42a9.22,9.22,0,0,0,1.21.29,8.25,8.25,0,0,0,1.22.09,4.32,4.32,0,0,0,2.59-.71,2.26,2.26,0,0,0,1-1.91,2.82,2.82,0,0,0-.68-1.87,7.09,7.09,0,0,0-2.27-1.61l-.79-.38a13.07,13.07,0,0,1-2.83-1.67,5.78,5.78,0,0,1-1.43-1.76,4.47,4.47,0,0,1-.5-2,4.91,4.91,0,0,1,1.82-3.91,7,7,0,0,1,4.7-1.54,13.92,13.92,0,0,1,2.55.24,17.3,17.3,0,0,1,2.64.71v4.48h-2L584,348l-.39-.39a3.44,3.44,0,0,0-.89-.29,5.62,5.62,0,0,0-1.14-.1,3.66,3.66,0,0,0-2.36.73,2.36,2.36,0,0,0-.89,1.9,2.56,2.56,0,0,0,.51,1.56,5.74,5.74,0,0,0,1.73,1.42,17.21,17.21,0,0,0,1.65.79,16.49,16.49,0,0,1,2.29,1.2,5.63,5.63,0,0,1,1.85,1.85A4.37,4.37,0,0,1,587,359a4.93,4.93,0,0,1-2,4.1,8.33,8.33,0,0,1-5.31,1.57,15.6,15.6,0,0,1-2.71-.24A16,16,0,0,1,574.3,363.71Z" style="fill:#e4e4e4"/><path d="M589.15,364.32V363l1.69-.15.45-.43V347.66l-.45-.39-1.69-.14v-1.35h13.94v4.33h-1.91l-.48-2.43-.29-.36h-5.53v6.58h3.6l.37-.39.29-2h1.63v6.41h-1.63l-.29-2-.37-.38h-3.6v7.18h6.44l.33-.45.44-2.92H604v4.95Z" style="fill:#e4e4e4"/><path d="M611.4,347.32v15.45H613a6.08,6.08,0,0,0,4.92-1.92c1.08-1.28,1.62-3.21,1.62-5.81s-.54-4.54-1.62-5.81a6.1,6.1,0,0,0-4.92-1.91Zm2.29-1.54q4.74,0,7.35,2.43a8.89,8.89,0,0,1,2.61,6.85,10.46,10.46,0,0,1-.86,4.33,8.36,8.36,0,0,1-2.54,3.19,7.75,7.75,0,0,1-2.72,1.32,14.89,14.89,0,0,1-3.84.42h-8.06V363l1.68-.15.45-.43V347.71l-.45-.44-1.68-.14v-1.35Z" style="fill:#e4e4e4"/><path d="M361.22,950.86V926.7h12.12l3,16.06,1.85,2c1.66.26,3.31.45,4.95.58s3.3.19,5,.19q7.53,0,12-3.29a10.34,10.34,0,0,0,4.47-8.77,9.72,9.72,0,0,0-2.36-6.37q-3.06-3.39-13-7.21-4.84-1.79-7.46-3-10.14-4.51-14.86-10.49a22.31,22.31,0,0,1-4.72-14.31q0-12.37,9.25-19.9t24.74-7.52A73.34,73.34,0,0,1,409.82,866a99.82,99.82,0,0,1,14.34,3.89v22.07H412.05l-2.62-14.48-1.59-1.59a23.56,23.56,0,0,0-3.73-.86,28.44,28.44,0,0,0-4.12-.29q-7.39,0-11.6,3.13a10,10,0,0,0-4.21,8.48q0,7.33,16.13,14.09c1.24.51,2.17.92,2.81,1.21q14.42,6.06,19.1,11.58t4.69,14.25a24.39,24.39,0,0,1-10.08,20.47q-10.08,7.65-27.17,7.65a77.23,77.23,0,0,1-12.59-1.14Q370.22,953.28,361.22,950.86Z" style="fill:#3b3b3b;stroke:#a08961;stroke-linecap:round;stroke-linejoin:round;stroke-width:3.332729391313819px"/><path d="M487.3,874.34q-10.28,0-16.26,9.91t-6,27q0,16,6.28,25.89t16.1,9.89q9.82,0,15.82-10.08t6-27.1q0-16.2-6-25.86T487.3,874.34Zm-48.21,35q0-20.22,13.23-32.53t35.1-12.3a56,56,0,0,1,16.68,2.39,42.48,42.48,0,0,1,13.62,6.92,44.53,44.53,0,0,1,13.07,15.81,45.06,45.06,0,0,1,4.53,20.09q0,20.41-13.68,33.45t-35.3,13q-21.36,0-34.31-12.88T439.09,909.35Z" style="fill:#3b3b3b;stroke:#a08961;stroke-linecap:round;stroke-linejoin:round;stroke-width:3.332729391313819px"/><path d="M542.52,866.37h44.13V874l-8.48.51-1.59,1.91v44.07q0,12.18,4.59,17.37t15.18,5.2q10.06,0,14.22-5.45T614.71,918V876.38l-1.53-1.91-9.31-.51v-7.59h32.91V874l-8.36.51-1.65,1.91v43.24q0,19.26-8.68,27.74t-28.31,8.48q-11.41,0-19.36-3.38a27.88,27.88,0,0,1-12.53-10.21,25.21,25.21,0,0,1-3.47-8.48q-1-4.77-1.06-15.43v-42l-1.59-1.91-9.25-.51Z" style="fill:#3b3b3b;stroke:#a08961;stroke-linecap:round;stroke-linejoin:round;stroke-width:3.332729391313819px"/><path d="M676.64,913.49h1.78q9.44,0,13.94-4.81t4.49-14.89q0-8.55-4-13.49A13.25,13.25,0,0,0,682,875.36h-5.35ZM642.52,954V946.4l8.35-.51,2.49-2.49v-67l-1.66-1.91-9.18-.51v-7.59h42.34q18.32,0,27.43,6.5t9.11,19.58q0,14.79-9.4,22.42t-27.65,7.62c-2.08,0-3.65,0-4.72-.07s-2.06-.11-3-.19V943.4l1.91,2.49,9.69.51V954Z" style="fill:#3b3b3b;stroke:#a08961;stroke-linecap:round;stroke-linejoin:round;stroke-width:3.332729391313819px"/></svg>