<svg id="eXJMDGCsevU1" xmlns="http://www.w3.org/2000/svg" xmlns:xlink="http://www.w3.org/1999/xlink" viewBox="0 0 967.65 977.06" shape-rendering="geometricPrecision" text-rendering="geometricPrecision"><style><![CDATA[#eXJMDGCsevU3_tr {animation: eXJMDGCsevU3_tr__tr 3000ms linear infinite normal forwards}@keyframes eXJMDGCsevU3_tr__tr { 0% {transform: translate(479.865px,832.922975px) rotate(0deg);animation-timing-function: cubic-bezier(0.42,0,0.58,1)} 3.333333% {transform: translate(479.865px,832.922975px) rotate(2.807049deg);animation-timing-function: cubic-bezier(0.42,0,0.58,1)} 6.666667% {transform: translate(479.865px,832.922975px) rotate(0deg);animation-timing-function: cubic-bezier(0.42,0,0.58,1)} 10% {transform: translate(479.865px,832.922975px) rotate(-2.855019deg);animation-timing-function: cubic-bezier(0.42,0,0.58,1)} 13.333333% {transform: translate(479.865px,832.922975px) rotate(0deg)} 100% {transform: translate(479.865px,832.922975px) rotate(0deg)}}]]></style><path id="eXJMDGCsevU2" d="M0,0L967.65,0L967.65,977.06L0,977.06Z" fill="rgb(232,207,75)" stroke="none" stroke-width="1"/><g id="eXJMDGCsevU3_tr" transform="translate(479.865,832.922975) rotate(0)"><g id="eXJMDGCsevU3" transform="translate(-479.864999,-832.922975)"><path id="eXJMDGCsevU4" d="M478.3,151.2C363.49,151.2,248.67,170.8,248.49,184.69C248.49,186.3,245.68,193.35,255.3,193.91C255.07,399.79,254.76,678.91,255.3,859.33C251.3,859.67,252.05,865.73,252.05,866.83C252.38,893.83,373.74,939.22,489.15,939.22C604.56,939.22,716.15,887.9,717.35,866.94C717.35,865.84,717.11,862.54,714.63,861.48C715.15,681.1,714.85,399.79,714.63,193.91C721.2,192.79,719.35,188.01,719.3,186.4C719.13,172.51,606.43,151.2,491.62,151.2C489.41,151.2,487.18,151.36,484.97,151.38C482.76,151.4,480.52,151.2,478.3,151.2Z" fill="rgb(168,168,168)" stroke="rgb(111,111,111)" stroke-width="2.63156" stroke-linecap="round" stroke-linejoin="round"/><path id="eXJMDGCsevU5" d="M497,234.32C611.92,234.32,714.79,215.2,714.79,199.32C714.97,281.43,715.12,439.42,714.79,522.5C714.94,537.26,606.49,570,491.57,570C376.65,570,255,537,255.08,522.51C255.08,405.84,255.2,269.51,255.08,199.33C255.08,214.24,382.05,234.32,497,234.32Z" fill="rgb(216,47,56)" stroke="rgb(111,111,111)" stroke-width="2.63156" stroke-linecap="round" stroke-linejoin="round"/><path id="eXJMDGCsevU6" d="M491.57,570C606.57,570,714.94,536.17,714.99,520.47C714.69,613.39,714.89,767.19,714.85,847.73C714.57,859.45,618.85,918.9,479.61,916.73C340.37,914.56,255.42,857.81,255,844.86C255.17,755.86,255,637,255,520.44C255,535.7,376.58,570,491.57,570Z" fill="rgb(228,228,228)" stroke="rgb(111,111,111)" stroke-width="2.63156" stroke-linecap="round" stroke-linejoin="round"/><path id="eXJMDGCsevU7" d="M271.54,190.44C271.54,182.96,365.34,163.73,488.1,163.73C610.86,163.73,701.16,183.6,701.16,191.08C701.16,198.56,612.71,215.24,490,215.24C367.29,215.24,271.54,197.93,271.54,190.44Z" fill="none" stroke="rgb(111,111,111)" stroke-width="1.09222" stroke-linecap="round" stroke-linejoin="round"/><path id="eXJMDGCsevU8" d="M294.36,193.47C294.36,186.89,377.27,170,485.77,170C594.27,170,674.09,187.45,674.09,194C674.09,200.55,595.91,215.21,487.41,215.21C378.91,215.21,294.36,200,294.36,193.47Z" fill="none" stroke="rgb(111,111,111)" stroke-width="1.09222" stroke-linecap="round" stroke-linejoin="round"/><path id="eXJMDGCsevU9" d="M255.65,846.94C258.65,864.19,363.15,915.45,483.77,916.74C597.42,917.95,714.31,863.74,714.31,848.94" fill="none" stroke="rgb(111,111,111)" stroke-width="2.63156" stroke-linecap="round" stroke-linejoin="round"/><path id="eXJMDGCsevU10" d="M396,573.24C396,523.76,434.83,483.64,482.73,483.64C530.63,483.64,569.46,523.76,569.46,573.24C569.46,622.72,530.63,662.83,482.73,662.83C434.83,662.83,396,622.72,396,573.24Z" fill="rgb(185,150,67)" stroke="rgb(111,111,111)" stroke-width="2.63156" stroke-linecap="round" stroke-linejoin="round"/><path id="eXJMDGCsevU11" d="M316.26,196.81C316.26,191.24,387.7,176.94,481.2,176.94C574.7,176.94,643.47,191.71,643.47,197.28C643.47,202.85,576.11,215.28,482.61,215.28C389.11,215.28,316.26,202.37,316.26,196.81Z" fill="none" stroke="rgb(111,111,111)" stroke-width="1.09222" stroke-linecap="round" stroke-linejoin="round"/><path id="eXJMDGCsevU12" d="M257.47,841.43C258.78,856.43,371.73,908.83,485.39,909.37C599.05,909.91,712.09,857.58,712.09,842.76" fill="none" stroke="rgb(218,48,57)" stroke-width="2.63156" stroke-linecap="round" stroke-linejoin="round"/><path id="eXJMDGCsevU13" d="M255.3,861.48C257.58,887.13,365.81,929.64,486.43,930.92C600.08,932.13,712.43,879.58,712.54,862.24" fill="none" stroke="rgb(111,111,111)" stroke-width="1.2799" stroke-linecap="round" stroke-linejoin="round"/><g id="eXJMDGCsevU14" style="isolation:isolate"><path id="eXJMDGCsevU15" d="M307.82,343.91Q307.91,343.46,308.96,338.99Q310.01,334.52,311.46,327.99Q312.92,321.46,314.63,313.94Q316.34,306.42,317.8,299.89Q319.27,293.35,320.3,288.79Q321.33,284.23,321.55,283.79Q323.23,279.68,325.62,284.12C326.25,285.19,326.85,286.34,327.45,287.57L329.17,291.16Q328.75,292.82,327.76,297.09C327.1,299.93,326.35,303.24,325.52,306.99C324.69,310.74,323.81,314.75,322.91,318.99C322.01,323.23,321.14,327.23,320.3,330.99C319.46,334.75,318.74,338.13,318.12,340.99C317.5,343.85,317.12,345.81,316.87,346.93C317.150778,346.976576,317.417411,347.085964,317.65,347.25C317.76696,347.384206,317.958536,347.424967,318.12,347.35C321.231411,345.806187,324.023587,343.689154,326.35,341.11C329.01399,338.022344,331.051844,334.445909,332.35,330.58C333.1388,328.435843,333.806519,326.249064,334.35,324.03C334.9,321.74,335.46,319.44,336.02,317.1C336.620453,313.749467,336.988,310.361351,337.12,306.96C337.361388,302.528018,337.307937,298.084892,336.96,293.66C336.716536,289.704807,336.011757,285.791607,334.86,282Q333.24,277,330,276.56C326.559277,275.514606,322.83492,276.002927,319.78,277.9C316.946305,279.706505,314.589762,282.169384,312.91,285.08C311.927742,286.70091,311.110328,288.41614,310.47,290.2C309.768594,292.251755,309.397308,294.401839,309.37,296.57C309.295958,296.899281,309.245827,297.233486,309.22,297.57C309.19182,297.915862,309.103849,298.254212,308.96,298.57C308.819035,299.005006,308.417212,299.302355,307.96,299.31C307.495209,299.310116,307.056262,299.096176,306.77,298.73Q305.51,296.73,304.48,294.65C303.750371,293.174108,303.15788,291.634304,302.71,290.05C302.304459,288.542371,302.165702,286.975434,302.3,285.42C302.419428,283.945191,302.75641,282.496167,303.3,281.12C304.366524,278.202792,305.758656,275.415174,307.45,272.81C308.977438,270.480358,310.875864,268.416411,313.07,266.7C314.406629,265.642703,315.897224,264.796233,317.49,264.19C319.021871,263.621647,320.611328,263.222606,322.23,263C324.936446,262.581084,327.698046,263.261583,329.9,264.89C332.549583,266.92178,334.709333,269.522366,336.22,272.5C336.77,273.55,337.3,274.65,337.79,275.8C338.28,276.95,338.79,278.15,339.25,279.4C339.71,280.65,340.03,281.82,340.35,282.93C340.67,284.04,340.99,285.22,341.35,286.45C342.185885,289.015631,342.798169,291.648788,343.18,294.32C343.56,296.98,343.82,299.71,343.96,302.49C344.318305,309.710222,344.003614,316.948122,343.02,324.11C342.562808,327.735756,341.895012,331.331834,341.02,334.88C340.18957,338.220071,339.054826,341.477021,337.63,344.61C336.452278,347.135447,334.938573,349.4901,333.13,351.61C330.663542,354.464374,327.820906,356.970604,324.68,359.06C323.559916,359.658517,322.371186,360.118563,321.14,360.43C319.936342,360.724155,318.717975,360.954476,317.49,361.12C317.215984,361.168116,316.938204,361.191543,316.66,361.19C316.339632,361.169847,316.040693,361.022179,315.83,360.78C314.226884,359.920756,312.695302,358.934256,311.25,357.83C309.573049,356.458433,308.223544,354.7297,307.3,352.77C306.67,351.47,306.03,350.22,305.37,349.02C304.71,347.82,304.07,346.56,303.45,345.25C302.889144,344.154269,302.520461,342.970426,302.36,341.75C302.189373,340.554735,302.135786,339.345673,302.2,338.14C302.2,336.44,302.86,335.9,304.2,336.51C305.331445,337.256073,306.144318,338.396947,306.48,339.71Q306.8,340.58,307.11,341.6Z" fill="rgb(228,228,228)" stroke="rgb(196,0,42)" stroke-width="0.5"/><path id="eXJMDGCsevU16" d="M353.84,338.9C353.400638,340.630687,353.155789,342.405001,353.11,344.19Q352.9,347.82,352.9,351.55Q352.9,355.28,353.16,358.35C353.34,360.35,353.6,361.6,353.95,361.98C355.254942,361.8796,356.5056,361.415366,357.56,360.64C359.414856,359.393487,361.076014,357.880587,362.49,356.15C364.588239,353.637205,366.484167,350.962175,368.16,348.15C370.452464,344.275489,372.406376,340.210415,374,336C374.795157,336.823686,375.199257,337.948612,375.11,339.09C375.050666,340.51662,374.801817,341.929008,374.37,343.29C373.935008,344.706519,373.407199,346.092852,372.79,347.44C372.2,348.74,371.79,349.69,371.48,350.28C370.92,351.58,370.03,353.37,368.81,355.63C367.58174,357.890241,366.177399,360.050251,364.61,362.09C363.172963,364.004751,361.437494,365.676068,359.47,367.04C357.940242,368.244815,355.890967,368.559796,354.07,367.87C353.324719,367.580829,352.644739,367.145642,352.07,366.59C350.182053,364.730282,348.505226,362.667784,347.07,360.44C345.486548,357.866016,344.537156,354.952718,344.3,351.94C342.894269,340.190429,344.292459,328.274976,348.38,317.17C349.629145,313.654016,351.355274,310.326254,353.51,307.28C354.653083,305.562459,356.068276,304.042562,357.7,302.78C358.156122,302.442966,358.703267,302.25129,359.27,302.23C359.85242,302.205634,360.431445,302.128654,361,302Q363.31,301.87,365.09,305C366.21,307,367.24,309,368.19,311C369.155303,313.171414,369.827853,315.461447,370.19,317.81C370.536469,319.661943,370.66068,321.548618,370.56,323.43C370.453135,325.2289,370.044082,326.996957,369.35,328.66Q368.19,331.36,366.99,333.89C366.21705,335.517128,365.324607,337.084753,364.32,338.58C362.57,341.5,360.32,342.49,357.5,341.52C356.889849,341.189596,356.310825,340.804695,355.77,340.37ZM363.07,314.42C362.168785,315.45115,361.393344,316.585778,360.76,317.8Q359.5,320.08,358.45,322.38C357.791076,323.816069,357.233057,325.296324,356.78,326.81C356.415567,327.748098,356.27186,328.757468,356.36,329.76C357.180438,330.193286,358.184518,330.065276,358.87,329.44C359.917856,328.610088,360.745501,327.535181,361.28,326.31C362.053941,324.644152,362.58598,322.876301,362.86,321.06C363.214414,318.864826,363.284993,316.633182,363.07,314.42Z" fill="rgb(228,228,228)" stroke="rgb(196,0,42)" stroke-width="0.5"/><path id="eXJMDGCsevU17" d="M386.07,313.41C386.122641,314.493859,386.031855,315.579922,385.8,316.64C385.589346,317.813764,385.291862,318.970275,384.91,320.1C385.33,320.37,385.63,320.35,385.8,320.1C385.97,319.85,386.14,319.55,386.28,319.36Q387.54,317.29,388.75,315.2C389.55,313.82,390.38,312.43,391.22,311.04C391.995513,309.617073,393.010353,308.338376,394.22,307.26C394.926925,306.561803,395.960198,306.308287,396.91,306.6C397.958719,307.094258,398.770625,307.981606,399.17,309.07C400.548976,311.911941,401.712257,314.853571,402.65,317.87C403.584946,321.04725,403.940612,324.366797,403.7,327.67C403.442097,334.186825,402.537659,340.661931,401,347C399.559901,352.78431,397.19621,358.298462,394,363.33C392.8807,365.155293,391.412746,366.742178,389.68,368C388.099364,369.120795,386.364678,370.006664,384.53,370.63C382.43,371.33,380.46,370.63,378.64,368.45C378.08,367.85,377.49,367.21,376.86,366.55L374.86,364.45Q373.6,369.85,372.6,374.4Q371.6,378.95,370.62,383Q369.68,387.08,368.68,391C368.01,393.61,367.3,396.29,366.53,399C365.560812,399.376475,364.4707,399.272654,363.59,398.72C362.594295,397.949293,361.721059,397.032227,361,396C359.662082,394.277366,359.196854,392.032459,359.74,389.92Q360.37,386.68,361.99,379.37Q363.61,372.06,365.69,363Q367.79,353.92,370.04,344.15Q372.29,334.38,374.24,326.15Q376.24,317.91,377.55,312.36Q378.86,306.81,379.13,306.05C379.377229,305.404791,379.732281,304.806275,380.18,304.28Q381.54,302.7,382.7,304.76C383.47,306.13,384.23,307.47,384.96,308.76C385.726701,310.187623,386.109204,311.79,386.07,313.41ZM395.64,314.85C395.477202,314.827153,395.318764,314.779959,395.17,314.71C394.984933,314.638253,394.775823,314.721026,394.69,314.9Q393.85,316.09,393.01,317.09C392.445311,317.777738,391.952728,318.521639,391.54,319.31C388.631096,324.767602,386.08232,330.409648,383.91,336.2Q380.59,345.01,377.91,354.5C377.7,355.22,377.52,355.94,377.38,356.66C377.24,357.38,377.1,358.16,376.96,358.99C377.28624,359.320994,377.583963,359.678931,377.85,360.06C378.100386,360.408684,378.404104,360.715777,378.75,360.97C380.085078,361.575664,381.651379,361.340719,382.75,360.37C388.85,355.74,392.85,348.37,394.75,338.43C395.30891,335.478251,395.696227,332.496582,395.91,329.5Q396.22,325.08,396.44,320.5C396.508078,319.543733,396.491346,318.583316,396.39,317.63C396.264968,316.674058,396.012735,315.739115,395.64,314.85Z" fill="rgb(228,228,228)" stroke="rgb(196,0,42)" stroke-width="0.5"/><path id="eXJMDGCsevU18" d="M418.82,315C419.790562,316.356149,420.064808,318.090566,419.56,319.68C419.42,320.2,419.16,321.39,418.77,323.27C418.38,325.15,417.93,327.38,417.4,329.99C416.87,332.6,416.31,335.46,415.71,338.59C415.11,341.72,414.55,344.82,414.03,347.9C413.51,350.98,413.03,353.9,412.66,356.76C412.308873,359.163604,412.078583,361.583313,411.97,364.01C411.903554,364.545448,411.940901,365.088683,412.08,365.61C412.615299,365.218385,413.093253,364.753894,413.5,364.23C414.192325,363.329864,414.807822,362.373168,415.34,361.37Q416.41,359.48,417.77,356.37C418.68,354.37,419.77,351.77,420.93,348.69C421.15,348.28,421.48,347.51,421.93,346.38C422.38,345.25,422.88,344.1,423.4,342.92C423.92,341.74,424.48,340.65,425.04,339.63C425.42832,338.881438,425.887058,338.171566,426.41,337.51C426.9,337.97,426.99,339.06,426.67,340.79C426.312156,342.690635,425.83793,344.567501,425.25,346.41C424.62,348.41,423.93,350.36,423.19,352.21C422.45,354.06,421.91,355.44,421.56,356.37Q420.39,359.3,419.45,362.24C418.81,364.24,418.11,366.16,417.34,368.1C416.57,370.04,415.93,371.69,415.23,373.32C414.845886,374.382563,414.098529,375.275142,413.12,375.84C412.167166,376.048199,411.170755,375.840916,410.38,375.27C409.86699,374.996906,409.389986,374.660988,408.96,374.27C408.504391,373.85495,408.027051,373.464399,407.53,373.1C405.92,371.67,404.86,369.26,404.37,365.87C403.864499,362.088929,403.723851,358.268003,403.95,354.46C404.184325,350.004977,404.678499,345.56743,405.43,341.17Q406.58,334.17,407.85,328.29Q409.12,322.41,410.17,318.1C410.87,315.25,411.33,313.51,411.54,312.9Q412.06,309.45,413.07,309.06C413.844079,308.838214,414.675671,309.102274,415.18,309.73C416.000721,310.540417,416.707217,311.458861,417.28,312.46C418,313.65,418.47,314.48,418.82,315ZM422.31,306.38C420.379196,304.455569,418.647122,302.341568,417.14,300.07C416.391828,299.109617,416.153468,297.847053,416.5,296.68C417.07,294.93,417.61,293.17,418.14,291.41C418.67,289.65,419.25,287.9,419.88,286.15C420.018023,285.609713,420.409411,285.169868,420.93,284.97C421.43,284.8,421.85,284.97,422.2,285.55C422.996151,286.507202,423.737343,287.508812,424.42,288.55C425.12,289.62,425.82,290.7,426.53,291.82C426.699655,292.172633,426.78848,292.558681,426.79,292.95C426.827929,293.429209,426.773615,293.911246,426.63,294.37Q425.79,297.37,424.84,300.37C424.169626,302.454715,423.323246,304.478668,422.31,306.42Z" fill="rgb(228,228,228)" stroke="rgb(196,0,42)" stroke-width="0.5"/><path id="eXJMDGCsevU19" d="M441.73,340.36C441.123732,340.23274,440.559543,339.954085,440.09,339.55C439.619737,339.134257,439.212172,338.652589,438.88,338.12C437.979056,336.862139,437.635484,335.288939,437.93,333.77C438.07,332.77,438.24,331.77,438.46,330.77C438.68,329.77,438.88,328.84,439.09,327.77C439.226214,327.158823,439.403278,326.557472,439.62,325.97C439.83,325.4,440.04,324.8,440.25,324.18C439.76,323.62,439.35,323.47,439.04,323.71C438.715153,323.966813,438.474799,324.315154,438.35,324.71Q437.18,326.87,435.97,328.86C435.16447,330.181079,434.475213,331.569631,433.91,333.01C432.140264,337.79002,430.866897,342.739399,430.11,347.78C429.523185,351.705603,429.24234,355.670875,429.27,359.64C429.261973,362.276906,429.526715,364.90757,430.06,367.49C430.52,369.38,430.92,370.28,431.28,370.2C432.983596,369.819467,434.529669,368.926026,435.71,367.64C437.145793,366.208304,438.435486,364.637223,439.56,362.95Q441.32,360.34,442.89,357.42C443.31,356.7,444.02,355.42,445,353.56C445.98,351.7,447,349.8,448,347.83C449,345.86,450.34,343.44,452,340.55C452.56,341.21,452.69,342.28,452.37,343.75C452.008377,345.355138,451.513323,346.927269,450.89,348.45C450.265425,350.014991,449.56117,351.546995,448.78,353.04C448.04,354.43,447.56,355.39,447.35,355.91Q445.66,359.31,444.02,362.72C442.967848,364.934788,441.712468,367.047175,440.27,369.03C439.64,369.95,438.97,370.83,438.27,371.69C437.57,372.55,436.83,373.38,436.06,374.17C435.021057,375.343659,433.607553,376.121086,432.06,376.37C430.651319,376.539203,429.22589,376.244287,428,375.53C426.570085,374.671414,425.361134,373.489861,424.47,372.08C423.336953,370.327794,422.546329,368.376685,422.14,366.33C421.308501,362.754477,420.918923,359.090426,420.98,355.42C421.099075,349.098729,421.734523,342.797759,422.88,336.58C423.972872,330.673938,425.891698,324.951123,428.58,319.58C430.105163,316.617986,432.226219,314.003266,434.81,311.9C437.34934,309.870257,440.924876,309.764255,443.58,311.64C444.04458,311.803063,444.448959,312.102862,444.74,312.5C444.858887,312.404855,445.007803,312.355216,445.16,312.36C445.77286,312.16119,446.373843,311.927475,446.96,311.66C447.59,311.38,448.15,311.78,448.65,312.86C449.208175,314.054842,449.650207,315.300571,449.97,316.58C450.280064,317.950566,450.186281,319.381621,449.7,320.7C449.35,321.75,448.96,322.79,448.54,323.83C448.133446,324.835839,447.676194,325.820434,447.17,326.78C446.18256,328.528148,445.317163,330.342474,444.58,332.21C443.799553,334.195897,443.148197,336.230132,442.63,338.3C442.564606,338.680492,442.439746,339.048325,442.26,339.39C442.066065,339.703594,441.889143,340.027396,441.73,340.36Z" fill="rgb(228,228,228)" stroke="rgb(196,0,42)" stroke-width="0.5"/><path id="eXJMDGCsevU20" d="M423.68,283.32C425.08,282.37,426.14,282.82,426.84,284.67C428.140431,287.243315,430.109239,289.419365,432.54,290.97C434.721708,292.347305,437.112935,293.360537,439.62,293.97C441.796002,294.511336,444.027796,294.796603,446.27,294.82C448.27,294.82,449.83,294.82,450.81,294.89C452.01,294.84,453.28,294.89,454.62,294.89C455.888887,294.954828,457.161054,294.901263,458.42,294.73C458.682595,294.127319,458.860937,293.491344,458.95,292.84C459.23,291.58,459.53,290.14,459.85,288.5C460.17,286.86,460.5,285.27,460.85,283.69C461.083117,282.515338,461.400607,281.359008,461.8,280.23C462.016928,279.116123,463.052106,278.354963,464.18,278.48C465.307983,278.551882,466.340368,279.138129,466.98,280.07C467.218859,280.345147,467.429888,280.643268,467.61,280.96C467.655438,281.073656,467.708906,281.183935,467.77,281.29C467.824578,281.389644,467.861777,281.497859,467.88,281.61C468.001329,281.958826,468.158855,282.293987,468.35,282.61C468.505054,283.18303,468.505054,283.78697,468.35,284.36C468.21,285.36,468.03,286.36,467.82,287.53C467.61,288.7,467.4,289.82,467.19,290.93C467.00754,291.789023,466.900466,292.662342,466.87,293.54C467.708289,293.583231,468.543972,293.414719,469.3,293.05C470.659816,292.589522,472.059014,292.254786,473.48,292.05C475.010059,291.818832,476.569701,291.87308,478.08,292.21C479.714225,292.620964,481.07455,293.749666,481.78,295.28C482.241093,296.149849,482.529719,297.100618,482.63,298.08C482.771516,299.214481,482.841654,300.356728,482.84,301.5C482.845018,302.586879,482.77485,303.672804,482.63,304.75C482.530636,305.595497,482.315279,306.423277,481.99,307.21C481.5,308.37,480.86,308.63,480.09,307.98C479.877351,307.877108,479.681743,307.742206,479.51,307.58C479.33,307.42,479.14,307.23,478.93,307.01C477.88911,306.265189,476.657912,305.831668,475.38,305.76C473.766918,305.572682,472.139905,305.535857,470.52,305.65C469.044191,305.744658,467.577084,305.945173,466.13,306.25C464.86,306.53,464.19,306.78,464.13,306.98C463.92,307.83,463.53,309.64,462.97,312.43C462.41,315.22,461.74,318.49,460.97,322.22C460.2,325.95,459.39,329.96,458.54,334.22C457.69,338.48,456.9,342.5,456.16,346.29C455.42,350.08,454.77,353.44,454.21,356.38C453.65,359.32,453.29,361.32,453.15,362.38C453.005236,362.948513,452.93465,363.53337,452.94,364.12C452.94,364.76,452.94,365.61,452.83,366.66C453.732233,365.574298,454.497945,364.38207,455.11,363.11C455.63,361.96,456.18,360.82,456.74,359.68C457.3,358.54,457.85,357.41,458.38,356.32C458.91,355.23,459.45,354.11,460.02,352.96C460.59,351.81,461.02,350.67,461.45,349.52C461.88,348.37,462.45,347.22,462.98,346.07C463.547443,345.015064,464.025773,343.914571,464.41,342.78C464.761853,341.664001,465.356025,340.639567,466.15,339.78C466.59964,340.041139,466.910795,340.487738,467,341C467.067685,341.419925,467.101129,341.844657,467.1,342.27C467.182027,343.33708,467.09427,344.410416,466.84,345.45C466.59,346.39,466.29,347.34,465.94,348.28Q463.51,354.28,460.94,360.28Q458.37,366.28,455.87,372.41C455.20905,374.525803,453.667252,376.253491,451.64,377.15C450.643478,377.626403,449.491947,377.659096,448.47,377.24C447.445817,376.750218,446.58724,375.971589,446,375C445.255126,373.857206,444.720079,372.590702,444.42,371.26C444.065322,369.771024,443.957221,368.233962,444.1,366.71Q444.2,365.93,445.05,361.44Q445.9,356.95,447.17,350.58Q448.43,344.21,449.86,336.96Q451.29,329.71,452.5,323.41Q453.71,317.11,454.5,312.68C454.851567,311.013992,455.06231,309.321353,455.13,307.62L451.54,307.62C449.49,307.62,447.15,307.55,444.54,307.35C441.849044,307.138626,439.175973,306.741007,436.54,306.16C434.272218,305.734247,432.104617,304.886203,430.15,303.66C427.26,302.08,425.4,298.85,424.55,294.02C423.876838,290.494892,423.585157,286.907553,423.68,283.32Z" fill="rgb(228,228,228)" stroke="rgb(196,0,42)" stroke-width="0.5"/><path id="eXJMDGCsevU21" d="M502,362.25C502.7,362.14,503.34,362.05,503.9,361.99C504.46,361.93,505.03,361.89,505.59,361.88C507.14,361.65,508.66,361.49,510.14,361.4C511.62,361.31,513.14,361.2,514.69,361.06C516.447987,360.717711,518.213136,361.616782,518.97,363.24C519.990474,365.219481,520.551066,367.403739,520.61,369.63C520.679991,370.662148,520.679991,371.697852,520.61,372.73C520.54,373.73,520.47,374.73,520.4,375.83C520.4,376.68,520.15,377.22,519.66,377.45C519.423053,377.448947,519.188619,377.401381,518.97,377.31C518.733358,377.221024,518.53053,377.06016,518.39,376.85C517.97,375.7,517.45,375.03,516.86,374.85C516.189206,374.649077,515.489647,374.561209,514.79,374.59Q511.94,374.83,509.08,375.04C507.117019,375.197046,505.190538,375.659267,503.37,376.41C501.782277,377.053128,500.138659,377.548557,498.46,377.89C496.81363,378.216543,495.125589,378.277312,493.46,378.07C491.869938,377.918881,490.611119,376.660062,490.46,375.07C490.11,373.69,489.77,372.31,489.46,370.93C489.15,369.55,488.8,368.18,488.46,366.8C488.397148,366.349321,488.363744,365.895025,488.36,365.44L488.36,364.09C488.42,362.09,489.2,361.29,490.68,361.71C491.022159,361.893611,491.376293,362.053974,491.74,362.19C491.74,361.98,492.02,360.6,492.59,358.06C493.16,355.52,493.84,352.31,494.65,348.43C495.46,344.55,496.36,340.32,497.35,335.7C498.34,331.08,499.27,326.62,500.15,322.32C501.03,318.02,501.82,314.14,502.53,310.69C503.24,307.24,503.73,304.69,504.01,303.12C504.43,300.99,504.78,298.87,505.07,296.74C505.354819,294.471667,505.42513,292.181533,505.28,289.9C504.945486,289.914935,504.610328,289.894825,504.28,289.84C504.03351,289.786164,503.776033,289.817908,503.55,289.93C496.55,292.99,492.37,299.93,490.96,310.83C490.751679,312.571852,490.664802,314.326088,490.7,316.08C490.728439,317.760617,491.029001,319.425524,491.59,321.01C491.729524,321.327948,491.820538,321.665036,491.86,322.01C491.890981,322.346527,491.944434,322.680606,492.02,323.01C492.189802,323.686624,492.093142,324.402624,491.75,325.01C491.48369,325.470299,490.903706,325.641658,490.43,325.4C489.911673,325.256679,489.439546,324.980984,489.06,324.6C488.28,323.96,487.52,323.35,486.78,322.76C485.981139,322.120081,485.253602,321.395896,484.61,320.6Q481.13,316.28,481.76,309.76C482.476052,305.748703,483.560649,301.812021,485,298C486.112559,295.071151,487.449877,292.232694,489,289.51C490.109007,287.564444,491.401559,285.729422,492.86,284.03C494.06,282.71,494.94,281.78,495.51,281.24C496.649256,280.26944,498.032679,279.629607,499.51,279.39C500.877454,279.210292,502.262546,279.210292,503.63,279.39C503.984972,279.393582,504.331676,279.497593,504.63,279.69C504.94,279.9,505.28,280.11,505.63,280.32C506.986738,281.481449,508.210847,282.789401,509.28,284.22C510.422605,285.771788,511.464735,287.395105,512.4,289.08C513.031178,290.230383,513.441571,291.488694,513.61,292.79C513.79,294.11,513.91,295.51,513.98,297Q513.98,297.94,513.14,303.06Q512.3,308.18,511,315.27Q509.68,322.38,508.09,330.44Q506.5,338.5,505.09,345.44Q503.71,352.38,502.82,357.16Q501.93,361.94,502,362.25Z" fill="rgb(228,228,228)" stroke="rgb(196,0,42)" stroke-width="0.5"/><path id="eXJMDGCsevU22" d="M538,316.88C538.979517,318.19051,539.255897,319.897344,538.74,321.45C538.59,321.99,538.33,323.22,537.94,325.15C537.55,327.08,537.1,329.38,536.57,332.06C536.04,334.74,535.48,337.68,534.88,340.89C534.28,344.1,533.72,347.28,533.19,350.43C532.66,353.58,532.19,356.6,531.81,359.48C531.43,362.36,531.2,364.81,531.13,366.83C531.06384,367.358274,531.097765,367.894283,531.23,368.41C531.770497,367.948579,532.250921,367.421121,532.66,366.84C533.351308,365.849593,533.969608,364.81018,534.51,363.73Q535.56,361.73,536.94,358.44Q538.32,355.15,540.11,350.32C540.32,349.88,540.65,349.07,541.11,347.87C541.57,346.67,542.11,345.46,542.59,344.21C543.07,342.96,543.66,341.79,544.23,340.7C544.61615,339.890304,545.074682,339.117159,545.6,338.39Q546.34,338.97,545.87,341.63C545.500657,343.591516,545.023264,345.531136,544.44,347.44C543.81,349.55,543.12,351.57,542.38,353.52C541.64,355.47,541.09,356.94,540.74,357.91C539.97,359.97,539.26,362.02,538.63,364.07C538,366.12,537.29,368.17,536.52,370.22C535.75,372.27,535.11,374.01,534.4,375.74C534.003526,376.86928,533.266266,377.847635,532.29,378.54C531.390123,378.885006,530.38388,378.815484,529.54,378.35C529.031371,378.142939,528.553577,377.867029,528.12,377.53C527.663142,377.1692,527.185668,376.835302,526.69,376.53Q524.26,374.72,523.52,369.73C523.002477,365.970085,522.861779,362.167881,523.1,358.38C523.339596,353.859564,523.830353,349.355946,524.57,344.89Q525.74,337.77,527.01,331.68Q528.28,325.59,529.33,321.16C530.03,318.22,530.49,316.42,530.7,315.78C531.06,313.43,531.57,312.08,532.24,311.73C532.951224,311.385008,533.803821,311.538556,534.35,312.11C535.175957,312.808642,535.887852,313.631876,536.46,314.55C537.17,315.6,537.68,316.37,538,316.88ZM541.48,307.78C539.551759,306.113487,537.817481,304.234965,536.31,302.18C535.551286,301.259503,535.31039,300.017384,535.67,298.88C536.24,297.05,536.78,295.22,537.31,293.39C537.84,291.56,538.42,289.72,539.05,287.89C539.201104,287.317593,539.58573,286.834996,540.11,286.56C540.330282,286.43853,540.590695,286.412557,540.830629,286.488127C541.070563,286.563697,541.269089,286.734217,541.38,286.96C542.173434,287.794402,542.911664,288.67961,543.59,289.61C544.3,290.61,545,291.61,545.71,292.61C545.882185,292.947461,545.971322,293.321152,545.97,293.7C546.011823,294.185851,545.957453,294.67518,545.81,295.14Q544.97,298.22,544.02,301.38C543.356323,303.575777,542.520394,305.715753,541.52,307.78Z" fill="rgb(228,228,228)" stroke="rgb(196,0,42)" stroke-width="0.5"/><path id="eXJMDGCsevU23" d="M554.72,332.05Q556.41,327.64,557.99,323.14Q559.57,318.64,561.26,314.22C561.675359,313.047164,562.243592,311.934234,562.95,310.91C563.401432,310.135753,564.175384,309.60389,565.06,309.46C565.896653,309.444166,566.654717,309.950871,566.96,310.73C567.52,311.85,568.05,312.96,568.54,314.09C569.039483,315.241278,569.463708,316.423764,569.81,317.63C569.953422,318.442515,569.970289,319.272328,569.86,320.09C569.75,321,569.63,321.89,569.49,322.75C569.35,323.61,569.14,324.95,568.86,326.46C568.58,327.97,568.29,329.46,568.01,330.99C567.73,332.52,567.52,333.81,567.38,334.94C567.253266,335.649263,567.219649,336.372035,567.28,337.09C567.35,336.88,567.87,335.59,568.86,333.22C569.85,330.85,570.93,328.22,572.13,325.22C573.33,322.22,574.5,319.41,575.66,316.7C576.82,313.99,577.66,312.19,578.03,311.3C578.72719,309.75207,579.650616,308.316379,580.77,307.04C582.45,304.96,583.93,305.28,585.19,308.04C586.781694,311.830552,587.186167,316.014755,586.35,320.04C586.211488,321.211811,586.001091,322.374001,585.72,323.52Q585.3,325.24,584.88,327.03L582.3,337.32Q580.77,343.32,579.35,349.16C578.35,353.01,577.55,356.44,576.82,359.42C576.09,362.4,575.67,364.17,575.61,364.71Q576.76,362.85,578.34,359.71C579.4,357.64,580.51,355.39,581.66,352.93C582.81,350.47,584,347.93,585.19,345.25C586.38,342.57,587.54,340.04,588.67,337.63C589.8,335.22,590.81,333.01,591.72,331C592.63,328.99,593.4,327.41,594.03,326.28C594.59,326.43,594.58,327.65,594.03,329.94C593.48,332.23,592.5,335.1,591.24,338.53C589.98,341.96,588.52,345.68,586.87,349.68C585.22,353.68,583.64,357.4,582.14,360.84C580.64,364.28,579.34,367.17,578.29,369.5C577.24,371.83,576.67,373.05,576.6,373.16C575.83,374.72,574.78,375.41,573.44,375.22C572.470233,375.064412,571.570556,374.618061,570.86,373.94C570.031049,373.200089,569.334391,372.324193,568.8,371.35C568.223481,370.289508,567.815277,369.145861,567.59,367.96C567.341491,366.705733,567.287526,365.420687,567.43,364.15Q567.64,362.23,568.54,358.09C569.14,355.34,569.82,352.33,570.6,349.09C571.38,345.85,572.18,342.58,573.02,339.32C573.86,336.06,574.56,333.24,575.13,330.85C575.27,330.2,575.39,329.56,575.5,328.91C575.587361,328.169233,575.587361,327.420767,575.5,326.68C575.43,326.79,575.13,327.59,574.6,329.07C574.07,330.55,573.41,332.47,572.6,334.82C571.79,337.17,570.88,339.82,569.86,342.71C568.84,345.6,567.86,348.59,566.86,351.63C565.86,354.67,564.99,357.68,564.11,360.63C563.23,363.58,562.51,366.17,561.95,368.44C561.74,369.2,561.53,369.93,561.32,370.64C561.11,371.35,560.86,372.08,560.58,372.84Q559,376.89,556.2,375C555.771597,374.718391,555.381657,374.382235,555.04,374C554.68,373.61,554.3,373.21,553.88,372.82C552.655489,371.596982,552.036499,369.893844,552.19,368.17C552.113502,366.329258,552.20051,364.485359,552.45,362.66Q552.83,360.02,553.35,357.27C553.56,355.88,553.88,354.21,554.3,352.27C554.72,350.33,555.11,348.48,555.46,346.71C555.81,344.94,556.13,343.4,556.41,342.1C556.69,340.8,556.83,340.1,556.83,340C555.92,342.62,555.07,345,554.3,347.11L551.66,354.29C550.66,356.96,549.71,359.62,548.76,362.29L546.06,369.85Q544.8,373.44,544.06,375.7C543.13504,375.538157,542.263321,375.153776,541.52,374.58C540.75,373.98,539.97,373.34,539.2,372.64C537.37,370.94,536.66,368.37,537.09,364.96C537.16,364.32,537.45,362.66,537.98,359.96C538.51,357.26,539.15,354.18,539.89,350.64C540.63,347.1,541.42,343.29,542.26,339.21C543.1,335.13,543.88,331.36,544.59,327.87C545.3,324.38,545.91,321.4,546.43,318.93C546.95,316.46,547.26,314.93,547.33,314.42C547.381788,312.951561,547.976904,311.554642,549,310.5C549.77,309.71,550.41,309.72,550.9,310.5C551.46,311.63,552.04,312.83,552.64,314.11L554.39,317.88C554.537442,318.257438,554.625161,318.655548,554.65,319.06C554.695657,319.508842,554.695657,319.961158,554.65,320.41C554.58,320.95,554.4,321.97,554.12,323.47C553.84,324.97,553.52,326.67,553.12,328.55L552.06,334.11C551.71,335.94,551.43,337.33,551.22,338.3C551.15,338.62,551.04,339.13,550.9,339.83C550.76,340.53,550.6,341.26,550.43,342.01C550.216122,342.963607,550.055871,343.928454,549.95,344.9C550.104283,344.317492,550.298065,343.74617,550.53,343.19L551.9,339.6C552.43,338.24,552.9,336.85,553.44,335.44C553.98,334.03,554.37,332.93,554.72,332.05Z" fill="rgb(228,228,228)" stroke="rgb(196,0,42)" stroke-width="0.5"/><path id="eXJMDGCsevU24" d="M600.13,311.34C601.122486,312.625746,601.400664,314.324889,600.87,315.86C600.73,316.41,600.46,317.66,600.08,319.62C599.7,321.58,599.24,323.91,598.71,326.62C598.18,329.33,597.63,332.32,597.03,335.57C596.43,338.82,595.87,342.04,595.35,345.23C594.83,348.42,594.35,351.47,593.98,354.38C593.61,357.29,593.37,359.75,593.3,361.77C593.233359,362.298259,593.267289,362.834358,593.4,363.35C593.939596,362.849548,594.41642,362.285418,594.82,361.67C595.51134,360.636202,596.126307,359.553326,596.66,358.43Q597.71,356.31,599.08,352.97Q600.45,349.63,602.24,344.62Q602.56,343.95,603.24,342.1C603.7,340.88,604.19,339.62,604.72,338.34C605.25,337.06,605.78,335.84,606.34,334.7C606.73368,333.862459,607.19172,333.05671,607.71,332.29C608.2,332.65,608.29,333.73,607.97,335.52C607.606645,337.513927,607.13596,339.486796,606.56,341.43Q605.56,344.65,604.56,347.66Q603.56,350.67,602.93,352.17C602.15,354.28,601.46,356.39,600.82,358.48C600.18,360.57,599.49,362.68,598.72,364.78C597.95,366.88,597.32,368.67,596.62,370.45C596.224932,371.6347,595.491377,372.67767,594.51,373.45C593.645028,373.854849,592.644972,373.854849,591.78,373.45C591.271874,373.29047,590.792499,373.050783,590.36,372.74C589.904559,372.42176,589.430367,372.131234,588.94,371.87Q586.51,370.24,585.78,365.3C585.270974,361.54941,585.130303,357.757999,585.36,353.98C585.601974,349.42328,586.092705,344.883182,586.83,340.38Q587.98,333.18,589.25,327C590.1,322.87,590.87,319.32,591.57,316.32C592.27,313.32,592.73,311.49,592.94,310.83C593.29,308.46,593.79,307.08,594.46,306.68C595.135708,306.283757,595.990566,306.372889,596.57,306.9C597.389341,307.54463,598.098571,308.318027,598.67,309.19C599.27,310.13,599.78,310.86,600.13,311.34ZM603.6,302C601.681767,300.46733,599.952922,298.711629,598.45,296.77C597.691206,295.865002,597.453034,294.632553,597.82,293.51Q598.66,290.7,599.45,287.9C599.98,286.03,600.55,284.16,601.18,282.27C601.336253,281.682474,601.716882,281.179756,602.24,280.87C602.444414,280.730035,602.698804,280.683855,602.939371,280.743042C603.179937,280.802229,603.383861,280.961169,603.5,281.18C604.294214,281.957719,605.02957,282.793351,605.7,283.68C606.4,284.59,607.1,285.53,607.81,286.5C607.98517,286.832762,608.074536,287.203975,608.07,287.58C608.105999,288.069055,608.051763,288.56056,607.91,289.03Q607.07,292.17,606.12,295.39C605.446349,297.653207,604.603989,299.862731,603.6,302Z" fill="rgb(228,228,228)" stroke="rgb(196,0,42)" stroke-width="0.5"/><path id="eXJMDGCsevU25" d="M579.82,281.53C581.22,280.33,582.28,280.59,582.98,282.32C584.260673,284.636763,586.251868,286.480721,588.66,287.58C590.890579,288.575283,593.281978,289.161277,595.72,289.31C597.932729,289.457604,600.155171,289.340103,602.34,288.96C604.34,288.6,605.88,288.35,606.86,288.21C608.05,287.95,609.31,287.73,610.64,287.54C611.92207,287.370681,613.186884,287.089612,614.42,286.7C614.674029,286.056963,614.848652,285.385334,614.94,284.7Q615.36,282.7,615.84,280.2C616.15,278.52,616.48,276.85,616.84,275.2C617.083258,273.968684,617.4005,272.753148,617.79,271.56C618.018559,270.39901,618.973949,269.520537,620.15,269.39C621.204512,269.23359,622.262819,269.648538,622.93,270.48C623.17236,270.71211,623.384074,270.974232,623.56,271.26C623.605048,271.359149,623.655113,271.45594,623.71,271.55C623.762509,271.643458,623.79965,271.74475,623.82,271.85C623.932054,272.202534,624.090081,272.538763,624.29,272.85C624.446997,273.42277,624.446997,274.02723,624.29,274.6C624.15,275.6,623.98,276.67,623.77,277.86C623.56,279.05,623.35,280.23,623.14,281.38C622.957939,282.259336,622.850887,283.152546,622.82,284.05C623.682769,283.924114,624.506317,283.606313,625.23,283.12C626.558639,282.419191,627.943444,281.830481,629.37,281.36C630.834914,280.854965,632.382008,280.631043,633.93,280.7C635.49428,280.779157,636.893867,281.696919,637.59,283.1C638.055886,283.909665,638.342352,284.809987,638.43,285.74C638.572146,286.864373,638.642289,287.99668,638.64,289.13C638.643977,290.230139,638.573818,291.329295,638.43,292.42C638.328169,293.299618,638.116521,294.16301,637.8,294.99C637.31,296.24,636.68,296.61,635.92,296.11C635.710886,296.039379,635.514903,295.934629,635.34,295.8C635.17,295.67,634.98,295.52,634.77,295.34C633.692309,294.775407,632.464988,294.562112,631.26,294.73C629.632258,294.830593,628.018069,295.088462,626.44,295.5C624.959892,295.859067,623.506417,296.320169,622.09,296.88C620.83,297.39,620.16,297.75,620.09,297.97C619.88,298.86,619.49,300.74,618.93,303.63C618.37,306.52,617.71,309.91,616.93,313.78C616.15,317.65,615.35,321.78,614.51,326.21C613.67,330.64,612.89,334.79,612.15,338.71C611.41,342.63,610.77,346.11,610.21,349.15C609.65,352.19,609.3,354.26,609.16,355.34C609.015927,355.922233,608.945378,356.520224,608.95,357.12C608.95,357.75,608.95,358.61,608.85,359.68C609.7342,358.42673,610.48811,357.086445,611.1,355.68C611.63,354.44,612.17,353.2,612.73,351.95C613.29,350.7,613.83,349.49,614.36,348.31C614.89,347.13,615.42,345.9,615.98,344.65C616.54,343.4,616.98,342.19,617.4,340.95C617.82,339.71,618.4,338.48,618.92,337.23C619.481471,336.083855,619.956138,334.897189,620.34,333.68C620.707132,332.488371,621.293885,331.375915,622.07,330.4C622.5022,330.568291,622.818836,330.945239,622.91,331.4C622.978451,331.81311,623.011903,332.231262,623.01,332.65C623.084803,333.730296,622.997162,334.815701,622.75,335.87C622.5,336.87,622.21,337.87,621.86,338.87Q619.44,345.27,616.93,351.76Q614.42,358.25,611.93,364.76C611.240155,367.042997,609.748566,368.999821,607.73,370.27C606.812829,370.907758,605.674707,371.142609,604.58,370.92C603.558747,370.654562,602.663248,370.038686,602.05,369.18C601.301844,368.142512,600.768102,366.96624,600.48,365.72C600.121863,364.251936,600.013682,362.734016,600.16,361.23Q600.27,360.42,601.16,355.79Q602.05,351.16,603.26,344.55Q604.52,337.94,605.94,330.44Q607.36,322.94,608.57,316.44Q609.77,309.92,610.51,305.36C610.858781,303.656428,611.069466,301.927479,611.14,300.19C610.79,300.19,609.6,300.45,607.57,300.83C605.54,301.21,603.21,301.54,600.57,301.83C597.913087,302.109624,595.239188,302.193184,592.57,302.08C590.37525,302.083988,588.204453,301.623929,586.2,300.73C583.32,299.67,581.46,296.78,580.62,292.1C579.959965,288.617528,579.691629,285.072143,579.82,281.53Z" fill="rgb(228,228,228)" stroke="rgb(196,0,42)" stroke-width="0.5"/><path id="eXJMDGCsevU26" d="M628,339.2C627.564275,341.009677,627.316297,342.859457,627.26,344.72Q627.05,348.41,627.05,352.15Q627.05,355.89,627.32,358.86C627.49,360.86,627.75,361.98,628.1,362.24C629.473684,361.683683,630.70918,360.833854,631.72,359.75C633.571901,357.911674,635.221331,355.880059,636.64,353.69C638.718895,350.541902,640.602442,347.269072,642.28,343.89C644.534753,339.363071,646.472739,334.685175,648.08,329.89C648.920755,330.532988,649.342752,331.584144,649.18,332.63C649.120126,334.127826,648.874925,335.612465,648.45,337.05C648.011104,338.630515,647.487005,340.186122,646.88,341.71C646.29,343.2,645.88,344.28,645.58,344.97C645.02,346.45,644.13,348.51,642.91,351.17C641.674702,353.851649,640.278836,356.456375,638.73,358.97C637.285511,361.357992,635.56354,363.566679,633.6,365.55Q630.83,368.31,628.21,368.09C627.498233,368.058588,626.807773,367.837641,626.21,367.45C624.318136,366.19696,622.631521,364.658767,621.21,362.89C619.560618,360.675154,618.594357,358.026626,618.43,355.27C617.649023,348.677077,617.736435,342.010181,618.69,335.44C619.484361,329.927415,620.766049,324.496139,622.52,319.21C623.816858,315.195841,625.536508,311.330817,627.65,307.68C628.812161,305.575343,630.218547,303.615131,631.84,301.84C632.276138,301.374528,632.813247,301.015314,633.41,300.79C633.989735,300.582773,634.551599,300.328597,635.09,300.03C636.62,299.46,637.98,300.03,639.17,301.73C640.291463,303.33638,641.31982,305.00579,642.25,306.73C643.248203,308.656958,643.923825,310.734496,644.25,312.88C644.595909,314.691546,644.720155,316.538446,644.62,318.38C644.490423,320.301025,644.086318,322.193582,643.42,324Q642.26,327.07,641.06,330C640.278252,331.898481,639.390178,333.751416,638.4,335.55Q635.78,340.77,631.59,340.66C630.995325,340.527426,630.418106,340.326071,629.87,340.06ZM637.21,311.77C636.32406,313.076775,635.554445,314.458737,634.91,315.9Q633.65,318.57,632.61,321.21C631.955176,322.84329,631.39426,324.51268,630.93,326.21C630.570595,327.198103,630.427372,328.251815,630.51,329.3C631.28,329.49,632.12,329.12,633.02,328.17C634.052954,327.030489,634.869626,325.712292,635.43,324.28C636.180764,322.432801,636.707842,320.502418,637,318.53C637.3381,316.292422,637.39186,314.021068,637.16,311.77Z" fill="rgb(228,228,228)" stroke="rgb(196,0,42)" stroke-width="0.5"/><path id="eXJMDGCsevU27" d="M666.39,300.11C666.6,299.11,666.82,298.19,667.07,297.35C667.310668,296.498602,667.500997,295.633772,667.64,294.76Q669.52,286.59,671.34,278.49Q673.16,270.39,674.92,262.06C675.27,260.61,675.76,259.71,676.38,259.37C677,259.03,677.66,259.3,678.38,260.21C679.28,261.5,679.99,262.5,680.51,263.21C681.009147,263.90185,681.331824,264.70511,681.45,265.55C681.544229,266.550521,681.507249,267.559067,681.34,268.55C681.17,269.76,680.88,271.36,680.46,273.36Q679.64,277.21,678.38,282.88Q677.12,288.55,675.68,295.4Q674.22,302.22,672.77,309.69Q671.32,317.16,670,324.48Q668.74,331.74,667.91,338.42C667.397648,342.334761,667.087237,346.27331,666.98,350.22C667.025267,350.636023,667.129652,351.043461,667.29,351.43C668.072117,350.716467,668.707342,349.857046,669.16,348.9C669.65,347.9,670.16,346.81,670.62,345.65C672.01,342.08,673.36,338.55,674.68,335.09C676,331.63,677.34,328.09,678.68,324.51C679.03,323.51,679.41,323.4,679.82,324.26C680.236842,325.403142,680.201068,326.662367,679.72,327.78Q678.06,332.45,676.5,337.15Q674.94,341.85,673.27,346.51C672.65,348.13,672.03,349.74,671.4,351.36C670.77,352.98,670.19,354.58,669.63,356.18C669.322011,357.190322,668.728102,358.089869,667.92,358.77C667.297284,359.210181,666.540307,359.41888,665.78,359.36C664.152523,359.249674,662.661285,358.41223,661.72,357.08C660.511044,355.40532,659.787817,353.429423,659.63,351.37C659.56,350.54,659.51,349.75,659.48,349.02C659.45,348.29,659.42,347.49,659.42,346.64C659.370991,345.957545,659.370991,345.272455,659.42,344.59C659.42,343.94,659.42,343.2,659.42,342.35C659.286101,342.273396,659.124339,342.262888,658.981654,342.321526C658.83897,342.380163,658.731341,342.50138,658.69,342.65C658.56,343,658.42,343.4,658.28,343.85Q657.65,346.19,657.03,348.62Q656.41,351.05,655.67,353.41C655.18,354.99,654.67,356.49,654.21,357.91C653.75,359.33,653.21,360.77,652.64,362.26C652.475284,362.979674,652.095043,363.632014,651.55,364.13C651.123206,364.472381,650.565022,364.604583,650.03,364.49C647.752085,364.263257,645.627287,363.239813,644.03,361.6C643.45815,360.927697,643.062902,360.123453,642.88,359.26C642.67,358.34,642.49,357.36,642.35,356.33C642.21,355.3,642.35,353.33,642.41,350.91C642.47,348.49,642.74,345.61,643.09,342.37C643.44,339.13,643.92,335.65,644.55,331.93C645.18,328.21,645.94,324.5,646.85,320.78C647.774779,317.126454,648.903209,313.527498,650.23,310C651.370295,306.772853,652.802911,303.65658,654.51,300.69Q659.2,295.02,663.89,298.21C664.309269,298.442829,664.710403,298.70691,665.09,299C665.47,299.32,665.9,299.68,666.39,300.11ZM650.12,353.84C650.324515,353.772122,650.545485,353.772122,650.75,353.84Q651.07,352.98,651.38,352.22C651.58,351.7,651.79,351.16,652,350.59Q654.4,342.98,656.75,335.59L661.49,320.75C662.193307,318.579162,662.767642,316.368638,663.21,314.13C663.67,311.87,664.1,309.63,664.52,307.43C664.654538,307.151833,664.672535,306.831485,664.57,306.54C664.451451,306.110379,664.397526,305.665502,664.41,305.22C663.245596,305.663907,662.196249,306.364611,661.34,307.27C660.369693,308.321213,659.545598,309.498491,658.89,310.77C657.213673,314.063553,655.873567,317.517675,654.89,321.08C653.91636,324.406315,653.148243,327.78937,652.59,331.21Q651.75,336.3,650.81,341.4C650.52728,342.960745,650.336949,344.53682,650.24,346.12C650.13,347.73,650.01,349.29,649.87,350.8Q649.87,351.59,649.93,352.3C650,352.83,650.05,353.32,650.12,353.84Z" fill="rgb(228,228,228)" stroke="rgb(196,0,42)" stroke-width="0.5"/></g><g id="eXJMDGCsevU28" style="isolation:isolate"><path id="eXJMDGCsevU29" d="M415.27,408.33C414.535727,408.513725,413.785719,408.627565,413.03,408.67C412.253103,408.719805,411.473303,408.699724,410.7,408.61C409.956993,408.524963,409.2258,408.357258,408.52,408.11C407.870858,407.860602,407.258595,407.524194,406.7,407.11C404.438719,405.494938,403.094702,402.888811,403.09,400.11C403.077686,399.080997,403.275028,398.060261,403.67,397.11C404.035861,396.227289,404.612727,395.447833,405.35,394.84C406.047255,394.256781,406.867912,393.839613,407.75,393.62C408.760622,393.39389,409.803033,393.346508,410.83,393.48C411.575383,393.563479,412.311705,393.71409,413.03,393.93C413.798136,394.153155,414.547191,394.437394,415.27,394.78L415.27,398.42L413.68,398.25C413.53,397.45,413.39,396.66,413.24,395.87L412.94,395.46C412.657449,395.328459,412.366871,395.214899,412.07,395.12C411.793216,395.032417,411.508526,394.97213,411.22,394.94C409.88814,394.701201,408.527291,395.166158,407.62,396.17C406.651806,397.401077,406.174377,398.947376,406.28,400.51C406.204927,402.200419,406.693896,403.867838,407.67,405.25C408.597898,406.458663,409.991713,407.220905,411.51,407.35C411.709705,407.365368,411.910295,407.365368,412.11,407.35C412.351085,407.339649,412.591436,407.316282,412.83,407.28L413.16,406.99C413.33,406.13,413.5,405.27,413.68,404.41L415.27,404.59Z" fill="rgb(228,228,228)" stroke="none" stroke-width="1"/><path id="eXJMDGCsevU30" d="M421.17,402.06C421.150157,400.979417,421.343861,399.905548,421.74,398.9C422.098252,398.004574,422.675975,397.213643,423.42,396.6C424.092744,396.038962,424.876573,395.6266,425.72,395.39C426.629603,395.151841,427.574312,395.077348,428.51,395.17C429.408515,395.24308,430.289602,395.459132,431.12,395.81C431.930229,396.169468,432.674001,396.663062,433.32,397.27C434.144675,398.050618,434.798449,398.993823,435.24,400.04C435.685681,401.128134,435.910051,402.294174,435.9,403.47C435.918681,404.545879,435.717931,405.614281,435.31,406.61C434.928772,407.53112,434.332064,408.347306,433.57,408.99C432.909858,409.554212,432.140524,409.976324,431.31,410.23C430.452639,410.49152,429.552487,410.583234,428.66,410.5C426.574256,410.380993,424.621132,409.438602,423.23,407.88C421.839019,406.266257,421.103935,404.189467,421.17,402.06ZM428.56,396.57C427.371506,396.435376,426.209302,396.985486,425.56,397.99C424.728978,399.31201,424.333746,400.861462,424.43,402.42C424.359189,404.071099,424.750532,405.7092,425.56,407.15C426.157138,408.281367,427.285993,409.033937,428.56,409.15C429.753462,409.285374,430.919128,408.725854,431.56,407.71C432.385452,406.385606,432.780223,404.837963,432.69,403.28C432.762462,401.628031,432.378411,399.98803,431.58,398.54C430.977233,397.409385,429.837653,396.666017,428.56,396.57Z" fill="rgb(228,228,228)" stroke="none" stroke-width="1"/><path id="eXJMDGCsevU31" d="M441.44,411.13L441.44,410.08L442.73,409.99L443.13,409.62L443.13,398.08L442.82,397.75L441.44,397.56L441.44,396.49L446.44,396.81L446.44,397.39Q449.79,402.78,453.13,408.12L453.13,398.77L452.73,398.34L451.4,398.14L451.4,397.08L456.4,397.32L456.4,398.38L455.11,398.45L454.74,398.85L454.74,411.85L452.29,411.73Q448.51,405.73,444.74,399.59L444.74,409.69C444.85,409.83,444.97,409.96,445.09,410.1L446.44,410.37L446.44,411.37Z" fill="rgb(228,228,228)" stroke="none" stroke-width="1"/><path id="eXJMDGCsevU32" d="M468,397.72C470.118449,397.637875,472.190972,398.351308,473.81,399.72C475.24511,401.158683,475.998163,403.141358,475.88,405.17C475.899518,406.33896,475.667617,407.498467,475.2,408.57C474.751881,409.554087,474.064266,410.410168,473.2,411.06C472.554857,411.529423,471.824665,411.869048,471.05,412.06C470.06524,412.274648,469.057005,412.362028,468.05,412.32C465.92,412.26,463.8,412.2,461.67,412.12L461.67,411.05L463,410.98L463.36,410.65L463.36,399.12L463,398.75L461.67,398.6L461.67,397.52C463.73,397.6,465.85,397.67,468,397.72ZM466.19,398.9L466.19,411.08L467.46,411.08C468.903384,411.232541,470.336066,410.708209,471.34,409.66C472.292898,408.339392,472.746458,406.723585,472.62,405.1C472.741201,403.461359,472.288682,401.831581,471.34,400.49C470.343938,399.413402,468.925405,398.82844,467.46,398.89Z" fill="rgb(228,228,228)" stroke="none" stroke-width="1"/><path id="eXJMDGCsevU33" d="M481.46,412.57L481.46,411.5L482.8,411.39L483.15,411.05L483.15,399.42L482.8,399.11L481.46,399L481.46,397.93C485.14,397.93,488.81,397.93,492.46,397.93L492.46,401.35L491,401.35C490.88,400.71,490.75,400.08,490.63,399.44L490.39,399.15L486.02,399.15L486.02,404.35L488.87,404.35L489.16,404.04C489.24,403.52,489.31,403.04,489.39,402.47L490.68,402.47L490.68,407.53L489.39,407.53C489.31,407.01,489.24,406.53,489.16,405.96L488.87,405.66L486,405.66L486,411.33L491.1,411.33L491.35,410.98L491.71,408.66L493.21,408.66L493.21,412.56C489.29,412.57,485.37,412.59,481.46,412.57Z" fill="rgb(228,228,228)" stroke="none" stroke-width="1"/><path id="eXJMDGCsevU34" d="M498.65,412.43L498.65,411.43L499.94,411.22L500.33,410.82L500.33,399.24L500.02,398.94L498.65,398.86L498.65,397.8L503.65,397.67L503.65,398.26L510.34,408.4L510.34,399.06L509.94,398.66L508.61,398.58L508.61,397.51C510.27,397.45,511.93,397.39,513.61,397.31L513.61,398.38L512.32,398.56L511.95,398.99L511.95,411.99L509.51,412.09Q505.73,406.36,501.94,400.61L501.94,410.71C502.06,410.84,502.18,410.96,502.29,411.09L503.65,411.24L503.65,412.24Z" fill="rgb(228,228,228)" stroke="none" stroke-width="1"/><path id="eXJMDGCsevU35" d="M519.47,411.18L519.47,407.23L521.13,407.14C521.24,408.01,521.36,408.88,521.48,409.74L521.76,410.06C522.088345,410.142871,522.422715,410.199714,522.76,410.23C523.092781,410.257145,523.427219,410.257145,523.76,410.23C524.497043,410.219784,525.212967,409.982307,525.81,409.55C526.301039,409.182783,526.587155,408.60312,526.58,407.99C526.587569,407.459158,526.394749,406.944973,526.04,406.55C525.524827,406.045326,524.912423,405.650666,524.24,405.39L523.63,405.13C522.831866,404.838895,522.078005,404.438406,521.39,403.94C520.918895,403.582372,520.532963,403.124718,520.26,402.6C519.997091,402.122114,519.85948,401.585432,519.86,401.04C519.84522,399.821877,520.372893,398.660263,521.3,397.87C522.332662,396.976265,523.644637,396.470571,525.01,396.44C525.677131,396.400926,526.346411,396.421004,527.01,396.5C527.716755,396.584022,528.415653,396.72447,529.1,396.92L529.1,400.46L527.53,400.56C527.4,399.81,527.28,399.07,527.16,398.32C527.06,398.22,526.96,398.12,526.85,398.03C526.629314,397.926925,526.392516,397.862651,526.15,397.84C525.8508,397.809025,525.5492,397.809025,525.25,397.84C524.569692,397.852414,523.913811,398.095725,523.39,398.53C522.569961,399.218557,522.437713,400.430825,523.09,401.28C523.472952,401.704096,523.939359,402.044538,524.46,402.28C524.882651,402.48471,525.316698,402.665006,525.76,402.82C526.38438,403.048252,526.989621,403.325793,527.57,403.65C528.149368,403.977001,528.640223,404.440395,529,405C529.337193,405.535835,529.514148,406.156911,529.51,406.79C529.526746,408.089688,528.939368,409.323552,527.92,410.13C526.724269,411.080466,525.247309,411.607952,523.72,411.63C523.006243,411.66984,522.290403,411.64977,521.58,411.57C520.866057,411.505986,520.159655,411.375419,519.47,411.18Z" fill="rgb(228,228,228)" stroke="none" stroke-width="1"/><path id="eXJMDGCsevU36" d="M535.42,410.62L535.42,409.56L536.75,409.34C536.86,409.21,536.98,409.09,537.1,408.97L537.1,397.34L536.75,397.06L535.42,397.06L535.42,396C539.08,395.71,542.75,395.4,546.42,395.05L546.42,398.47L544.91,398.61C544.79,397.99,544.66,397.36,544.54,396.73L544.3,396.46C542.85,396.6,541.39,396.72,539.94,396.85L539.94,402L542.78,401.76L543.08,401.42C543.15,400.89,543.23,400.37,543.3,399.84L544.59,399.72L544.59,404.78L543.3,404.9C543.23,404.38,543.15,403.9,543.08,403.34L542.78,403.07L539.94,403.32L539.94,409C541.64,408.86,543.33,408.71,545.03,408.55L545.28,408.18C545.4,407.4,545.52,406.61,545.63,405.83L547.13,405.69L547.13,409.6Q541.27,410.17,535.42,410.62Z" fill="rgb(228,228,228)" stroke="none" stroke-width="1"/><path id="eXJMDGCsevU37" d="M559,393.73C561.48,393.45,563.41,393.85,564.78,394.96C566.213317,396.275053,566.952632,398.182486,566.78,400.12C566.796572,401.320052,566.568607,402.510911,566.11,403.62C565.654501,404.678809,564.971706,405.624481,564.11,406.39C563.478936,406.946176,562.754433,407.386294,561.97,407.69C561.001357,408.037765,559.993922,408.266117,558.97,408.37L552.61,409.06L552.61,408L553.94,407.74C554.06,407.61,554.18,407.49,554.29,407.36L554.29,395.78L553.94,395.47L552.61,395.47L552.61,394.4C554.73,394.21,556.85,394,559,393.73ZM557.19,395.16L557.19,407.35L558.46,407.2C559.971745,407.109712,561.3744,406.382948,562.32,405.2C563.25304,403.802639,563.699408,402.136666,563.59,400.46C563.59,398.41,563.17,396.94,562.32,396.04C561.285397,395.074365,559.842662,394.678174,558.46,394.98Z" fill="rgb(228,228,228)" stroke="none" stroke-width="1"/></g><g id="eXJMDGCsevU38" style="isolation:isolate"><g id="eXJMDGCsevU39" style="isolation:isolate"><path id="eXJMDGCsevU40" d="M356,867.59L356,848.5Q360.69,849.85,365.4,851.11Q366.57,857.77,367.73,864.42L369.17,866.35C370.46,866.89,371.74,867.35,373.02,867.79C374.3,868.23,375.6,868.58,376.92,868.9C380.84,869.9,383.97,869.7,386.3,868.49C388.602383,867.330611,389.982651,864.90134,389.8,862.33C389.797464,861.379674,389.635203,860.436534,389.32,859.54C389.012192,858.599887,388.567405,857.710315,388,856.9C386.4,854.76,383,852.13,377.87,848.9C375.35,847.35,373.41,846.07,372.05,845.09C366.78,841.37,362.94,837.56,360.5,833.74C358.106791,830.07343,356.834862,825.788488,356.84,821.41C356.84,814.89,359.23,810.35,364.01,807.69C368.79,805.03,375.22,804.69,383.3,806.57C386.932831,807.416778,390.493729,808.546903,393.95,809.95C397.806479,811.492299,401.572509,813.251784,405.23,815.22L405.23,832.65C402.05,832.06,398.87,831.45,395.7,830.8Q394.7,824.88,393.65,818.95L392.4,817.43C391.455436,816.924809,390.476327,816.487051,389.47,816.12C388.418046,815.740267,387.342426,815.429607,386.25,815.19C382.39,814.33,379.36,814.43,377.17,815.54C374.98,816.65,373.89,818.61,373.89,821.43C373.89,825.28,378.07,830.09,386.5,835.54C387.5,836.15,388.2,836.63,388.7,836.98C396.23,841.81,401.24,845.79,403.7,849.16C406.195809,852.628988,407.491392,856.817687,407.39,861.09C407.39,867.83,404.74,872.76,399.46,875.76C394.18,878.76,387.07,879.3,378.17,877.17C374.807842,876.324414,371.522893,875.197094,368.35,873.8C364.127992,871.946495,360.005707,869.87367,356,867.59Z" fill="rgb(59,59,59)" stroke="none" stroke-width="1"/><path id="eXJMDGCsevU41" d="M417,848.4C417,837.75,420.48,829.78,427.47,824.28C434.46,818.78,443.74,816.69,455.34,817.66C459.869414,818.009626,464.332031,818.961337,468.61,820.49C472.532555,821.878517,476.19863,823.90584,479.46,826.49C483.850304,829.906598,487.415103,834.267752,489.89,839.25C492.309712,844.202024,493.545548,849.648605,493.5,855.16C493.5,865.89,489.86,874.7,482.59,881.35C475.32,888,465.93,891,454.47,890C443.01,889,434.07,884.5,427.23,876.77C420.39,869.04,417,859.5,417,848.4ZM455.24,825.4C449.79,824.94,445.48,827.11,442.31,831.98C439.14,836.85,437.55,843.76,437.55,852.76C437.55,861.19,439.22,868.21,442.55,873.76C445.88,879.31,450.14,882.37,455.35,882.76C460.56,883.15,464.76,880.82,467.94,875.71C471.12,870.6,472.71,863.53,472.71,854.57C472.71,846.04,471.11,839.16,467.91,833.88C464.71,828.6,460.47,825.85,455.23,825.41Z" fill="rgb(59,59,59)" stroke="none" stroke-width="1"/><path id="eXJMDGCsevU42" d="M499.24,820.92Q516.84,820.92,534.41,819.65L534.41,825.65Q531.04,826.08,527.66,826.48L526.39,828.07L526.39,862.86Q526.39,872.47,530.05,876.37C532.48,878.95,536.51,880.06,542.13,879.58C547.47,879.12,551.24,877.29,553.43,874.18C555.62,871.07,556.72,865.79,556.72,858.34L556.72,825.49L555.51,824.12C553.04,824.26,550.58,824.39,548.11,824.49L548.11,818.49Q561.19,817.21,574.21,815.27L574.21,821.27C572,821.73,569.8,822.18,567.59,822.61L566.28,824.3L566.28,858.44C566.28,868.58,563.99,876.2,559.4,881.21C554.81,886.22,547.32,889.31,536.9,890.1C531.697913,890.648986,526.438693,890.055148,521.49,888.36C517.434773,886.899837,513.938072,884.207377,511.49,880.66C510.155635,878.643958,509.212559,876.394823,508.71,874.03C508.031459,870.01071,507.750103,865.9344,507.87,861.86L507.87,828.73C507.45,828.24,507.03,827.73,506.6,827.25C504.14,827.15,501.69,827.04,499.23,826.91Z" fill="rgb(59,59,59)" stroke="none" stroke-width="1"/><path id="eXJMDGCsevU43" d="M578.74,883.77L578.74,877.77Q582.04,877.05,585.34,876.28L587.34,873.98L587.34,821.06L586,819.78Q582.38,820.2,578.75,820.58L578.75,814.58Q595.49,811.93,612.06,808.17C621.61,806,628.72,805.83,633.44,807.97C638.16,810.11,640.51,814.57,640.51,821.45C640.51,829.24,638.08,835.85,633.22,841.19C628.36,846.53,621.22,850.42,611.66,852.57C610.03,852.94,608.8,853.19,607.97,853.34C607.14,853.49,606.35,853.61,605.62,853.7L605.62,870.42L607.12,872.06Q610.91,871.43,614.71,870.76L614.71,876.76Q596.82,880.92,578.74,883.77ZM605.61,846.77L607.01,846.47C611.94,845.4,615.57,843.28,617.91,840.18C620.25,837.08,621.42,832.88,621.42,827.57Q621.42,820.83,618.31,817.68Q615.2,814.53,609.8,815.74L605.61,816.66Z" fill="rgb(59,59,59)" stroke="none" stroke-width="1"/></g><g id="eXJMDGCsevU44" style="isolation:isolate"><path id="eXJMDGCsevU45" d="M356,867.59L356,848.5Q360.69,849.85,365.4,851.11Q366.57,857.77,367.73,864.42L369.17,866.35C370.46,866.89,371.74,867.35,373.02,867.79C374.3,868.23,375.6,868.58,376.92,868.9C380.84,869.9,383.97,869.7,386.3,868.49C388.602383,867.330611,389.982651,864.90134,389.8,862.33C389.797464,861.379674,389.635203,860.436534,389.32,859.54C389.012192,858.599887,388.567405,857.710315,388,856.9C386.4,854.76,383,852.13,377.87,848.9C375.35,847.35,373.41,846.07,372.05,845.09C366.78,841.37,362.94,837.56,360.5,833.74C358.106791,830.07343,356.834862,825.788488,356.84,821.41C356.84,814.89,359.23,810.35,364.01,807.69C368.79,805.03,375.22,804.69,383.3,806.57C386.932831,807.416778,390.493729,808.546903,393.95,809.95C397.806479,811.492299,401.572509,813.251784,405.23,815.22L405.23,832.65C402.05,832.06,398.87,831.45,395.7,830.8Q394.7,824.88,393.65,818.95L392.4,817.43C391.455436,816.924809,390.476327,816.487051,389.47,816.12C388.418046,815.740267,387.342426,815.429607,386.25,815.19C382.39,814.33,379.36,814.43,377.17,815.54C374.98,816.65,373.89,818.61,373.89,821.43C373.89,825.28,378.07,830.09,386.5,835.54C387.5,836.15,388.2,836.63,388.7,836.98C396.23,841.81,401.24,845.79,403.7,849.16C406.195809,852.628988,407.491392,856.817687,407.39,861.09C407.39,867.83,404.74,872.76,399.46,875.76C394.18,878.76,387.07,879.3,378.17,877.17C374.807842,876.324414,371.522893,875.197094,368.35,873.8C364.127992,871.946495,360.005707,869.87367,356,867.59Z" fill="none" stroke="rgb(160,137,97)" stroke-width="2.63156" stroke-linecap="round" stroke-linejoin="round"/><path id="eXJMDGCsevU46" d="M417,848.4C417,837.75,420.48,829.78,427.47,824.28C434.46,818.78,443.74,816.69,455.34,817.66C459.869414,818.009626,464.332031,818.961337,468.61,820.49C472.532555,821.878517,476.19863,823.90584,479.46,826.49C483.850304,829.906598,487.415103,834.267752,489.89,839.25C492.309712,844.202024,493.545548,849.648605,493.5,855.16C493.5,865.89,489.86,874.7,482.59,881.35C475.32,888,465.93,891,454.47,890C443.01,889,434.07,884.5,427.23,876.77C420.39,869.04,417,859.5,417,848.4ZM455.24,825.4C449.79,824.94,445.48,827.11,442.31,831.98C439.14,836.85,437.55,843.76,437.55,852.76C437.55,861.19,439.22,868.21,442.55,873.76C445.88,879.31,450.14,882.37,455.35,882.76C460.56,883.15,464.76,880.82,467.94,875.71C471.12,870.6,472.71,863.53,472.71,854.57C472.71,846.04,471.11,839.16,467.91,833.88C464.71,828.6,460.47,825.85,455.23,825.41Z" fill="none" stroke="rgb(160,137,97)" stroke-width="2.63156" stroke-linecap="round" stroke-linejoin="round"/><path id="eXJMDGCsevU47" d="M499.24,820.92Q516.84,820.92,534.41,819.65L534.41,825.65Q531.04,826.08,527.66,826.48L526.39,828.07L526.39,862.86Q526.39,872.47,530.05,876.37C532.48,878.95,536.51,880.06,542.13,879.58C547.47,879.12,551.24,877.29,553.43,874.18C555.62,871.07,556.72,865.79,556.72,858.34L556.72,825.49L555.51,824.12C553.04,824.26,550.58,824.39,548.11,824.49L548.11,818.49Q561.19,817.21,574.21,815.27L574.21,821.27C572,821.73,569.8,822.18,567.59,822.61L566.28,824.3L566.28,858.44C566.28,868.58,563.99,876.2,559.4,881.21C554.81,886.22,547.32,889.31,536.9,890.1C531.697913,890.648986,526.438693,890.055148,521.49,888.36C517.434773,886.899837,513.938072,884.207377,511.49,880.66C510.155635,878.643958,509.212559,876.394823,508.71,874.03C508.031459,870.01071,507.750103,865.9344,507.87,861.86L507.87,828.73C507.45,828.24,507.03,827.73,506.6,827.25C504.14,827.15,501.69,827.04,499.23,826.91Z" fill="none" stroke="rgb(160,137,97)" stroke-width="2.63156" stroke-linecap="round" stroke-linejoin="round"/><path id="eXJMDGCsevU48" d="M578.74,883.77L578.74,877.77Q582.04,877.05,585.34,876.28L587.34,873.98L587.34,821.06L586,819.78Q582.38,820.2,578.75,820.58L578.75,814.58Q595.49,811.93,612.06,808.17C621.61,806,628.72,805.83,633.44,807.97C638.16,810.11,640.51,814.57,640.51,821.45C640.51,829.24,638.08,835.85,633.22,841.19C628.36,846.53,621.22,850.42,611.66,852.57C610.03,852.94,608.8,853.19,607.97,853.34C607.14,853.49,606.35,853.61,605.62,853.7L605.62,870.42L607.12,872.06Q610.91,871.43,614.71,870.76L614.71,876.76Q596.82,880.92,578.74,883.77ZM605.61,846.77L607.01,846.47C611.94,845.4,615.57,843.28,617.91,840.18C620.25,837.08,621.42,832.88,621.42,827.57Q621.42,820.83,618.31,817.68Q615.2,814.53,609.8,815.74L605.61,816.66Z" fill="none" stroke="rgb(160,137,97)" stroke-width="2.63156" stroke-linecap="round" stroke-linejoin="round"/></g></g></g></g></svg>