<svg id="Layer_1" data-name="Layer 1" xmlns="http://www.w3.org/2000/svg" viewBox="0 0 1082.98 1080"><path d="M919.66,605.18h1.39a6.14,6.14,0,0,1,6.14,6.14v6.9a6.14,6.14,0,0,1-6.14,6.14h-1.39a6.13,6.13,0,0,1-6.13-6.14v-6.9A6.13,6.13,0,0,1,919.66,605.18Z" style="fill:#70e9c5;fill-opacity:0"/><path d="M-.18-5.62h1083V1080H-.18Z" style="fill:#f2d65f"/><path d="M545.46,179.14c-125.74,0-251.5,21.46-251.69,36.68,0,1.76-3.08,9.48,7.45,10.09-.24,225.48-.58,531.2,0,728.76-4.34.37-3.57,7-3.56,8.21.35,29.57,133.27,79.27,259.67,79.27S806,986,807.24,963c0-1.2-.26-4.82-3-6,.58-197.55.25-505.63,0-731.11,7.2-1.23,5.17-6.46,5.12-8.23-.19-15.21-123.61-38.54-249.35-38.54-2.43,0-4.86.17-7.29.19S547.88,179.14,545.46,179.14Z" style="fill:#a8a8a8;stroke:#6f6f6f;stroke-linecap:round;stroke-linejoin:round;stroke-width:2.8820278921406177px"/><path d="M564.6,271c125.85,0,238.51-21.38,238.51-39.11.21,91.8.36,268.42,0,361.3.21,16.48-118.57,53.05-244.42,53.05s-259.08-36.84-259-53.05c0-130.43.13-282.84,0-361.3C299.69,248.52,438.74,271,564.6,271Z" style="fill:#d82f38;stroke:#6f6f6f;stroke-linecap:round;stroke-linejoin:round;stroke-width:2.911830394475181px"/><path d="M558.71,646.29c125.94,0,244.63-36.22,244.68-53-.33,99.48-.11,264.13-.15,350.36-.31,12.54-105.17,76.19-257.64,73.87s-245.52-63-246-76.92c.19-95.24,0-222.52,0-347.31C299.63,609.61,432.77,646.29,558.71,646.29Z" style="fill:#e4e4e4;stroke:#6f6f6f;stroke-linecap:round;stroke-linejoin:round;stroke-width:2.8494708614474473px"/><path d="M316.25,222.12c0-8.2,102.74-29.27,237.18-29.27s233.33,21.76,233.33,30-96.87,26.46-231.31,26.46S316.25,230.32,316.25,222.12Z" style="fill:none;stroke:#6f6f6f;stroke-linecap:round;stroke-linejoin:round;stroke-width:1.1961788073627484px"/><path d="M343.57,225.42c0-7.2,90.81-25.69,209.63-25.69S759.44,218.84,759.44,226,673.82,249.27,555,249.27,343.57,232.63,343.57,225.42Z" style="fill:none;stroke:#6f6f6f;stroke-linecap:round;stroke-linejoin:round;stroke-width:1.1961788073627484px"/><path d="M300.34,941.09c3.24,18.89,117.75,75,249.84,76.45,124.47,1.32,252.49-58,252.49-74.25" style="fill:none;stroke:#6f6f6f;stroke-linecap:round;stroke-linejoin:round;stroke-width:2.8820278921406177px"/><path d="M456.52,646.34c0-54.19,42.53-98.12,95-98.12s95,43.93,95,98.12-42.52,98.13-95,98.13S456.52,700.53,456.52,646.34Z" style="fill:#b99643;stroke:#6f6f6f;stroke-linecap:round;stroke-linejoin:round;stroke-width:2.8820278921406177px"/><path d="M372.33,229.08c0-6.1,78.24-21.75,180.64-21.75S730.69,223.5,730.69,229.6s-73.78,19.67-176.18,19.67S372.33,235.18,372.33,229.08Z" style="fill:none;stroke:#6f6f6f;stroke-linecap:round;stroke-linejoin:round;stroke-width:1.1961788073627484px"/><path d="M302.56,935.06c1.43,16.38,125.14,73.81,249.62,74.4s248.27-56.71,248.27-72.94" style="fill:none;stroke:#da3039;stroke-linecap:round;stroke-linejoin:round;stroke-width:2.8820278921406177px"/><path d="M301.13,957c2.49,28.09,121,74.64,253.12,76,124.48,1.33,247.54-56.23,247.64-75.22" style="fill:none;stroke:#6f6f6f;stroke-linecap:round;stroke-linejoin:round;stroke-width:1.4017186217002962px"/><path d="M366.54,321.05v82.49l3.38.7c4.63.95,8.09-1.79,10.37-8.17s3.42-16.51,3.42-30.39-1.14-24.44-3.42-31.67-5.74-11.31-10.37-12.26Zm4.83-7.22c6.67,1.36,11.84,6.66,15.53,16s5.52,21.85,5.52,37.6a126.26,126.26,0,0,1-1.81,22.77,51.21,51.21,0,0,1-5.38,16,14,14,0,0,1-5.75,6,12.47,12.47,0,0,1-8.11.62q-8.5-1.72-17-3.63V402h3.55c.32-.7.63-1.4.94-2.1V321.5c-.31-.87-.62-1.73-.94-2.59l-3.55-1.5V310.2Q362.86,312.11,371.37,313.83Z" style="fill:#e4e4e4"/><path d="M415.6,375.23v-1.59a57.67,57.67,0,0,0-1.32-14c-.88-3.32-2.14-5.12-3.78-5.38q-2.69-.42-4.32,4.67c-1.09,3.41-1.68,8.24-1.78,14.52Q410,374.38,415.6,375.23Zm7.71,28.3v11a20.43,20.43,0,0,1-6.08,5.59,9.34,9.34,0,0,1-6.13,1.22q-6.56-1-10.52-11.88t-4-27.56q0-16.78,4.05-26.71c2.7-6.63,6.17-9.59,10.43-8.92,3.86.61,6.86,4,9,10.12s3.21,14.51,3.21,25.07v2.81q-9.6-1.38-19.19-3v.44q0,12.6,2.52,20.23t6.93,8.3a6.47,6.47,0,0,0,4.73-1.3A21.28,21.28,0,0,0,423.31,403.53Z" style="fill:#e4e4e4"/><path d="M437.7,414.92a11.08,11.08,0,0,0,1.88,1,8,8,0,0,0,1.88.48q4,.5,6.32-6.95T450.12,389q0-11.6-2.06-18.36t-5.71-7.2a3.77,3.77,0,0,0-2.08.43,11.71,11.71,0,0,0-2.57,1.8Zm-11.17,39.72v-6.85l3.18-.28.81-2.12V362.46l-4-.55V356q4.26-2.85,8.53-5.76l2.64.34v8.87a29.46,29.46,0,0,1,5-6.44,5.62,5.62,0,0,1,4.28-1.72q4.82.56,8,10.73t3.17,25.3q0,17.73-4.23,27.83t-11.39,9.24a16.44,16.44,0,0,1-2.4-.48,17.65,17.65,0,0,1-2.4-.85l0,23.56c.3.73.59,1.47.89,2.2l3.65,1v6.85Q434.38,455.74,426.53,454.64Z" style="fill:#e4e4e4"/><path d="M470.16,354.13l2.86.25v63.77c.28.77.57,1.53.86,2.3l3.32.86v6.63q-7.74-.65-15.48-1.42v-6.63l3.2-.26.83-2.15V366.54l-3.89-.38v-5.91Q466,357.21,470.16,354.13Zm-.63-33.71c1.29.12,2.34,1.24,3.17,3.35a21.64,21.64,0,0,1,1.24,7.86,21.37,21.37,0,0,1-1.23,7.92c-.81,2-1.86,3-3.12,2.85s-2.26-1.24-3.09-3.38a22.24,22.24,0,0,1-1.24-7.9,21.14,21.14,0,0,1,1.23-7.81C467.3,321.28,468.32,320.31,469.53,320.42Z" style="fill:#e4e4e4"/><path d="M505.39,423.22a23.26,23.26,0,0,1-5.66,5.56,9,9,0,0,1-5.51,1.57c-4.24-.27-7.66-3.86-10.26-10.73s-3.91-15.73-3.91-26.53q0-16.79,4.28-27.19t10.95-10c2.91.19,5.26,1.82,7.06,4.92a23.06,23.06,0,0,1,2.7,11.71,18.48,18.48,0,0,1-1.19,7.18c-.8,1.85-1.82,2.75-3.05,2.68a3.05,3.05,0,0,1-1.86-.8,7.51,7.51,0,0,1-1.63-2.22V363.76a3.75,3.75,0,0,0-.85-.45,2.28,2.28,0,0,0-.66-.15q-3.29-.21-5.51,7.38t-2.22,19.55q0,13.11,2.45,20.85c1.64,5.15,3.86,7.83,6.67,8a6.1,6.1,0,0,0,4-1.46,19.53,19.53,0,0,0,4.21-4.78Z" style="fill:#e4e4e4"/><path d="M511.08,369l-3.84-.18v-5.63c1.45-2,2.91-4,4.36-6L514.69,342l3.73.15v18.29q4.38.16,8.75.29v8.86c-2.91-.08-5.83-.18-8.75-.28v36.74q0,8.28,1.07,11.35c.71,2,2,3.1,3.84,3.16a7.86,7.86,0,0,0,2-.19,7.31,7.31,0,0,0,1.8-.7v7.05a21.58,21.58,0,0,1-4.83,3.35,9,9,0,0,1-4.21,1,5,5,0,0,1-2.76-.9,7.47,7.47,0,0,1-2.15-2.54,14.07,14.07,0,0,1-1.66-4.94,79.45,79.45,0,0,1-.48-10.79Z" style="fill:#e4e4e4"/><path d="M546.11,431.05v-7.21l3.61-.77c.34-.77.68-1.53,1-2.3V342.09c-.27-.69-.55-1.39-.83-2.09l-3.79-.74v-7.2q8.52.06,17.06,0v7.2l-3.62.76c-.32.7-.63,1.4-.95,2.09v80.41c3.79,0,7.59-.07,11.39-.15l.75-2.39q.45-9,.89-18l4.4-.1v28.89Q561.07,431.16,546.11,431.05Z" style="fill:#e4e4e4"/><path d="M586.89,357.22l2.86-.11v63.76l.87,2.2,3.32.43v6.63q-7.76.36-15.51.57v-6.63l3.2-.67.84-2.26V370.2l-3.9.12v-5.9Q582.74,360.83,586.89,357.22Zm-.63-33.62q1.93-.08,3.18,2.94a20.52,20.52,0,0,1,1.24,7.69,22.72,22.72,0,0,1-1.23,8.09c-.82,2.12-1.86,3.21-3.13,3.25s-2.27-.95-3.09-3a20.6,20.6,0,0,1-1.25-7.73,22.44,22.44,0,0,1,1.23-8C584,324.74,585,323.65,586.26,323.6Z" style="fill:#e4e4e4"/><path d="M624.34,364.76a58.9,58.9,0,0,1,6.1-8c1.77-1.86,3.23-2.85,4.36-2.95q4.1-.37,6.14,5.55t2,18.17v39.55c.26.72.52,1.44.77,2.16l3.11.25v6.63q-7.23.76-14.49,1.4v-6.63l2.54-.8.81-2.31v-35.3q0-8.43-1.29-12.06t-4.13-3.38A5.18,5.18,0,0,0,628,368a17.23,17.23,0,0,0-2.75,2.35v48.42l.75,2.17,2.68.35v6.63q-7,.6-14,1.07v-6.63l2.42-.74L618,419V383.1q0-7.85-1.27-11.36t-4-3.32a5.33,5.33,0,0,0-2.39.8,13.38,13.38,0,0,0-2.57,2V420c.27.72.54,1.45.8,2.18l2.49.42v6.63q-7.24.46-14.5.82v-6.63l3-.73c.27-.76.55-1.52.83-2.28V369.43l-3.87.2v-5.91q4.17-3.66,8.35-7.36l2.86-.17v8.72a44.54,44.54,0,0,1,5.51-7.19c1.56-1.55,2.94-2.37,4.16-2.46a4.53,4.53,0,0,1,4,2.23A21.37,21.37,0,0,1,624.34,364.76Z" style="fill:#e4e4e4"/><path d="M657.61,351.78l2.85-.34V415.2c.28.71.57,1.42.86,2.13l3.3.17v6.63q-7.71,1-15.44,1.79v-6.63l3.19-.92.84-2.33V365.1l-3.89.43v-5.91Q653.46,355.72,657.61,351.78ZM657,318.21c1.28-.15,2.34.74,3.16,2.69a19.72,19.72,0,0,1,1.24,7.59,23.45,23.45,0,0,1-1.23,8.18q-1.21,3.29-3.12,3.5c-1.22.15-2.25-.77-3.08-2.74a20.17,20.17,0,0,1-1.23-7.65,23.25,23.25,0,0,1,1.22-8.06Q655.17,318.42,657,318.21Z" style="fill:#e4e4e4"/><path d="M670.34,362.31l-3.82.49v-5.62l4.34-6.75q1.53-7.87,3.07-15.76l3.71-.5v18.29q4.33-.6,8.69-1.25v8.86c-2.9.44-5.8.85-8.69,1.26v36.74q0,8.28,1.06,11.16c.7,1.92,2,2.75,3.81,2.49a8.65,8.65,0,0,0,2-.55,8.94,8.94,0,0,0,1.79-1v7.06a27.59,27.59,0,0,1-4.81,4.19,10.4,10.4,0,0,1-4.17,1.78,4.38,4.38,0,0,1-2.74-.42,5.67,5.67,0,0,1-2.14-2.16,11.77,11.77,0,0,1-1.65-4.64,77.54,77.54,0,0,1-.48-10.71Z" style="fill:#e4e4e4"/><path d="M707.6,372.28V370.7q0-9-1.31-13.57T702.51,353q-2.68.45-4.32,6.07a59.51,59.51,0,0,0-1.78,15.1Q702,373.25,707.6,372.28Zm7.69,25.8V409a33.37,33.37,0,0,1-6.06,7.57,12.57,12.57,0,0,1-6.12,3.21q-6.55,1.1-10.52-8.46t-4-26.26q0-16.79,4.06-28t10.43-12.31q5.77-1,9,7.19t3.2,24v2.81q-9.57,1.74-19.16,3.28v.43q0,12.6,2.52,19.41t6.92,6a9,9,0,0,0,4.72-2.83A34.23,34.23,0,0,0,715.29,398.08Z" style="fill:#e4e4e4"/><path d="M739.85,397.5V348.23a10.37,10.37,0,0,0-2.36-1.13,4,4,0,0,0-2-.14c-2.54.53-4.58,3.48-6.11,8.88s-2.29,12.38-2.29,21q0,12.26,2.08,18.75c1.39,4.34,3.3,6.27,5.75,5.76a5.56,5.56,0,0,0,2.18-1.13A18.43,18.43,0,0,0,739.85,397.5Zm0-82.13-4.26.89v-5.91q4.33-4.35,8.67-8.74L747,301v99.57c.27.73.53,1.47.8,2.2l3-.08v6.48c-3.63.81-7.25,1.6-10.89,2.37v-8.29a44.6,44.6,0,0,1-4.89,8.29c-1.48,1.84-2.92,2.91-4.33,3.19q-4.95,1-8.14-8.32t-3.18-25q0-17.64,4.18-29.39t10.87-13.1a10.29,10.29,0,0,1,2.62-.18,14,14,0,0,1,2.87.48Z" style="fill:#e4e4e4"/><path d="M493.66,469.56a13.39,13.39,0,0,1-2.45.45,14.57,14.57,0,0,1-2.56,0,10,10,0,0,1-2.38-.48,7.54,7.54,0,0,1-2-1,8.85,8.85,0,0,1-2.91-3.28A9.07,9.07,0,0,1,480.3,461a8.52,8.52,0,0,1,.64-3.33,6.85,6.85,0,0,1,4.48-4,9.43,9.43,0,0,1,3.37-.26,12.92,12.92,0,0,1,2.42.42,15.24,15.24,0,0,1,2.45.86v4l-1.74-.13-.48-2.59-.33-.44a6.93,6.93,0,0,0-1-.34,4.34,4.34,0,0,0-.93-.17,4.43,4.43,0,0,0-4,1.47,7.15,7.15,0,0,0-1.46,4.8,8.12,8.12,0,0,0,1.52,5.14,5.69,5.69,0,0,0,4.21,2.17,5,5,0,0,0,.66,0c.24,0,.51-.05.78-.1l.36-.33c.19-.94.39-1.89.58-2.83l1.74.13Z" style="fill:#e4e4e4"/><path d="M503.62,456a3.56,3.56,0,0,0-3.3,1.64,8.39,8.39,0,0,0-1.24,4.87,9.71,9.71,0,0,0,1.24,5.16,4,4,0,0,0,3.25,2.12,3.53,3.53,0,0,0,3.27-1.66,8.41,8.41,0,0,0,1.25-4.88,9.71,9.71,0,0,0-1.22-5.16A4.05,4.05,0,0,0,503.62,456Zm-8.09,6.21a9,9,0,0,1,.62-3.47,6.51,6.51,0,0,1,1.84-2.57,6.92,6.92,0,0,1,2.52-1.38,8.66,8.66,0,0,1,3.06-.32,9,9,0,0,1,2.85.64,8.27,8.27,0,0,1,2.41,1.55,8.48,8.48,0,0,1,2.11,3,9.59,9.59,0,0,1,.73,3.74,8.91,8.91,0,0,1-.65,3.45,7.2,7.2,0,0,1-4.38,4.06,7.65,7.65,0,0,1-2.91.37,8.44,8.44,0,0,1-6-2.73A9.09,9.09,0,0,1,495.53,462.17Z" style="fill:#e4e4e4"/><path d="M513.12,471.37v-1.14l1.42-.13.43-.41V457.05l-.34-.35-1.51-.19v-1.17l5.48.26v.64q3.66,5.83,7.32,11.63V457.64c-.15-.15-.29-.31-.44-.47L524,457v-1.16l5.45.17v1.17l-1.42.1-.4.44V472l-2.68-.09q-4.14-6.57-8.27-13.17v11.06l.38.45,1.48.26v1.15Z" style="fill:#e4e4e4"/><path d="M535.57,457.48v13.35l1.39,0a5.11,5.11,0,0,0,4.25-1.59,7.47,7.47,0,0,0,1.4-5,7.69,7.69,0,0,0-1.4-5A5.39,5.39,0,0,0,537,457.5Zm2-1.29a9.22,9.22,0,0,1,6.36,2.18,7.8,7.8,0,0,1,2.26,5.95,8.81,8.81,0,0,1-.75,3.73,6.89,6.89,0,0,1-2.2,2.74,6.4,6.4,0,0,1-2.35,1.12,12.78,12.78,0,0,1-3.32.31c-2.33-.05-4.66-.1-7-.17v-1.16l1.46-.09.39-.37V457.74l-.39-.39-1.46-.16V456Z" style="fill:#e4e4e4"/><path d="M547.69,472.33v-1.16l1.46-.13.39-.37V457.93l-.39-.34-1.46-.12v-1.16q6,0,12.07,0V460l-1.66,0-.41-2.1-.26-.31-4.78,0v5.7l3.11,0,.33-.34c.08-.57.17-1.14.25-1.71h1.41v5.54h-1.41c-.08-.58-.17-1.15-.25-1.73l-.33-.32h-3.11V471l5.58,0,.28-.39c.13-.84.26-1.69.38-2.54h1.65v4.28Q554.12,472.36,547.69,472.33Z" style="fill:#e4e4e4"/><path d="M561.88,472.27v-1.14l1.42-.22.43-.44V457.84l-.34-.34-1.51-.09v-1.17c1.83,0,3.65-.05,5.48-.09v.64q3.66,5.59,7.32,11.16V457.72l-.43-.44-1.46-.1V456l5.45-.18V457l-1.41.19c-.14.15-.27.31-.41.47v14.26l-2.67.09q-4.14-6.3-8.28-12.64v11.06c.13.14.26.28.38.43l1.49.16v1.15Q564.61,472.24,561.88,472.27Z" style="fill:#e4e4e4"/><path d="M580.06,471.28V467l1.81-.07.39,2.85.31.35a6.51,6.51,0,0,0,1,.21,6.11,6.11,0,0,0,1,0,3.78,3.78,0,0,0,2.24-.72,2,2,0,0,0,.84-1.68,2.31,2.31,0,0,0-.59-1.59,5.71,5.71,0,0,0-2-1.3c-.15-.08-.37-.17-.68-.3a10.39,10.39,0,0,1-2.45-1.35,4.64,4.64,0,0,1-1.24-1.47,3.85,3.85,0,0,1-.43-1.73,4.4,4.4,0,0,1,1.57-3.44,6.38,6.38,0,0,1,4.07-1.51,12.56,12.56,0,0,1,2.2.1,15.2,15.2,0,0,1,2.29.5v3.88l-1.73.08-.39-2.46-.34-.32a2.56,2.56,0,0,0-.77-.22,4.41,4.41,0,0,0-1,0,3.26,3.26,0,0,0-2,.72,2.1,2.1,0,0,0-.77,1.68,2.16,2.16,0,0,0,.43,1.33,4.75,4.75,0,0,0,1.5,1.16c.18.1.65.31,1.43.62a13.72,13.72,0,0,1,2,.94,4.57,4.57,0,0,1,1.6,1.51,3.72,3.72,0,0,1,.56,2,4.53,4.53,0,0,1-1.74,3.64,7.55,7.55,0,0,1-4.6,1.56,13.1,13.1,0,0,1-2.34-.1A13.87,13.87,0,0,1,580.06,471.28Z" style="fill:#e4e4e4"/><path d="M592.91,471.21V470l1.46-.21.38-.39V456.7l-.38-.32-1.46,0v-1.17q6-.33,12.05-.76v3.75l-1.66.11c-.13-.69-.27-1.38-.41-2.07l-.25-.3c-1.6.11-3.19.22-4.78.31v5.7l3.11-.2.33-.36.24-1.73,1.41-.1v5.54l-1.41.1-.24-1.71-.33-.31-3.11.2v6.21l5.57-.37.28-.4c.13-.85.26-1.71.38-2.56l1.65-.12v4.29Q599.32,470.87,592.91,471.21Z" style="fill:#e4e4e4"/><path d="M612.14,455.21v13.36l1.38-.11a5.69,5.69,0,0,0,4.24-2,8.23,8.23,0,0,0,1.4-5.15q0-3.37-1.4-4.9a4.86,4.86,0,0,0-4.24-1.29Zm2-1.49q4.08-.35,6.34,1.54a7.07,7.07,0,0,1,2.25,5.72,9.55,9.55,0,0,1-.74,3.81,8,8,0,0,1-2.19,3,7.11,7.11,0,0,1-2.35,1.35,13.09,13.09,0,0,1-3.31.65l-7,.55v-1.17l1.46-.24.38-.4V455.8l-.38-.36h-1.46v-1.16Z" style="fill:#e4e4e4"/><path d="M395.73,956.71v-20.9q5.08,1.82,10.2,3.5,1.26,7.37,2.53,14.73l1.56,2.21c1.4.67,2.8,1.28,4.19,1.82s2.8,1,4.25,1.46c4.26,1.27,7.67,1.28,10.21.09s3.82-3.4,3.82-6.56A9.49,9.49,0,0,0,432,950a11.53,11.53,0,0,0-1.5-3c-1.74-2.42-5.43-5.5-11-9.36-2.74-1.85-4.85-3.37-6.33-4.52-5.73-4.41-9.9-8.85-12.55-13.2a26.07,26.07,0,0,1-4-13.76c0-7.14,2.59-11.93,7.79-14.53s12.17-2.53,21,0A87.7,87.7,0,0,1,437,895.88a136.31,136.31,0,0,1,12.33,6.33v19.08q-5.22-1.18-10.42-2.48-1.12-6.54-2.24-13.09L435.27,904a25.63,25.63,0,0,0-3.19-1.59,29.66,29.66,0,0,0-3.52-1.2c-4.21-1.15-7.5-1.22-9.89-.13s-3.57,3.16-3.57,6.25c0,4.21,4.55,9.75,13.74,16.18,1.05.73,1.85,1.3,2.39,1.7,8.22,5.69,13.7,10.29,16.39,14.09a22.24,22.24,0,0,1,4,13.24c0,7.38-2.9,12.67-8.67,15.7s-13.54,3.25-23.23.39a68.47,68.47,0,0,1-10.68-4.3A145.93,145.93,0,0,1,395.73,956.71Z" style="fill:#3b3b3b;stroke:#a08961;stroke-linecap:round;stroke-linejoin:round;stroke-width:2.8820278921406177px"/><path d="M504.15,915c-6-.61-10.72,1.65-14.2,6.9s-5.23,12.77-5.23,22.62c0,9.23,1.83,17,5.48,23.16s8.34,9.62,14.06,10.2,10.34-1.95,13.84-7.5,5.26-13.28,5.26-23.09c0-9.34-1.76-16.89-5.28-22.72S509.91,915.63,504.15,915Zm-42,24c0-11.66,3.82-20.24,11.48-26s17.85-7.79,30.6-6.48a58.18,58.18,0,0,1,14.6,3.33,42.9,42.9,0,0,1,11.94,6.67,41.33,41.33,0,0,1,11.47,14.05,38.88,38.88,0,0,1,4,17.43c0,11.76-4,21.4-12,28.63s-18.33,10.41-30.93,9.1-22.41-6.55-29.9-15.25S462.19,951.22,462.18,939.06Z" style="fill:#3b3b3b;stroke:#a08961;stroke-linecap:round;stroke-linejoin:round;stroke-width:2.8820278921406177px"/><path d="M552.57,910.57q19.38,0,38.71-1.71v6.57c-2.48.36-4.95.7-7.43,1l-1.4,1.75v38.1q0,10.55,4,14.75c2.69,2.79,7.12,3.94,13.29,3.29,5.87-.61,10-2.72,12.42-6.18s3.61-9.29,3.61-17.45v-36l-1.33-1.47q-4.07.33-8.13.59v-6.56Q620.7,905.61,635,903v6.57q-3.62.87-7.25,1.7l-1.44,1.9v37.39c0,11.1-2.51,19.52-7.54,25.15S605.47,984.93,594,986c-6.66.61-12.31,0-17-1.67a22.48,22.48,0,0,1-11-8.35,21.21,21.21,0,0,1-3-7.25,68.18,68.18,0,0,1-.92-13.32V919.11c-.47-.54-.94-1.08-1.4-1.63-2.71-.09-5.41-.21-8.12-.35Z" style="fill:#3b3b3b;stroke:#a08961;stroke-linecap:round;stroke-linejoin:round;stroke-width:2.8820278921406177px"/><path d="M669.32,936.12l1.53-.4c5.38-1.44,9.34-4,11.89-7.5s3.82-8.22,3.82-14c0-4.93-1.13-8.47-3.39-10.65s-5.34-2.71-9.26-1.64q-2.29.63-4.59,1.23ZM640,977.84v-6.56c2.41-.62,4.81-1.25,7.22-1.91l2.15-2.61v-58l-1.43-1.35c-2.65.41-5.29.8-7.94,1.17v-6.56q18.33-3.57,36.41-8.61c10.41-2.92,18.13-3.56,23.26-1.54s7.67,6.73,7.67,14.28a33,33,0,0,1-7.92,22.12c-5.28,6.17-13.07,10.9-23.45,13.79-1.78.5-3.12.84-4,1s-1.76.38-2.57.52V962L671,963.7c2.77-.59,5.52-1.2,8.28-1.84v6.56Q659.76,974,640,977.84Z" style="fill:#3b3b3b;stroke:#a08961;stroke-linecap:round;stroke-linejoin:round;stroke-width:2.8820278921406177px"/></svg>