<svg id="Layer_1" data-name="Layer 1" xmlns="http://www.w3.org/2000/svg" xmlns:xlink="http://www.w3.org/1999/xlink" viewBox="0 0 0 0"><defs><linearGradient id="linear-gradient" y1="-170" x2="2500" y2="-170" gradientTransform="matrix(0.43, 0, 0, -0.43, 420, 466.56)" gradientUnits="userSpaceOnUse"><stop offset="0" stop-color="#ffee6f"/><stop offset="1" stop-color="#f9d559"/></linearGradient></defs><g id="background"><path d="M1500,.22V1079.78H420V.22Z" style="stroke:#606060;stroke-linecap:round;stroke-linejoin:round;stroke-width:1.7972928093764295px;fill-rule:evenodd;fill:url(#linear-gradient)"/></g><g id="mouthInner"><path d="M962.33,451.09s-20.47,69,60.4,109.65c96,50.37,102.47,57.06,144,69.89,43.8,8.34,66.87-9.59,69.16-16s6.35-22-29.08-52.71c-34.94-30.24-21.29-19.48-52.18-30.5-26.91-12-40-21.34-140.49-33.09C1003.72,462.72,962.33,451.09,962.33,451.09Z" style="fill:#f4786d;fill-opacity:0.930180013179779;stroke:#606060;stroke-linecap:round;stroke-linejoin:round;stroke-width:2.2968577103351606px;fill-rule:evenodd"/></g><g id="teethLower1"><path d="M999.36,539.09c22.76-15.51,18.74-24.84,12.87,13.18,33.57-14.08,17.8-20.39,19.09,13.26,30.24-11.71,16.29-31.88,18.06,10.41,23.42-13.39,23.37-26.39,19.48,7.65,1,3.15,18.88-15.68,21.43-18.06,1,3.54-.21,17.58-1.42,26.05,6.52-6.52,14-15.21,20.56-18.1-7.73,27.17-20.39,34,13.91,5.31a58.05,58.05,0,0,0-5.62,23.5c14.78-7.9,30-27.82,21.56-11.83-18.88,32,4.49,8.9,17.15,1.25-1.3,3.85-5.7,13.35-7.39,19.31,4.37-2.33,14.52-10.93,22.77-16-2.46,7.3-7.86,16.33-10,21.47,8.64-5.22,16.15-12.74,24.84-18.62-6.83,10-8.38,20.18-10.24,22.9,6.57-3.8,25-20.91,28.42-23.67-11.14,31.92-5.87,26,13-2.12,0,0-8.3,23-4.58,22.33,11.92-6.43,18.62-34,18.75-10.06,11.79-10.76,4.36-9.12,5.31-10.5C1227.54,681,993.78,631,995.81,558" style="fill:#f5fffe;stroke:#606060;stroke-linecap:round;stroke-linejoin:round;stroke-width:2.3086512592250585px;fill-rule:evenodd"/></g><g id="teethUpper2"><path d="M1252.81,565.53c-12.14-1.29-30.89,12.75-43.81,13.22,5.92-8.12,16.77-24.06-.12-16.72-19.57,5.06-26.7,21.34-17.72-7.6,2.34-10.28-18.75,9.16-28.6,15.29a208,208,0,0,1,2.81-26c-3.45,2.37-18.27,17.41-30.15,22.76.78-5,17.75-32,3.89-23.37-29.59,22-24.07,25.58-18.67-8.38-11.44,3.42-15.59,20.7-28.38,23.37,1.77-9.89,6.31-20.43,3.67-31.14-.38-9.77-20.65,24.36-26.65,26.26.78-5.1,8.64-30.11,8.64-40.52-3.76,6.44-22.9,22.68-28.38,27.74-1.82-6.4,1.21-18.45-.91-28.82-4.62,5,4.1-5.23-26,21.21-1.3-41,14.17-34.08-28.69-3.67,12.57-53.74,17.58-52.23,70.85-47.17,41.21,9.37,88.95,4.36,122.86,30.06" style="fill:#f5fffe;stroke:#606060;stroke-linecap:round;stroke-linejoin:round;stroke-width:2.259835294213701px;fill-rule:evenodd"/></g><g id="finRight"><path d="M960.39,743.39c113.1,39.26,209.61,149,209.61,149s9.67,9.16,18.23,2.55c8.2-5.79,11.66-12.31,10.67-17.2-.82-20.82-34.09-161.09-122-232C1017.2,612.14,937.06,681.78,960.39,743.39Z" style="fill:#6edebc;stroke:#606060;stroke-linecap:round;stroke-linejoin:round;stroke-width:2.259835294213701px;fill-rule:evenodd"/></g><g id="finTop"><path d="M731,447.81c32.74,0,209.39-81.21,171.93-131.2S680,167.92,581.09,248C642.18,269.4,739.77,354.11,731,447.81Z" style="fill:#6edebc;stroke:#606060;stroke-linecap:round;stroke-linejoin:round;stroke-width:2.259835294213701px;fill-rule:evenodd"/></g><g id="body"><path d="M1315,558.06c-23.11,8.9-34.35,14.77-53.35,10.15-9-2.51-127-34.6-169.65-45.75-13.82-3.58-29.59-18.83-53.31-15.29-43.16-8.51-22.64-8.77-64.58-46.4,19.13,63.68,29.8,92.23,55.29,110,19.4,12.83,112.37,49,156.6,52.87,55,2.51,59-29.89,29.42-54.34-36.37-27.65,81.56,31.06-17.54,78.49-56.72,21.43-109.86,12.53-113,15.77-56.63,21.43-147.4,162.34-147.4,162.34-27.26,83.68-50.8,98.2-7.47,254.19-22.51,0-139.84,3.85-226.41-.21,0,0-190.51-363.53-30.11-610.55,10.45-17,51-76.51,96.77-106.57,111.62-85,257.17-104.59,383-59.32,68.9,23.94,102.55,65.28,142.25,95.69,34.43,27.69,66.62,55.69,85.41,79.19C1402.8,504,1378.78,517.41,1315,558.06Z" style="fill:#6edebc;stroke:#666;stroke-linecap:round;stroke-linejoin:round;stroke-width:2.259835294213701px;fill-rule:evenodd"/></g><g id="bodyUnder"><path d="M1316.62,558.06c-23.07,8.9-29.29,15.9-53.36,10.15-9-2.51-129.25-28.47-171.89-39.66-22.55-6.22-22.55-11.49-51.06-21.43-43.16-8.51-21.95-4.83-63.94-42.5,19.18,63.67,27.56,88.34,53.05,106,19.4,12.83,114,49,158.16,52.88,55,2.5,59-29.9,29.42-54.35-36.38-27.65,81.6,31.06-17.54,78.49-56.72,21.43-109.86,12.53-113,15.77C1029.81,684.85,967.21,779.2,944.1,828.58,930,858.64,886.69,924,930,1080c-44.76,0-125.54-.22-125.54-.22s-41-102.34-32.7-208.18c17.49-119.1,119.75-220.84,141.78-238.72,24.8-25.84,57.63-36.33,46.44-80.61-32.1-127.06-39.48-151.38,68.39-101.14,30.93,10.72,129.81-17.71,187.48-9.54C1290,452,1344.78,483.8,1346.55,443.1c13.35,10.15,20.7,17.28,36,35.12C1404.4,504,1380.34,517.41,1316.62,558.06Z" style="fill:#fef6df;stroke:#666;stroke-linecap:round;stroke-linejoin:round;stroke-width:2.259835294213701px;fill-rule:evenodd"/></g><g id="teethlower2"><path d="M1210.39,560.69c7.69-1.08,8.21-2.29,12.09-1.64-.21,3.46,0,19.7.74,22.81,4.27-2.55,9.72-10.76,12-15,1.21,4.84-12.65,36.41-2.11,26.13,14.81-25.05,4.36,13.7-1,14.09,0,0-2.33-6.92-3.2-8.73-2.5-5-19.39-30.33-23.45-34.17" style="fill:#f5fffe;stroke:#606060;stroke-linecap:round;stroke-linejoin:round;stroke-width:2.596017767533567px;fill-rule:evenodd"/></g><g id="gills"><path d="M845.39,490.1c-.52-1.85,3.8,18.36,5.53,23.07,12.18,33.74,22,47.78,50.63,70.16-19.31-17.41-29-49.51-36.11-76-4.58-17.24-3.29-41,7.47-6.44,10.89,27.39,32.27,49.68,52.31,70.42-17.36-17.15-27.64-39.7-31.58-63.59-4.14-20.61-6.43-46.22,4.63-64.54,1.81,36,11.36,72.83,38.45,99.1,2.33,2.63,5.18,6.18,7.38,8.38-33.22-39.35-30.84-95.95-40-141.74-27.52,29.2-32.79,63.38-17.8,99.88-5.4-13.09-19.61-43.11-19.22-74.39-1.6-18.84-9.72,15.46-10.32,21.9-1.56,15.55-2.9,25.53-.65,40.87,1.25,8.51,2,17.67,3.15,20.52-8.6-21.34-8.42-36.29-12.31-54.39-.22-1.86,0-3.89-.22-5.7-2.59,13.56-4.45,19.22-1.38,32.48" style="fill:#fcaec1;stroke:#606060;stroke-linecap:round;stroke-linejoin:round;stroke-width:2.259835294213701px;fill-rule:evenodd"/></g><g id="tail"><path d="M1157.12,1080.56s16.42,14.34,33-60.31a11.85,11.85,0,0,0,0-5c-13.39-61.22,28-108.78,35.81-110.73s-36.07,59.36-10.32,108c9.46,13.79,24.88,23.72,38,32.79-5.14,3.5-23.89,2.38-33.65,1.6-3.54-.3-6.52,2.16-7.3,5.83l-7.95,27.74C1205.76,1081.9,1157.12,1080.56,1157.12,1080.56Z" style="fill:#6edebc;stroke:#606060;stroke-linecap:round;stroke-linejoin:round;stroke-width:2.259835294213701px;fill-rule:evenodd"/></g><g id="finLeft"><path d="M531.54,928.15c-5.35-1.64,1.69-28.64,3.37-37,14.82-73.35,42.77-188.35,153.41-258.68C811.56,554.08,803.14,680.88,858,697.81,712.68,756.52,605.63,872.47,558.72,911.39,548.3,920.07,536.12,931.13,531.54,928.15Z" style="fill:#6edebc;stroke:#606060;stroke-linecap:round;stroke-linejoin:round;stroke-width:2.259835294213701px;fill-rule:evenodd"/></g><g id="Nostrils"><path d="M1223.11,466.83c-.21-.05,1.92,1,5.2,2.73a4.75,4.75,0,0,0-.17-.49C1224.91,467.61,1223.3,466.88,1223.11,466.83Zm5.2,2.73c2.29,5.47-1.54,11.92,26.75,14.15C1242.61,476.93,1233.6,472.28,1228.31,469.56Zm112.31,10.15a10.28,10.28,0,0,0-2.84.32s4.84,3.72,15.77,7.7C1359.83,485.35,1348,479.79,1340.62,479.71Z" style="fill:#fcaec1;stroke:#606060;stroke-linecap:round;stroke-linejoin:round;stroke-width:2.259835294213701px"/></g><g id="Eyes"><path d="M1024.73,368.93a16.37,16.37,0,0,0-2.39.25c-10.37,2.81,51,10.24,47,27.44-7.64-8.34-25.57-10.46-36.24-11.88-45.75-3.07-20.47-5-3.79,8.73,4.4,8.17,13.82,19.1,41.94,13.61,9-1,17.45,10.15,22,13,26.22-3,37.63-2.72,1.86-4.83-6.78-1.69-18-12.1-22.34-16.42.39-4.15-2.76-11.62-4.4-14.9C1058.43,380.2,1037.33,368.49,1024.73,368.93Zm217.37,7c-5.19,3.63-12,9.94-9.55,14.56,5.49,10.19,14.9,18,25.14,24.49,17.88,11.32,25,10.58,25,10.58s-19.82-9.89-21.5-14-.57-13.26-4.37-15.63c-5.92-3.72-15.72-2.76-20.43-5.23C1237.78,386.47,1236.7,384.7,1242.1,376Z" style="fill:#e5e176;stroke:#606060;stroke-linecap:round;stroke-linejoin:round;stroke-width:2.079561592638157px"/></g><g id="Pupils"><path d="M1062.42,390.92a6.39,6.39,0,1,0,6.41,6.39A6.39,6.39,0,0,0,1062.42,390.92Zm192.12,5.79c-3.54,0-3.67,3.24-3.84,5.87a6.2,6.2,0,0,0,6.38,6.39c3.59,0,2.12-5.31,2.12-5.31S1258,396.67,1254.54,396.71Z" style="fill:#ff7070;stroke:#606060;stroke-linecap:round;stroke-linejoin:round;stroke-width:2.259835294213701px"/></g><g id="teethUpper3"><path d="M1259.46,567.39c-11.62-1.64-36.85,7.65-50.5,11.36,5.92-8.12,16.76-24.06-.13-16.72-19.57,5.06-30.45,29-18.4-9.76,12.48,2.89,46.87,9.85,69,15.25" style="fill:#f5fffe;stroke:#606060;stroke-linecap:round;stroke-linejoin:round;stroke-width:2.259835294213701px;fill-rule:evenodd"/></g><g id="shadow"><path d="M1205.29,632.84c-26.22,25.7-87.61,24-124.72,22.37-48.25-4.45-97.37-6.82-136.51-32,6.65,11.58,49.68,40.4,80.22,44.67,10.07,4.49,30.67-2.46,23.46,2.55C1011.41,695.65,972.31,746.54,966,757c-47,78-98.32,152.72-52,323-35.34,0-109.94,1.64-155.82,1.64-25.7-52.36-38.84-99.58-38.23-187.79.3-47.26,17.06-120,39.27-144.2,6.65-7.22,78-42.25,84.54-46.14,14.21-8.38,0,1.51,14.21-5.83-14.17-2.25-36.63-30.63-52.18-57.07-22.47-38.19,86-147.31,134.09-176,5.1,51.36,19.18,108.47,72.23,135.3C1092,640.35,1155.87,637,1205.29,632.84Z" style="fill-rule:evenodd;opacity:0.13510000705718994;isolation:isolate"/></g></svg>