<svg xmlns='http://www.w3.org/2000/svg' xmlns:xlink='http://www.w3.org/1999/xlink' viewBox='0 0 2500 2500'>
  <defs>

    <style>
      .bg,
      .body,
      .underbody,
      .nostrils,
      .eyes,
      .pupils,
      .mouth,
      .teeth,
      .fins,
      .gills {
        stroke: #606060;
      }

      .body,
      .underbody,
      .nostrils,
      .eyes,
      .pupils,
      .mouth,
      .teeth,
      .fins,
      .gills {
        stroke-width: 5px;
      }

      .bg,
      .nostrils,
      .eyes,
      .pupils,
      .mouth,
      .teeth,
      .fins,
      .body,
      .underbody,
      .gills {
        stroke-linecap: round;
        stroke-linejoin: round;
      }

      .bg {
        stroke-width: 5px;
        fill: url(#linear-gradient);
      }

      .bg,
      .body,
      .underbody,
      .nostrils,
      .eyes,
      .pupils,
      .mouth,
      .teeth,
      .fins,
      .gills,
      .shadow {
        fill-rule: evenodd;
      }
     
      .mouth {
        fill: #f27aab;
      }

      .teeth {
        fill: #ffeaea;
      }

      .fins,
      .body {
        fill: #d3463e;
      }

      .underbody {
        fill: #fff3f5;
      }

      .gills {
        fill: #ffc0c0;
      }

      .nostrils {
        fill: #ff4550;
      }

      .eyes {
        fill: #ffc0c0;
      }

      .pupils {
        fill: #ffffff;
      }

      .shadow {
        opacity: 0.14;
        isolation: isolate;
      }

    </style>

    <linearGradient id='linear-gradient' x1='-419.5' y1='250' x2='2079.5' y2='250' gradientTransform='matrix(0, 1, 1, 0, 1000, 420)' gradientUnits='userSpaceOnUse'>
      <stop offset='0' stop-color='#ffee6f' />
      <stop offset='1' stop-color='#f9d559' />
    </linearGradient>

  </defs>

  <g id='background'>
    <path class='bg' d='M2500,.5v2499H0V.5Z' />
  </g>
  <g id='mouth'>
    <path class='mouth' d='M1255.37,1044.18S1207.93,1204,1395.14,1298c222.17,116.6,237.2,132.09,333.44,161.81,101.44,19.29,154.8-22.2,160.08-37.06s14.66-50.91-67.29-122c-80.86-70-49.26-45.12-120.83-70.58-62.28-27.72-92.51-49.37-325.25-76.55C1351.16,1071.08,1255.37,1044.18,1255.37,1044.18Z' />
  </g>
  <g id='teeth1'>
    <path class='teeth' d='M1341.1,1247.93c52.72-35.88,43.42-57.52,29.8,30.46,77.67-32.61,41.24-47.25,44.15,30.66,70-27.09,37.66-73.76,41.84,24.08,54.18-31,54.07-61.14,45.06,17.68,2.18,7.34,43.72-36.33,49.55-41.76,2.37,8.24-.51,40.71-3.34,60.28,15.12-15.13,32.4-35.23,47.61-41.93-17.94,62.87-47.21,78.71,32.19,12.3-10.66,23-12.69,42.14-13,54.37,34.24-18.3,69.4-64.42,49.91-27.45-43.71,74,10.42,20.56,39.65,2.89-3,8.88-13.21,30.89-17.12,44.66,10.1-5.43,33.6-25.27,52.72-37.14-5.74,16.94-18.21,37.78-23.22,49.65,20-12,37.42-29.45,57.55-43.13-15.76,23.11-19.4,46.66-23.68,53,15.21-8.79,57.91-48.38,65.83-54.81-25.76,73.93-13.56,60.07,30.14-4.89,0,0-19.21,53.18-10.56,51.73,27.59-14.95,43.14-78.84,43.41-23.34,27.34-24.91,10.07-21.14,12.35-24.31-22.59,195-563.67,79.45-559-89.7' />
  </g>
  <g id='teethUpper2'>
    <path class='teeth' d='M1927.79,1309.05c-28.13-3-71.45,29.48-101.41,30.65,13.66-18.75,38.76-55.7-.31-38.69-45.26,11.69-61.83,49.39-41-17.56,5.37-23.82-43.42,21.16-66.19,35.39,1.21-25.12,4.17-47.87,6.5-60.07-8,5.47-42.34,40.35-69.84,52.67,1.82-11.69,41.15-74.11,9-54.09-68.47,50.92-55.72,59.25-43.25-19.39-26.5,7.89-36.15,47.93-65.74,54.09,4.1-22.92,14.57-47.29,8.47-72.12-.91-22.64-47.81,56.36-61.74,60.8,1.82-11.78,20-69.65,20-93.8-8.74,14.86-53,52.48-65.66,64.17-4.19-14.77,2.82-42.74-2.06-66.69-10.74,11.51,9.5-12.05-60.13,49.11-3-94.94,32.81-78.91-66.38-8.51,29.14-124.39,40.7-120.86,164-109.17,95.43,21.74,205.88,10.06,284.37,69.58' />
  </g>

  <g id='finRight'>
    <path class='fins' d='M1250.9,1720.85c261.79,90.86,485.24,344.81,485.24,344.81s22.4,21.2,42.16,5.89c19-13.41,27-28.45,24.68-39.78-1.92-48.19-79-372.89-282.46-537C1382.39,1417,1196.91,1578.16,1250.9,1720.85Z' />
  </g>
  <g id='finTop'>
    <path class='fins' d='M719.87,1036.57c75.75,0,484.69-188,398-303.68s-516-344.18-745-158.91C514.26,623.63,740.17,819.68,719.87,1036.57Z' />
  </g>
  <g id='body'>
    <path class='body' d='M2071.77,1291.78c-53.45,20.56-79.49,34.15-123.47,23.55-20.94-5.79-294-80.08-392.72-105.9-32-8.34-68.53-43.6-123.38-35.43-99.89-19.66-52.36-20.29-149.52-107.45,44.35,147.41,69,213.54,128,254.49,44.89,29.72,260,113.52,362.49,122.4,127.3,5.8,136.49-69.22,68.11-125.84-84.23-64,188.85,71.93-40.61,181.65-131.3,49.55-254.32,29-261.6,36.51-131.12,49.64-341.21,375.85-341.21,375.85-63.11,193.7-117.55,227.28-17.3,588.39-52.15,0-323.71,8.92-524.13-.5,0,0-440.95-841.53-69.72-1413.29,24.22-39.32,118.1-177.11,224-246.69,258.42-196.69,595.32-242.08,886.61-137.35,159.53,55.36,237.38,151.12,329.35,221.51,79.71,64.1,154.16,128.92,197.68,183.28C2275,1166.66,2219.37,1197.65,2071.77,1291.78Z' />
  </g>
  <g id='bodyUnder'>
    <path class='underbody' d='M2075.51,1291.78c-53.45,20.56-67.77,36.82-123.48,23.55-20.94-5.79-299.2-65.95-397.91-91.77C1502,1209.19,1502,1197,1435.93,1174c-99.89-19.66-50.81-11.23-148-98.39,44.35,147.41,63.83,204.48,122.75,245.43,44.89,29.72,263.79,113.52,366.13,122.4,127.3,5.8,136.5-69.22,68.11-125.84-84.22-64,188.85,71.93-40.61,181.65-131.3,49.55-254.32,29-261.6,36.51-131.12,49.64-276,268-329.53,382.31-32.6,69.58-132.87,220.82-32.62,581.93-103.56,0-290.61-.5-290.61-.5s-94.81-236.89-75.69-481.86C854.81,1742,1091.47,1506.49,1142.46,1465c57.43-59.76,133.44-84.07,107.54-186.61-74.29-294.06-91.43-350.45,158.34-234.12,71.57,24.82,300.48-41,434-22.11,171.64,24.28,298.39,97.76,302.49,3.63,30.87,23.55,47.9,40,83.23,81.35C2278.74,1166.66,2223,1197.65,2075.51,1291.78Z' />
  </g>
  <g id='teeth2'>
    <path class='teeth' d='M1829.57,1298c17.78-2.46,19-5.32,28-3.81-.45,8,0,45.56,1.67,52.81,9.92-5.89,22.46-24.94,27.74-34.82,2.82,11.24-29.32,84.35-4.92,60.52,34.33-58,10.08,31.69-2.39,32.59,0,0-5.44-16-7.44-20.18-5.83-11.59-44.87-70.17-54.34-79' />
  </g>
  <g id='gills'>
    <path class='gills' d='M984.66,1134.5c-1.19-4.35,8.83,42.49,12.84,53.36,28.22,78.1,51,110.62,117.19,162.44-44.71-40.31-67.2-114.6-83.59-175.94-10.57-39.95-7.56-94.94,17.3-14.94,25.22,63.41,74.66,115,121.1,163-40.15-39.68-64-91.87-73.12-147.22-9.56-47.65-14.93-107,10.66-149.39,4.19,83.44,26.31,168.6,89,229.39,5.37,6.07,12,14.31,17.12,19.38-76.95-91.14-71.39-222-92.52-328.14-63.74,67.59-75.94,146.68-41.24,231.21-12.48-30.35-45.44-99.84-44.53-172.23-3.73-43.58-22.49,35.79-23.95,50.65-3.64,36-6.65,59.06-1.46,94.58,2.92,19.66,4.65,40.86,7.29,47.47-19.85-49.37-19.49-84-28.5-125.93-.46-4.26.09-9-.55-13.23-5.73,31.71-10,44.85-3,75.56' />
  </g>
  <g id='tail'>
    <path class='fins' d='M1706.29,2501.25s38,33.25,76.31-139.61a27.09,27.09,0,0,0-.09-11.51c-31-141.69,64.74-251.77,82.86-256.3s-83.5,137.35-23.95,250c21.94,31.89,57.56,54.9,88,75.92-11.92,8.06-55.27,5.53-77.85,3.71-8.19-.72-15.12,5-16.93,13.5l-18.39,64.24C1818.93,2504.42,1706.29,2501.25,1706.29,2501.25Z' />
  </g>
  <g id='finLeft'>
    <path class='fins' d='M258.21,2148.46c-12.38-3.8,3.92-66.31,7.83-85.7,34.33-169.78,99-436,355.12-598.85C906.44,1282.54,887,1576,1013.89,1615.21,677.62,1751.1,429.76,2019.54,321.22,2109.6,297,2129.8,268.78,2155.44,258.21,2148.46Z' />
  </g>

  <g id='nostrils'>
    <path class='nostrils' d='M2124.49,1111.18s11.2,8.61,36.52,17.85C2177.58,1122.69,2139.52,1106.83,2124.49,1111.18Z' />
  </g>
  <g id='nostrilRight'>
    <path class='nostrils' d='M1870.73,1085.85c6.37,12.87-5.1,28.63,62.28,33.88C1870.73,1085.85,1840.77,1072.35,1870.73,1085.85Z' />
  </g>

  <g id='eyes'>
    <path class='eyes' d='M1394.32,854.65c-24,6.52,118,23.74,108.81,63.51-17.67-19.3-59.19-24.19-84-27.45-105.9-7.07-47.35-11.51-8.84,20.2,10.2,18.93,32,44.21,97.07,31.53,20.85-2.36,40.43,23.46,51,30.16,60.73-7,87.14-6.34,4.28-11.23-15.66-3.89-41.61-28-51.72-38,.91-9.6-6.37-26.91-10.2-34.52C1476.27,879.47,1422.45,849.3,1394.32,854.65Z' />
  </g>
  <g id='eyeRIghtBG'>
    <path class='eyes' d='M1903,870.32c-12,8.43-27.87,23-22.13,33.7,12.66,23.56,34.51,41.68,58.18,56.72,41.43,26.18,58,24.46,58,24.46s-45.9-22.92-49.81-32.53c-3.73-9.33-1.28-30.71-10.11-36.24-13.66-8.6-36.42-6.43-47.26-12.14C1893,894.6,1890.48,890.53,1903,870.32Z' />
  </g>
  <g id='eyeLeftPupil'>
    <path class='pupils' d='M1472.26,919.7a14.85,14.85,0,1,1,14.84,14.76A14.81,14.81,0,0,1,1472.26,919.7Z' />
  </g>
  <g id='eyeRightPupil'>
    <path class='pupils' d='M1942.57,934.37s3.36,12.33-4.92,12.33-15.39-6.62-14.84-14.77c.36-6.07.72-13.59,8.92-13.59C1939.92,918.16,1942.57,934.37,1942.57,934.37Z' />
  </g>

  <g id='teeth3'>
    <path class='teeth' d='M1943.24,1313.39c-26.9-3.83-85.27,17.68-116.86,26.31,13.66-18.75,38.76-55.7-.31-38.69-45.26,11.69-70.46,67.24-42.65-22.62,28.89,6.73,108.55,22.79,159.82,35.3' />
  </g>
  <g id='shadow'>
    <path class='shadow' d='M1817.84,1464.86c-60.66,59.48-202.85,55.58-288.73,51.82-111.66-10.27-225.43-15.84-316-74.09,15.45,26.8,115,93.52,185.72,103.44,23.33,10.38,71-5.65,54.26,5.93-84.06,58.36-174.63,176.24-189.17,200.42C1155.27,1933,1036.3,2105.86,1143.54,2500c-81.78,0-254.52,3.82-360.71,3.82-59.5-121.22-89.86-230.53-88.47-434.66.74-109.4,39.48-277.94,90.93-333.76,15.37-16.68,180.55-97.8,195.72-106.75,32.88-19.4,0,3.53,32.88-13.48C981,1609.7,929,1544,893,1482.83c-52-88.37,199-341,310.43-407.26,11.79,118.86,44.44,251.07,167.18,313.18C1555.59,1482.33,1703.42,1474.51,1817.84,1464.86Z' />
  </g>
<path id="Neck" fill="#CCCFCB" stroke="#606060" stroke-width="5.2311" stroke-linecap="round" stroke-linejoin="round" stroke-miterlimit="1.728" d="
	M915.1,749.6c-106.8,355.6,232.4,800.8,331.7,940.5c-4.8,3.4-34.8-2.3-39.1,2c-11.7,11.7-19.9,77.8-18.2,90.3
	c0.4,2.5,38.2,10.5,47.8,10.5c15.5,0,15.1-94.1,16.8-99.3c0.8-2.4-2.3,53-4.2,60.4c2.9,14.2,1.7,21.9,10.7,26.3
	c6.6,3.2,34.5-3.8,40.3-16.6c5.2-11.5-17.7-60.5-20.3-67.3c-3.3-8.8-36.6-3.4-25.2-8.3c7.6-3.3,125.5-33.1,174.3-84.6
	c9.4-9.9,19.3-16.6,24.6-22.6c-51.5,46.2-194.6,95.4-200.1,90.9c-111.1-162.4-409.3-600.2-315.9-922c4.1-4.8,12.5-5,10.9-7.6
	C943.9,733.8,917.8,740.8,915.1,749.6z"/>
<path id="Head" fill="#D3D3D3" stroke="#606060" stroke-width="5.2311" stroke-linecap="round" stroke-linejoin="round" stroke-miterlimit="1.728" d="
	M1105.1,677.5c2.7,1,526.4,22.8,528.6,22.7c42.4-14.9,60.8-44.6,65.4-79.2c24.2-1.8,270.8,13.7,281.4,15
	c-5.5,28.5,4.5,84.1,17.4,108.4c7.6-12.1,23.3-88.8,21.2-107.4c26.9,2.1,54.6,3.9,54.6,3.9s18.3,7.8,18.4,7.5c0.9-2.8,2-32,0.9-32.9
	c-0.6-0.5-6.9,5.8-17.5,6.4c-26.8,1.4-54.1,0.9-53.8-2.1c1.7-18.5,9-54,6.3-111.1c-7.3-0.6-48,58.8-45.8,108
	c-1.4,1.6-244.3-11.1-276.1-17.4c-3.2-16.6,11.3-40.8-25-100.4c-158-9.9-547.5-23.1-553.8-19.5
	C1041.5,528.5,1054.4,659.2,1105.1,677.5z"/>
<g id="Clothing">
	
		<path fill="#C3D1C0" stroke="#606060" stroke-width="5.2311" stroke-linecap="round" stroke-linejoin="round" stroke-miterlimit="1.728" d="
		M1503.4,1587.6c13.2,9.1,181.5,130.5,191.6,128.4c17.5-3.7,30.1-42.2,24.8-76.2c-3.8-24.5-133.5-111-138.8-114.2
		c-11.3-0.7-23.9-3.3-33.4,0.5c-6.1,2.4-64.4,34.6-70.3,37.7C1468.8,1568.3,1492.7,1580.2,1503.4,1587.6z"/>
	
		<path fill="#C3D1C0" stroke="#606060" stroke-width="5.2311" stroke-linecap="round" stroke-linejoin="round" stroke-miterlimit="1.728" d="
		M438.6,1621.7c89.7-53.2,205.3-20.9,304.7,79.7c26.9,27.3,175.4-103.9,242.5-127.5c33.6-64.4,3.2-123.4-81.4-186.2
		c-98.3-72.9-106.2-46.5-199.3-23.1c-112.7,28.2-186.8,110.9-273,196.7c-32.8,27.9-9.1,51.2,6.7,60.1"/>
	
		<path fill="#71A471" stroke="#606060" stroke-width="5.2311" stroke-linecap="round" stroke-linejoin="round" stroke-miterlimit="1.728" d="
		M1225,1510.5c22,134.3-107.3,210.9-121.3,210.9c-9.4,0-62-70.3-93.8-114c-14.9-6.7-24.4-18-35.8-27.3c5.1-3,11.7-6.3,11.4-6.7
		c12.2-39.1,4.8-62.9-0.3-83.2c-18.7-63.4-167.6-176.3-239.8-135.8c-18.3,0-114.6-157.8-117-327.9c-0.6-44.1,78.1-176,169-226.8
		c13.4-7.7,42.9-22,49.1,2.9C827.8,1009.8,868.2,1211.7,1225,1510.5z"/>
	
		<path fill="#71A471" stroke="#606060" stroke-width="5.2311" stroke-linecap="round" stroke-linejoin="round" stroke-miterlimit="1.728" d="
		M431.6,1562.5c153.9-161.2,197.9-173.7,309.7-210c-59.7-66.9-111.8-199.3-110.9-342.2C522.6,1181.3,445.5,1253.6,431.6,1562.5z"/>
	
		<path fill="#71A471" stroke="#606060" stroke-width="5.2311" stroke-linecap="round" stroke-linejoin="round" stroke-miterlimit="1.728" d="
		M1490.7,1557.2c17.7,12.3,30.7,21.1,37.6,41.6c-21.8,75.7-111.4,191.9-226.6,164.3C1368.9,1668.8,1433.4,1587.2,1490.7,1557.2z"/>
</g>
<path id="Mouth" fill="#70A470" stroke="#606060" stroke-width="5.2311" stroke-linecap="round" stroke-linejoin="round" stroke-miterlimit="1.728" d="
	M1904.4,1410.3c-2.7,8.3-3.6,26.4-7,28.7c-0.8,0.5-7.1,0.6-16.5,0.1c-6.2,6.3-5.7,7.1-20.2,17.9c-24.6,33.3-13.3,84.5-1.1,100.1
	c1.7,2.2,13.9,3.2,15,5.5c0.5,1,2.9,11.9,2.9,11.9s21.5,5.7,22.2,3.4c0.7-2.4,2.9-10.2,4.4-11.8c1-1,11.6,1.6,15.8-0.5
	c18.1-8.9,53.7-70.2,24.9-112.7c-3.7-5.4-17.8-5.3-23.2-9.3c3.1,0.3,19.5-1.1,19.5-1.1s9.3,4.1,16.9,2.8
	c7.5,0.2,11.4,45.6-6.5,108.5c-1.1,3.9-0.2,3.5,6.1,3.5c6.3,0,36.1-122.7,2.7-122.4c-7-1-16.2-2.1-15.8-4.2c0.8-4.2,1-9,2.4-13.4
	c-10.6-3.8-37.1-8-37.1-8s-11.7-47.7-22.9-53.9C1883.2,1365.2,1899.3,1392.7,1904.4,1410.3z"/>
<path id="FinRight" fill="#70A470" stroke="#606060" stroke-width="5.2311" stroke-linecap="round" stroke-linejoin="round" stroke-miterlimit="1.728" d="
	M1845.6,1904.7c-5.4,0.8-168.6,208.3-168.3,210.7c1,6.8,53.2,71,73.8,87.4c23.6-22.2,45.1-36.8,46.2-36.8
	c12.7,14.4,24.3,28.4,57.6-15.2c33.3-43.5,15.6-72.5-6.4-65.7c11-17,16.1-24.8,23.7-35.8c3,15,29,16.6,55.4-31.4
	c26.4-48.1,17.4-58.5-12.3-61.2c6.4-8.5,18.5-18.3,12.7-24.1c-9.1-9.1-23-13.9-43.1-22.8c4.9-7,93.2-158,93.4-158.9
	c0.2-0.8-7.8-5.3-8.4-4.7c-2,2-97.9,157.9-98.9,158.6C1859.5,1904.1,1846.8,1904.6,1845.6,1904.7z"/>
<g id="Eyes">
	
		<path fill="#CACACA" stroke="#606060" stroke-width="5.2311" stroke-linecap="round" stroke-linejoin="round" stroke-miterlimit="1.728" d="
		M1069.5,965.2c19.3,6.9,67,8.4,80.8,5.4c14-3.1,12.3-37.2,19.2-57.3c5.5-5,171.3,13.8,192.3,14.7c-2.5-19-9.3-74.6-12.9-99.3
		c-10.6-0.2-166.9,5.7-166.8,4.8c1.3-25,14.8-66.5,16.1-77.4c-15.8-12.3-52.2-8.9-73.9-7.2C981.3,779.5,1028.3,961.9,1069.5,965.2z"
		/>
	
		<path fill="#B9FF9E" stroke="#606060" stroke-width="5.2311" stroke-linecap="round" stroke-linejoin="round" stroke-miterlimit="1.728" d="
		M1381,793.1h222.5c18.3,0,33.1,15,33.1,33.5L1622.4,945c0,18.5-18.9,32.3-37.2,32.3l-184.2,0.4c-18.3,0-38.4-15.8-38.4-34.3
		l-14.9-116.8C1347.8,808.1,1362.7,793.1,1381,793.1z"/>
	
		<path fill="none" stroke="#75FF6D" stroke-width="5.9391" stroke-linecap="round" stroke-linejoin="round" stroke-miterlimit="1.728" d="
		M1507.5,832.1h10.2c29.3,0,53.2,25,53.2,55.8l0,0c0,30.8-23.8,55.8-53.2,55.8h-10.2c-29.4,0-53.1-25-53.1-55.8l0,0
		C1454.4,857.1,1478.2,832.1,1507.5,832.1z"/>
	
		<path fill="none" stroke="#75FF6D" stroke-width="5.9391" stroke-linecap="round" stroke-linejoin="round" stroke-miterlimit="1.728" d="
		M1513,807.6l0.4,157.1"/>
	
		<path fill="none" stroke="#75FF6D" stroke-width="5.9391" stroke-linecap="round" stroke-linejoin="round" stroke-miterlimit="1.728" d="
		M1419.1,884.2l184.3,2.7"/>
</g>

</svg>