<svg xmlns='http://www.w3.org/2000/svg' xmlns:xlink='http://www.w3.org/1999/xlink' viewBox='0 0 2500 2500'>
  <defs>

    <style>
      .bg,
      .body,
      .underbody,
      .nostrils,
      .eyes,
      .pupils,
      .mouth,
      .teeth,
      .fins,
      .gills {
        stroke: #606060;
      }

      .body,
      .underbody,
      .nostrils,
      .eyes,
      .pupils,
      .mouth,
      .teeth,
      .fins,
      .gills {
        stroke-width: 5px;
      }

      .bg,
      .nostrils,
      .eyes,
      .pupils,
      .mouth,
      .teeth,
      .fins,
      .body,
      .underbody,
      .gills {
        stroke-linecap: round;
        stroke-linejoin: round;
      }

      .bg {
        stroke-width: 5px;
        fill: url(#linear-gradient);
      }

      .bg,
      .body,
      .underbody,
      .nostrils,
      .eyes,
      .pupils,
      .mouth,
      .teeth,
      .fins,
      .gills,
      .shadow {
        fill-rule: evenodd;
      }

      .mouth {
        fill: #F27A8E;
      }

      .teeth {
        fill: #F5FFFE;
      }

      .fins,
      .body {
        fill: #6E98BD;
      }

      .underbody {
        fill: #FEFEFF;
      }

      .gills {
        fill: #FCAEC1;
      }

      .nostrils {
        fill: #fcaec1;
      }

      .eyes {
        fill: #94F3FF;
      }

      .pupils {
        fill: #F0A2FF;
      }

      .shadow {
        opacity: 0.14;
        isolation: isolate;
      }
    </style>

    <linearGradient id='linear-gradient' x1='-419.5' y1='250' x2='2079.5' y2='250' gradientTransform='matrix(0, 1, 1, 0, 1000, 420)' gradientUnits='userSpaceOnUse'>
      <stop offset='0' stop-color='#ffee6f' />
      <stop offset='1' stop-color='#f9d559' />
    </linearGradient>

  </defs>

  <g id='background'>
    <path class='bg' d='M2500,.5v2499H0V.5Z' />
  </g>
  <g id='mouth'>
    <path class='mouth' d='M1255.37,1044.18S1207.93,1204,1395.14,1298c222.17,116.6,237.2,132.09,333.44,161.81,101.44,19.29,154.8-22.2,160.08-37.06s14.66-50.91-67.29-122c-80.86-70-49.26-45.12-120.83-70.58-62.28-27.72-92.51-49.37-325.25-76.55C1351.16,1071.08,1255.37,1044.18,1255.37,1044.18Z' />
  </g>
  <g id='teeth1'>
    <path class='teeth' d='M1341.1,1247.93c52.72-35.88,43.42-57.52,29.8,30.46,77.67-32.61,41.24-47.25,44.15,30.66,70-27.09,37.66-73.76,41.84,24.08,54.18-31,54.07-61.14,45.06,17.68,2.18,7.34,43.72-36.33,49.55-41.76,2.37,8.24-.51,40.71-3.34,60.28,15.12-15.13,32.4-35.23,47.61-41.93-17.94,62.87-47.21,78.71,32.19,12.3-10.66,23-12.69,42.14-13,54.37,34.24-18.3,69.4-64.42,49.91-27.45-43.71,74,10.42,20.56,39.65,2.89-3,8.88-13.21,30.89-17.12,44.66,10.1-5.43,33.6-25.27,52.72-37.14-5.74,16.94-18.21,37.78-23.22,49.65,20-12,37.42-29.45,57.55-43.13-15.76,23.11-19.4,46.66-23.68,53,15.21-8.79,57.91-48.38,65.83-54.81-25.76,73.93-13.56,60.07,30.14-4.89,0,0-19.21,53.18-10.56,51.73,27.59-14.95,43.14-78.84,43.41-23.34,27.34-24.91,10.07-21.14,12.35-24.31-22.59,195-563.67,79.45-559-89.7' />
  </g>
  <g id='teethUpper2'>
    <path class='teeth' d='M1927.79,1309.05c-28.13-3-71.45,29.48-101.41,30.65,13.66-18.75,38.76-55.7-.31-38.69-45.26,11.69-61.83,49.39-41-17.56,5.37-23.82-43.42,21.16-66.19,35.39,1.21-25.12,4.17-47.87,6.5-60.07-8,5.47-42.34,40.35-69.84,52.67,1.82-11.69,41.15-74.11,9-54.09-68.47,50.92-55.72,59.25-43.25-19.39-26.5,7.89-36.15,47.93-65.74,54.09,4.1-22.92,14.57-47.29,8.47-72.12-.91-22.64-47.81,56.36-61.74,60.8,1.82-11.78,20-69.65,20-93.8-8.74,14.86-53,52.48-65.66,64.17-4.19-14.77,2.82-42.74-2.06-66.69-10.74,11.51,9.5-12.05-60.13,49.11-3-94.94,32.81-78.91-66.38-8.51,29.14-124.39,40.7-120.86,164-109.17,95.43,21.74,205.88,10.06,284.37,69.58' />
  </g>

  <g id='finRight'>
    <path class='fins' d='M1250.9,1720.85c261.79,90.86,485.24,344.81,485.24,344.81s22.4,21.2,42.16,5.89c19-13.41,27-28.45,24.68-39.78-1.92-48.19-79-372.89-282.46-537C1382.39,1417,1196.91,1578.16,1250.9,1720.85Z' />
  </g>
  <g id='finTop'>
    <path class='fins' d='M719.87,1036.57c75.75,0,484.69-188,398-303.68s-516-344.18-745-158.91C514.26,623.63,740.17,819.68,719.87,1036.57Z' />
  </g>
  <g id='body'>
    <path class='body' d='M2071.77,1291.78c-53.45,20.56-79.49,34.15-123.47,23.55-20.94-5.79-294-80.08-392.72-105.9-32-8.34-68.53-43.6-123.38-35.43-99.89-19.66-52.36-20.29-149.52-107.45,44.35,147.41,69,213.54,128,254.49,44.89,29.72,260,113.52,362.49,122.4,127.3,5.8,136.49-69.22,68.11-125.84-84.23-64,188.85,71.93-40.61,181.65-131.3,49.55-254.32,29-261.6,36.51-131.12,49.64-341.21,375.85-341.21,375.85-63.11,193.7-117.55,227.28-17.3,588.39-52.15,0-323.71,8.92-524.13-.5,0,0-440.95-841.53-69.72-1413.29,24.22-39.32,118.1-177.11,224-246.69,258.42-196.69,595.32-242.08,886.61-137.35,159.53,55.36,237.38,151.12,329.35,221.51,79.71,64.1,154.16,128.92,197.68,183.28C2275,1166.66,2219.37,1197.65,2071.77,1291.78Z' />
  </g>
  <g id='bodyUnder'>
    <path class='underbody' d='M2075.51,1291.78c-53.45,20.56-67.77,36.82-123.48,23.55-20.94-5.79-299.2-65.95-397.91-91.77C1502,1209.19,1502,1197,1435.93,1174c-99.89-19.66-50.81-11.23-148-98.39,44.35,147.41,63.83,204.48,122.75,245.43,44.89,29.72,263.79,113.52,366.13,122.4,127.3,5.8,136.5-69.22,68.11-125.84-84.22-64,188.85,71.93-40.61,181.65-131.3,49.55-254.32,29-261.6,36.51-131.12,49.64-276,268-329.53,382.31-32.6,69.58-132.87,220.82-32.62,581.93-103.56,0-290.61-.5-290.61-.5s-94.81-236.89-75.69-481.86C854.81,1742,1091.47,1506.49,1142.46,1465c57.43-59.76,133.44-84.07,107.54-186.61-74.29-294.06-91.43-350.45,158.34-234.12,71.57,24.82,300.48-41,434-22.11,171.64,24.28,298.39,97.76,302.49,3.63,30.87,23.55,47.9,40,83.23,81.35C2278.74,1166.66,2223,1197.65,2075.51,1291.78Z' />
  </g>
  <g id='teeth2'>
    <path class='teeth' d='M1829.57,1298c17.78-2.46,19-5.32,28-3.81-.45,8,0,45.56,1.67,52.81,9.92-5.89,22.46-24.94,27.74-34.82,2.82,11.24-29.32,84.35-4.92,60.52,34.33-58,10.08,31.69-2.39,32.59,0,0-5.44-16-7.44-20.18-5.83-11.59-44.87-70.17-54.34-79' />
  </g>
  <g id='gills'>
    <path class='gills' d='M984.66,1134.5c-1.19-4.35,8.83,42.49,12.84,53.36,28.22,78.1,51,110.62,117.19,162.44-44.71-40.31-67.2-114.6-83.59-175.94-10.57-39.95-7.56-94.94,17.3-14.94,25.22,63.41,74.66,115,121.1,163-40.15-39.68-64-91.87-73.12-147.22-9.56-47.65-14.93-107,10.66-149.39,4.19,83.44,26.31,168.6,89,229.39,5.37,6.07,12,14.31,17.12,19.38-76.95-91.14-71.39-222-92.52-328.14-63.74,67.59-75.94,146.68-41.24,231.21-12.48-30.35-45.44-99.84-44.53-172.23-3.73-43.58-22.49,35.79-23.95,50.65-3.64,36-6.65,59.06-1.46,94.58,2.92,19.66,4.65,40.86,7.29,47.47-19.85-49.37-19.49-84-28.5-125.93-.46-4.26.09-9-.55-13.23-5.73,31.71-10,44.85-3,75.56' />
  </g>
  <g id='tail'>
    <path class='fins' d='M1706.29,2501.25s38,33.25,76.31-139.61a27.09,27.09,0,0,0-.09-11.51c-31-141.69,64.74-251.77,82.86-256.3s-83.5,137.35-23.95,250c21.94,31.89,57.56,54.9,88,75.92-11.92,8.06-55.27,5.53-77.85,3.71-8.19-.72-15.12,5-16.93,13.5l-18.39,64.24C1818.93,2504.42,1706.29,2501.25,1706.29,2501.25Z' />
  </g>
  <g id='finLeft'>
    <path class='fins' d='M258.21,2148.46c-12.38-3.8,3.92-66.31,7.83-85.7,34.33-169.78,99-436,355.12-598.85C906.44,1282.54,887,1576,1013.89,1615.21,677.62,1751.1,429.76,2019.54,321.22,2109.6,297,2129.8,268.78,2155.44,258.21,2148.46Z' />
  </g>

  <g id='nostrils'>
    <path class='nostrils' d='M2124.49,1111.18s11.2,8.61,36.52,17.85C2177.58,1122.69,2139.52,1106.83,2124.49,1111.18Z' />
  </g>
  <g id='nostrilRight'>
    <path class='nostrils' d='M1870.73,1085.85c6.37,12.87-5.1,28.63,62.28,33.88C1870.73,1085.85,1840.77,1072.35,1870.73,1085.85Z' />
  </g>

  <g id='eyes'>
    <path class='eyes' d='M1394.32,854.65c-24,6.52,118,23.74,108.81,63.51-17.67-19.3-59.19-24.19-84-27.45-105.9-7.07-47.35-11.51-8.84,20.2,10.2,18.93,32,44.21,97.07,31.53,20.85-2.36,40.43,23.46,51,30.16,60.73-7,87.14-6.34,4.28-11.23-15.66-3.89-41.61-28-51.72-38,.91-9.6-6.37-26.91-10.2-34.52C1476.27,879.47,1422.45,849.3,1394.32,854.65Z' />
  </g>
  <g id='eyeRIghtBG'>
    <path class='eyes' d='M1903,870.32c-12,8.43-27.87,23-22.13,33.7,12.66,23.56,34.51,41.68,58.18,56.72,41.43,26.18,58,24.46,58,24.46s-45.9-22.92-49.81-32.53c-3.73-9.33-1.28-30.71-10.11-36.24-13.66-8.6-36.42-6.43-47.26-12.14C1893,894.6,1890.48,890.53,1903,870.32Z' />
  </g>
  <g id='eyeLeftPupil'>
    <path class='pupils' d='M1472.26,919.7a14.85,14.85,0,1,1,14.84,14.76A14.81,14.81,0,0,1,1472.26,919.7Z' />
  </g>
  <g id='eyeRightPupil'>
    <path class='pupils' d='M1942.57,934.37s3.36,12.33-4.92,12.33-15.39-6.62-14.84-14.77c.36-6.07.72-13.59,8.92-13.59C1939.92,918.16,1942.57,934.37,1942.57,934.37Z' />
  </g>

  <g id='teeth3'>
    <path class='teeth' d='M1943.24,1313.39c-26.9-3.83-85.27,17.68-116.86,26.31,13.66-18.75,38.76-55.7-.31-38.69-45.26,11.69-70.46,67.24-42.65-22.62,28.89,6.73,108.55,22.79,159.82,35.3' />
  </g>
  <g id='shadow'>
    <path class='shadow' d='M1817.84,1464.86c-60.66,59.48-202.85,55.58-288.73,51.82-111.66-10.27-225.43-15.84-316-74.09,15.45,26.8,115,93.52,185.72,103.44,23.33,10.38,71-5.65,54.26,5.93-84.06,58.36-174.63,176.24-189.17,200.42C1155.27,1933,1036.3,2105.86,1143.54,2500c-81.78,0-254.52,3.82-360.71,3.82-59.5-121.22-89.86-230.53-88.47-434.66.74-109.4,39.48-277.94,90.93-333.76,15.37-16.68,180.55-97.8,195.72-106.75,32.88-19.4,0,3.53,32.88-13.48C981,1609.7,929,1544,893,1482.83c-52-88.37,199-341,310.43-407.26,11.79,118.86,44.44,251.07,167.18,313.18C1555.59,1482.33,1703.42,1474.51,1817.84,1464.86Z' />
  </g>

  <g id="Clothing">
    <path d="M859.39,2109.42c2.37,2,93.62,85.43,178.18,86.57,38.72.53,111-63,111.68-63.37.84-.42,30.76-281.11,238.18-483.15-84.91,57.62-178.57,49.07-178.57,49.07-.86-.85-74.76-23.82-149.92-188.22C1028.32,1566.7,857.83,2108.12,859.39,2109.42Z" style="fill:#f0f0f0;stroke:#606060;stroke-linecap:round;stroke-linejoin:round;stroke-width:3.9973625457044193px" />
    <path d="M1211,1701.33c-133.23,211.45-155.15,389.77-177.8,489" style="fill:none;stroke:#606060;stroke-linecap:round;stroke-linejoin:round;stroke-width:3.9973625457044193px" />
    <path d="M685.58,948.84C585,1057,412.9,1327,437.81,1633c134-178.5,286.17-222.89,312.88-226.44,96.66-13.36,125.73,53.6,148,81,16.48,20.25,61.38,117,114.45,126.76C848.78,1674.79,644,1810,522.78,1929.73c-.23.22-1.22,1-1.56,1.28.41-.29,1.43-1.14,1.65-1.25,4.11-2,362.36,292.39,393.49,327.13-32.44-164.48,38.37-433.41,199.81-741.58,18.33,6.21,29.37,6.43,40.35,18.84,27.28,40.52,33,114.69,36.35,113,2-1,85.42-202.51,84.76-203.17s-118.41-10.37-160.12-52.47S750.89,1147.7,685.58,948.84ZM521.22,1931c-2.05,1.44-6.08,4.74-11.53,9.33C515,1936.17,519.05,1932.93,521.22,1931Zm-11.53,9.33c-13.66,10.68-33.28,25.79-38.75,32.3,7.48,237.33-64.51,240.22-186.32,216.76C403.73,2343,503,2310.17,548.86,2238.71,536,2209.14,481,1990.42,476.25,1968.32,487.63,1959.11,500.23,1948.32,509.69,1940.34Zm993.44-389.08c-51.49,28.79-305.4,115.23-426.81,653.2-1,4.24,100.64,76.54,102.52,75.92-16.62-364.55,98.8-485.7,229.07-607.26,4,2,17.65,15.5,1.32,75.89,5.22-1.31,111.8-133.08,113.21-134.48C1507.32,1590.29,1504.27,1550.63,1503.13,1551.26Z" style="fill:#3d3d3d;stroke:#606060;stroke-linecap:round;stroke-linejoin:round;stroke-width:3.9973625457044193px" />
  </g>
  <path id="Head" d="M1446.61,83.73c-3.25,14.64-97.44,439.42-102,462.6-5.13-17.84-127.81-86.9-143.24,43.81-3.77,49.54,9.21,61.3,31.57,67.86,125.23,36.78,193.87,56.39,280.44,43.1,56.57-8.68,56.62-20.52,109-18.46,44,1.74,159.59,56,205.64,82.73,29.55-18.29,47.54-90.43,20.21-108.18-18.17-10.21-46.07-29.16-112-14.27,34.3-80.28,139.91-315.16,161.55-386C1816.79,142.1,1613,83.34,1446.61,83.73Z" style="fill:#3d3d3d;stroke:#606060;stroke-linecap:round;stroke-linejoin:round;stroke-width:3.9973625457044193px" />
  <g id="Eye">
    <path d="M2025.32,1309.89a2,2,0,0,0-2.27,1.83c-5,45.54-11.64,90.88-21.21,135.71A821,821,0,0,1,1977,1539a524.18,524.18,0,0,1-30.1,72.18,331.89,331.89,0,0,1-33,52.27c-5,6.47-10.43,12.71-16.09,18.65a388.14,388.14,0,0,1-29,26.88,432,432,0,0,1-70.27,49.32,339.82,339.82,0,0,1-84.78,33.57,312.93,312.93,0,0,1-107.9,6.74c-55.79-6.16-109.18-26.62-157.43-54.83-15.68-9.17-30.84-19.2-45.57-29.83-5.31-3.84-10.55-7.78-15.83-11.67-1.8-1.34-3.61-2.67-5.46-3.94a23,23,0,0,0-3.19-1.94c-8.5-4-17.94-5.57-27-7.55a2.07,2.07,0,1,0-.87,4.05c8.8,1.93,17.93,3.43,26.16,7.25a24.11,24.11,0,0,1,3.69,2.41c1.7,1.2,3.39,2.44,5.06,3.67,5,3.72,10,7.44,15.06,11.1,14.83,10.71,30.11,20.8,45.9,30,48.75,28.51,102.71,49.15,159.08,55.37a316.94,316.94,0,0,0,111.18-7.31,348,348,0,0,0,84.94-34c25-13.87,48.28-30.7,70-49.22a392.78,392.78,0,0,0,29.33-27.2c5.75-6,11.16-12.38,16.29-19a335.57,335.57,0,0,0,33.42-52.93,526.41,526.41,0,0,0,30.35-72.74,833.14,833.14,0,0,0,25.18-93.15c9.52-44.57,16-89.69,21-135A2.09,2.09,0,0,0,2025.32,1309.89Z" style="fill:#606060" />
    <path d="M2027.28,902.4a2,2,0,0,0-1.59.07,2.1,2.1,0,0,0-1,2.78,7.56,7.56,0,0,1,.5,2.15c.29,1.58.51,3.16.72,4.75.63,4.83,1.11,9.7,1.56,14.55a2.09,2.09,0,1,0,4.16-.4c-.49-5.24-1-10.44-1.72-15.65-.21-1.53-.42-3.07-.72-4.59a11.65,11.65,0,0,0-.75-2.59A2,2,0,0,0,2027.28,902.4Z" style="fill:#606060" />
    <path d="M1956.39,803.22h0c41.15,0,74.5,34,74.5,76v.21c0,42-33.35,76-74.5,76h0c-41.14,0-74.5-34-74.5-76v-.21C1881.89,837.25,1915.25,803.22,1956.39,803.22Z" style="fill:#fcfcfc;stroke:#606060;stroke-linecap:round;stroke-linejoin:round;stroke-width:4.157656697631854px" />
  </g>
  <path id="Mouth" d="M1828.72,1398.88c-8.88-10.88-8.7-50.1,10.78-50.75,13.69.62,366,24.5,387.5,39.36,11.64,8,3.08,54.08-9.22,58.44-21.52,7.61-331.58-36.4-340.59-43.27-3.9-11.29-6.58-19.48-6.58-19.48s-8.75,19.72-12,20.19c-2,.29-15.89-3.1-19.63-3.35-1-3.11,5-19.36,5.06-20.07C1844.2,1374.92,1839,1387.55,1828.72,1398.88Z" style="fill:#b27c57;stroke:#606060;stroke-linecap:round;stroke-linejoin:round;stroke-width:3.9973625457044193px" />
  <g id="FinRight">
    <path d="M1709.87,1900.43c-1.17.6-49.22,213-47.56,215.08,1,1.26,205-45.08,211-50.3,2.57-2.25,69.4-236.12,68.65-236.67C1939.48,1826.77,1710.7,1900,1709.87,1900.43Z" style="fill:#e5e5e5;stroke:#606060;stroke-linecap:round;stroke-linejoin:round;stroke-width:5.227650885551728px" />
    <path d="M1710.52,1902.46l50.1,111.15,113.23,50.87" style="fill:none;stroke:#606060;stroke-linecap:round;stroke-linejoin:round;stroke-width:4.157656697631854px" />
  </g>
  <g id="FinLeft">
    <path d="M134.92,1430.36c63.57,25.14,75.28,40.67,76.54,41.76,1.88,1.62,272.63,95,277.36,99.1L516,1543.33c-5.18-.91-278.71-94.18-292.52-99.87C216.07,1440.39,202.4,1448.38,134.92,1430.36Zm743.27,248.12-42.83,23.4c7.56,3.77,490.68,176.36,490.28,181.38-4.14,52.23,73.81,63.9,93.2,13,19.78-52-36.07-93.71-78.83-52.52C1338.88,1844.78,877.09,1677.92,878.19,1678.48Z" style="fill:#a26b45;stroke:#606060;stroke-linecap:round;stroke-linejoin:round;stroke-width:3.9973625457044193px" />
    <path d="M1375.2,1821.38h4.35a55.8,55.8,0,0,1,55.8,55.8v3.55a55.79,55.79,0,0,1-55.8,55.79h-4.35a55.79,55.79,0,0,1-55.8-55.79v-3.55A55.8,55.8,0,0,1,1375.2,1821.38Z" style="fill:#dcec5d;stroke:#606060;stroke-linecap:round;stroke-linejoin:round;stroke-width:3.9973625457044193px" />
  </g>

</svg>