<svg xmlns='http://www.w3.org/2000/svg' xmlns:xlink='http://www.w3.org/1999/xlink' viewBox='0 0 2500 2500'>
  <defs>

    <style>
      .bg,
      .body,
      .underbody,
      .nostrils,
      .eyes,
      .pupils,
      .mouth,
      .teeth,
      .fins,
      .gills {
        stroke: #606060;
      }

      .body,
      .underbody,
      .nostrils,
      .eyes,
      .pupils,
      .mouth,
      .teeth,
      .fins,
      .gills {
        stroke-width: 5px;
      }

      .bg,
      .nostrils,
      .eyes,
      .pupils,
      .mouth,
      .teeth,
      .fins,
      .body,
      .underbody,
      .gills {
        stroke-linecap: round;
        stroke-linejoin: round;
      }

      .bg {
        stroke-width: 5px;
        fill: url(#linear-gradient);
      }

      .bg,
      .body,
      .underbody,
      .nostrils,
      .eyes,
      .pupils,
      .mouth,
      .teeth,
      .fins,
      .gills,
      .shadow {
        fill-rule: evenodd;
      }
.mouth{fill:#ff7eda;}.teeth{fill:#fffcf0;}.fins,.body{fill:#ffa0b9;}.underbody{fill:#ffe7e7;}.gills{fill:#e86dce;}.nostrils{fill:#ff7eda;}.eyes{fill:#e86dce;}.pupils{fill:#2bffae;}.shadow{opacity:0.14;isolation:isolate;}

    </style>

    <linearGradient id='linear-gradient' x1='-419.5' y1='250' x2='2079.5' y2='250' gradientTransform='matrix(0, 1, 1, 0, 1000, 420)' gradientUnits='userSpaceOnUse'>
      <stop offset='0' stop-color='#ffee6f' />
      <stop offset='1' stop-color='#f9d559' />
    </linearGradient>

  </defs>

  <g id='background'>
    <path class='bg' d='M2500,.5v2499H0V.5Z' />
  </g>
  <g id='mouth'>
    <path class='mouth' d='M1255.37,1044.18S1207.93,1204,1395.14,1298c222.17,116.6,237.2,132.09,333.44,161.81,101.44,19.29,154.8-22.2,160.08-37.06s14.66-50.91-67.29-122c-80.86-70-49.26-45.12-120.83-70.58-62.28-27.72-92.51-49.37-325.25-76.55C1351.16,1071.08,1255.37,1044.18,1255.37,1044.18Z' />
  </g>
  <g id='teeth1'>
    <path class='teeth' d='M1341.1,1247.93c52.72-35.88,43.42-57.52,29.8,30.46,77.67-32.61,41.24-47.25,44.15,30.66,70-27.09,37.66-73.76,41.84,24.08,54.18-31,54.07-61.14,45.06,17.68,2.18,7.34,43.72-36.33,49.55-41.76,2.37,8.24-.51,40.71-3.34,60.28,15.12-15.13,32.4-35.23,47.61-41.93-17.94,62.87-47.21,78.71,32.19,12.3-10.66,23-12.69,42.14-13,54.37,34.24-18.3,69.4-64.42,49.91-27.45-43.71,74,10.42,20.56,39.65,2.89-3,8.88-13.21,30.89-17.12,44.66,10.1-5.43,33.6-25.27,52.72-37.14-5.74,16.94-18.21,37.78-23.22,49.65,20-12,37.42-29.45,57.55-43.13-15.76,23.11-19.4,46.66-23.68,53,15.21-8.79,57.91-48.38,65.83-54.81-25.76,73.93-13.56,60.07,30.14-4.89,0,0-19.21,53.18-10.56,51.73,27.59-14.95,43.14-78.84,43.41-23.34,27.34-24.91,10.07-21.14,12.35-24.31-22.59,195-563.67,79.45-559-89.7' />
  </g>
  <g id='teethUpper2'>
    <path class='teeth' d='M1927.79,1309.05c-28.13-3-71.45,29.48-101.41,30.65,13.66-18.75,38.76-55.7-.31-38.69-45.26,11.69-61.83,49.39-41-17.56,5.37-23.82-43.42,21.16-66.19,35.39,1.21-25.12,4.17-47.87,6.5-60.07-8,5.47-42.34,40.35-69.84,52.67,1.82-11.69,41.15-74.11,9-54.09-68.47,50.92-55.72,59.25-43.25-19.39-26.5,7.89-36.15,47.93-65.74,54.09,4.1-22.92,14.57-47.29,8.47-72.12-.91-22.64-47.81,56.36-61.74,60.8,1.82-11.78,20-69.65,20-93.8-8.74,14.86-53,52.48-65.66,64.17-4.19-14.77,2.82-42.74-2.06-66.69-10.74,11.51,9.5-12.05-60.13,49.11-3-94.94,32.81-78.91-66.38-8.51,29.14-124.39,40.7-120.86,164-109.17,95.43,21.74,205.88,10.06,284.37,69.58' />
  </g>

  <g id='finRight'>
    <path class='fins' d='M1250.9,1720.85c261.79,90.86,485.24,344.81,485.24,344.81s22.4,21.2,42.16,5.89c19-13.41,27-28.45,24.68-39.78-1.92-48.19-79-372.89-282.46-537C1382.39,1417,1196.91,1578.16,1250.9,1720.85Z' />
  </g>
  <g id='finTop'>
    <path class='fins' d='M719.87,1036.57c75.75,0,484.69-188,398-303.68s-516-344.18-745-158.91C514.26,623.63,740.17,819.68,719.87,1036.57Z' />
  </g>
  <g id='body'>
    <path class='body' d='M2071.77,1291.78c-53.45,20.56-79.49,34.15-123.47,23.55-20.94-5.79-294-80.08-392.72-105.9-32-8.34-68.53-43.6-123.38-35.43-99.89-19.66-52.36-20.29-149.52-107.45,44.35,147.41,69,213.54,128,254.49,44.89,29.72,260,113.52,362.49,122.4,127.3,5.8,136.49-69.22,68.11-125.84-84.23-64,188.85,71.93-40.61,181.65-131.3,49.55-254.32,29-261.6,36.51-131.12,49.64-341.21,375.85-341.21,375.85-63.11,193.7-117.55,227.28-17.3,588.39-52.15,0-323.71,8.92-524.13-.5,0,0-440.95-841.53-69.72-1413.29,24.22-39.32,118.1-177.11,224-246.69,258.42-196.69,595.32-242.08,886.61-137.35,159.53,55.36,237.38,151.12,329.35,221.51,79.71,64.1,154.16,128.92,197.68,183.28C2275,1166.66,2219.37,1197.65,2071.77,1291.78Z' />
  </g>
  <g id='bodyUnder'>
    <path class='underbody' d='M2075.51,1291.78c-53.45,20.56-67.77,36.82-123.48,23.55-20.94-5.79-299.2-65.95-397.91-91.77C1502,1209.19,1502,1197,1435.93,1174c-99.89-19.66-50.81-11.23-148-98.39,44.35,147.41,63.83,204.48,122.75,245.43,44.89,29.72,263.79,113.52,366.13,122.4,127.3,5.8,136.5-69.22,68.11-125.84-84.22-64,188.85,71.93-40.61,181.65-131.3,49.55-254.32,29-261.6,36.51-131.12,49.64-276,268-329.53,382.31-32.6,69.58-132.87,220.82-32.62,581.93-103.56,0-290.61-.5-290.61-.5s-94.81-236.89-75.69-481.86C854.81,1742,1091.47,1506.49,1142.46,1465c57.43-59.76,133.44-84.07,107.54-186.61-74.29-294.06-91.43-350.45,158.34-234.12,71.57,24.82,300.48-41,434-22.11,171.64,24.28,298.39,97.76,302.49,3.63,30.87,23.55,47.9,40,83.23,81.35C2278.74,1166.66,2223,1197.65,2075.51,1291.78Z' />
  </g>
  <g id='teeth2'>
    <path class='teeth' d='M1829.57,1298c17.78-2.46,19-5.32,28-3.81-.45,8,0,45.56,1.67,52.81,9.92-5.89,22.46-24.94,27.74-34.82,2.82,11.24-29.32,84.35-4.92,60.52,34.33-58,10.08,31.69-2.39,32.59,0,0-5.44-16-7.44-20.18-5.83-11.59-44.87-70.17-54.34-79' />
  </g>
  <g id='gills'>
    <path class='gills' d='M984.66,1134.5c-1.19-4.35,8.83,42.49,12.84,53.36,28.22,78.1,51,110.62,117.19,162.44-44.71-40.31-67.2-114.6-83.59-175.94-10.57-39.95-7.56-94.94,17.3-14.94,25.22,63.41,74.66,115,121.1,163-40.15-39.68-64-91.87-73.12-147.22-9.56-47.65-14.93-107,10.66-149.39,4.19,83.44,26.31,168.6,89,229.39,5.37,6.07,12,14.31,17.12,19.38-76.95-91.14-71.39-222-92.52-328.14-63.74,67.59-75.94,146.68-41.24,231.21-12.48-30.35-45.44-99.84-44.53-172.23-3.73-43.58-22.49,35.79-23.95,50.65-3.64,36-6.65,59.06-1.46,94.58,2.92,19.66,4.65,40.86,7.29,47.47-19.85-49.37-19.49-84-28.5-125.93-.46-4.26.09-9-.55-13.23-5.73,31.71-10,44.85-3,75.56' />
  </g>
  <g id='tail'>
    <path class='fins' d='M1706.29,2501.25s38,33.25,76.31-139.61a27.09,27.09,0,0,0-.09-11.51c-31-141.69,64.74-251.77,82.86-256.3s-83.5,137.35-23.95,250c21.94,31.89,57.56,54.9,88,75.92-11.92,8.06-55.27,5.53-77.85,3.71-8.19-.72-15.12,5-16.93,13.5l-18.39,64.24C1818.93,2504.42,1706.29,2501.25,1706.29,2501.25Z' />
  </g>
  <g id='finLeft'>
    <path class='fins' d='M258.21,2148.46c-12.38-3.8,3.92-66.31,7.83-85.7,34.33-169.78,99-436,355.12-598.85C906.44,1282.54,887,1576,1013.89,1615.21,677.62,1751.1,429.76,2019.54,321.22,2109.6,297,2129.8,268.78,2155.44,258.21,2148.46Z' />
  </g>

  <g id='nostrils'>
    <path class='nostrils' d='M2124.49,1111.18s11.2,8.61,36.52,17.85C2177.58,1122.69,2139.52,1106.83,2124.49,1111.18Z' />
  </g>
  <g id='nostrilRight'>
    <path class='nostrils' d='M1870.73,1085.85c6.37,12.87-5.1,28.63,62.28,33.88C1870.73,1085.85,1840.77,1072.35,1870.73,1085.85Z' />
  </g>

  <g id='eyes'>
    <path class='eyes' d='M1394.32,854.65c-24,6.52,118,23.74,108.81,63.51-17.67-19.3-59.19-24.19-84-27.45-105.9-7.07-47.35-11.51-8.84,20.2,10.2,18.93,32,44.21,97.07,31.53,20.85-2.36,40.43,23.46,51,30.16,60.73-7,87.14-6.34,4.28-11.23-15.66-3.89-41.61-28-51.72-38,.91-9.6-6.37-26.91-10.2-34.52C1476.27,879.47,1422.45,849.3,1394.32,854.65Z' />
  </g>
  <g id='eyeRIghtBG'>
    <path class='eyes' d='M1903,870.32c-12,8.43-27.87,23-22.13,33.7,12.66,23.56,34.51,41.68,58.18,56.72,41.43,26.18,58,24.46,58,24.46s-45.9-22.92-49.81-32.53c-3.73-9.33-1.28-30.71-10.11-36.24-13.66-8.6-36.42-6.43-47.26-12.14C1893,894.6,1890.48,890.53,1903,870.32Z' />
  </g>
  <g id='eyeLeftPupil'>
    <path class='pupils' d='M1472.26,919.7a14.85,14.85,0,1,1,14.84,14.76A14.81,14.81,0,0,1,1472.26,919.7Z' />
  </g>
  <g id='eyeRightPupil'>
    <path class='pupils' d='M1942.57,934.37s3.36,12.33-4.92,12.33-15.39-6.62-14.84-14.77c.36-6.07.72-13.59,8.92-13.59C1939.92,918.16,1942.57,934.37,1942.57,934.37Z' />
  </g>

  <g id='teeth3'>
    <path class='teeth' d='M1943.24,1313.39c-26.9-3.83-85.27,17.68-116.86,26.31,13.66-18.75,38.76-55.7-.31-38.69-45.26,11.69-70.46,67.24-42.65-22.62,28.89,6.73,108.55,22.79,159.82,35.3' />
  </g>
  <g id='shadow'>
    <path class='shadow' d='M1817.84,1464.86c-60.66,59.48-202.85,55.58-288.73,51.82-111.66-10.27-225.43-15.84-316-74.09,15.45,26.8,115,93.52,185.72,103.44,23.33,10.38,71-5.65,54.26,5.93-84.06,58.36-174.63,176.24-189.17,200.42C1155.27,1933,1036.3,2105.86,1143.54,2500c-81.78,0-254.52,3.82-360.71,3.82-59.5-121.22-89.86-230.53-88.47-434.66.74-109.4,39.48-277.94,90.93-333.76,15.37-16.68,180.55-97.8,195.72-106.75,32.88-19.4,0,3.53,32.88-13.48C981,1609.7,929,1544,893,1482.83c-52-88.37,199-341,310.43-407.26,11.79,118.86,44.44,251.07,167.18,313.18C1555.59,1482.33,1703.42,1474.51,1817.84,1464.86Z' />
  </g>
<path id="FinRight" d="M1928.28,1834.82c-3.46,3.46-101.13,161-49.13,173,49.48,11.47,64-172,64-171.49,0,23.49-26.3,188.94,22.06,180,59.59-11-9.19-174.6-8.22-173.83,2.61,2.09,49.15,165.34,88,143.32,49.37-28-75.15-149.47-74.61-149.47,3,0,118.58,130.71,150.91,85.14,28.26-39.84-134.3-107.23-135-107.71-.29-.18,155,71,167.18,19.49,16.87-71.23-166.61-36.41-165.65-35.9,4.61,2.49,180.82-27.93,160.52-70.25-17.11-35.65-175.93,50.17-175.39,51.79.15.44,148.4-84,101-119-45.31-33.48-113.44,108.53-113.34,108.2,1.37-4.1,74.84-141.6,19.61-141.68-40.71-.06-39.61,142.2-39.61,142.2s11.1-162.85-44.66-140c-43.39,17.78,35,143.61,32.87,138.46-2.6-6.38-80.56-123.83-110.49-81.23-27,38.38,100.62,95.39,100.35,95.66-1.11,1.11-147.55-63.6-147.3-9.82.16,31.86,133.11,28.36,139,27.18.33-.06-145.79,4.5-130.46,50.45,18.66,56,138.32-30.11,138.15-30.45-1-2.08-299.78,307.5-289.77,321C1642.69,2159.53,1928.71,1834.38,1928.28,1834.82Z" style="fill:#ff91f6;stroke:#606060;stroke-linecap:round;stroke-linejoin:round;stroke-width:5.231100198132208px"/><g id="Neck"><path d="M842.78,822.56c-10.66,5.15-16.48,5-23,15.43,37.45,367.61,184.52,711.84,328.37,901.79-41.48,22.56-71.64,65.67-76.53,117.56l-.31,3.12c-7.67,81.37,49.58,153.31,127.88,160.69s148-52.6,155.65-134l.31-3.12a150,150,0,0,0-38.46-115.81c43.17-41.76,147.6-155.48,138.59-173.16-12.69,5.79-6.93,5.38-22.64,18.79-42.16,48-73.62,95.5-134.33,137.61a137.26,137.26,0,0,0-127.75-21.59C1103.43,1639.17,890.44,1316.93,842.78,822.56Z" style="fill:#fff133;stroke:#606060;stroke-linecap:round;stroke-linejoin:round;stroke-width:5.231100198132208px"/><path d="M1098,1871.67c0-67.38,52.58-122,117.45-122s117.45,54.62,117.45,122-52.58,122-117.45,122S1098,1939.05,1098,1871.67Z" style="fill:#fff133;stroke:#606060;stroke-linecap:round;stroke-linejoin:round;stroke-width:4.160400005834031px"/><path d="M1219.61,1751.3l-5.18,241.48" style="fill:none;stroke:#606060;stroke-linecap:round;stroke-linejoin:round;stroke-width:5.231100198132208px"/><path d="M1142.11,1966.34,1213,1897" style="fill:none;stroke:#606060;stroke-linecap:round;stroke-linejoin:round;stroke-width:5.231100198132208px"/><path d="M1287.08,1966.79l-68-70.6" style="fill:none;stroke:#606060;stroke-linecap:round;stroke-linejoin:round;stroke-width:5.231100198132208px"/></g><g id="Clothing"><path d="M1446.56,1618.81c-25.14,40.33-96.14,116.79-129.9,149.44a150,150,0,0,1,38.46,115.81l-.31,3.12c-7.67,81.37-77.36,141.35-155.65,134a137.39,137.39,0,0,1-26.57-5.25c-38.56,112.36-38.12,201.23-33.18,269.78,0,50.39,170.94,136.25,219.68,150.63-62.66-282.44,92-710.19,125.91-775.94C1463.42,1648.81,1452.24,1630.63,1446.56,1618.81Zm-20,2.18c-7.59,8-16,17.09-20.18,21.22-18.82,21.27-36.22,42-52.57,62.35C1380.5,1677.67,1402.15,1649.45,1426.59,1621Z" style="fill:#df7269;stroke:#606060;stroke-linecap:round;stroke-linejoin:round;stroke-width:5.231100198132208px"/><path d="M584.62,1885.89c38.54,73.73,208.57,378.07,429.18-266.16-26-2.75-74.41-51.41-113.78-124.29a181.52,181.52,0,0,0-88.26-82.25c-29.27-12.91-61.49-2-92,5.72-98.77,24.83-213.58,133.26-281.65,214.43,5.68-195.27,22-277.17,74.88-402.4S697.14,920.63,759.06,884.41c-64.81,197,197.61,553.66,389,728.46,8.85,8.08-283.06,624-305.3,823.44-56-76.83-298.94-159.6-360.66-210.85-10.07-15.1-31.44-213.14-21.12-233.77" style="fill:#df7269;stroke:#606060;stroke-linecap:round;stroke-linejoin:round;stroke-width:5.231100198132208px"/></g><path id="Head" d="M997,793.16c100.69,31.16,305.71-11.43,351.71-26.84,42.41-14.21,308.31-49.87,321.81-49,129.87,8.56,192.6,82.62,209.54,78.43,46.17-11.4,51.54-65.51,53.34-73.25,15.32-65.67-31-109.5-66.23-118.29,14.7-102.6-135.41-238.65-278.37-307.14S1265,204.16,1071.63,204.16c-103,0-278.37,0-278.26,114.92-2.46,81,20,169.1,81.57,177.26,74.49,9.86,108,76.93,127.45,110.93,23.61,5,29,27.91-7.61,26.18C934.88,659.2,947.78,783.5,997,793.16Z" style="fill:#5fd155;stroke:#606060;stroke-linecap:round;stroke-linejoin:round;stroke-width:5.231100198132208px"/><g id="Mouth"><path d="M2326.66,1104.31c-.37-.29-7.45,39.7-7.75,69-.28,26.36-25.62,62.16-14.1,72.44,23,20.55,76.27,8.13,50,38.31-8.83,10.15-87.08,25-87,45.5.12,19.78,36.28,33.28,42.75,55.75,12.09,19.68-175.23,55.94-215.28,74.47-18.43-24-210.19-55-220.4-45.13,7,14.31,190.89,62.91,219.75,49.31,51.32,6.42,229.42-50.54,240.72-62.75,2.13-2.3,9.38-12.71-9.72-25.78-11.37-7.83-38.8-22.2-30.6-35.65,11.38-18.67,86-29.9,86-47.38,0-26.09-47.92-44-54.43-55.75-9.79-17,27.83-41.82,30.62-70.53S2328.18,1105.5,2326.66,1104.31Z" style="fill:#fff;stroke:#606060;stroke-linecap:round;stroke-linejoin:round;stroke-width:5.231100198132208px"/><path d="M2244.72,1214.4c-2.64,10.55-79.6,100.52-78.28,157.59,5.67,42.16,63.64,86.62,59.72,92.5-4.3,6.44-100.19,1.87-109.91,17.41-22,35.23,34.87,77.42,28.56,81.44-9.94,6.32-92.84,18.25-159.56-15.19-40.11-8.84-111.8,36.5-132.75,62.22-9.43-49.13-93.27-168.48-127.78-183.66,2.41,42.71,91.65,175.91,128.75,191.38a48,48,0,0,0-.72-5.53c111-49.45,127.32-46.82,171.16-26.78,28.07,12.83,129.65,3.19,141.18-16.32s-39.25-53.49-24.75-68c3.66-3.65,101-23.66,108.88-31.09,13.86-13.09-40.54-56.21-45.16-85.31-5.89-56,41.59-168.48,42.25-170.66Z" style="fill:#fff;stroke:#606060;stroke-linecap:round;stroke-linejoin:round;stroke-width:5.231100198132208px"/></g><g id="Eyes"><path d="M1485,653.37c-101.71,0-184.47,77.23-189.13,174.12-19.63,2.07-244.63-1.9-253.68,1.72-13.39,5.36-65,63.1-59.6,67.66,18,15.36,46-45.49,69.07-51.09,86.48,0,209.95,3.62,240.84,3.62,2.91-.9,3.68,2.29,3.68,2.29,0,100.88,84.12,170.9,188.82,170.9,99.78,0,181.38-74.33,188.84-168.63H1812.5c7.47,86.32,82.17,154.13,173.41,154.13,96.19,0,174.18-75.35,174.18-168.31v-3.6c0-93-78-168.31-174.18-168.31s-174.16,75.34-174.16,168.31V838H1674.56v-2C1674.56,735.14,1589.7,653.37,1485,653.37Z" style="fill:#fffffb;stroke:#606060;stroke-linecap:round;stroke-linejoin:round;stroke-width:5.231100198132208px"/><path d="M2096.87,709.5l-251.95,223A172,172,0,0,0,1918,991.08l231.26-204.77A168.3,168.3,0,0,0,2096.87,709.5Z" style="fill:#f9f9f9"/><path d="M1622.73,713.79,1342.67,963.26c22.51,22.45,51.64,39.43,85.2,48.84l240.07-213.86A181.38,181.38,0,0,0,1622.73,713.79Z" style="fill:#f9f9f9"/></g>

</svg>